<svg width="148" height="149" viewBox="0 0 148 149" fill="none" xmlns="http://www.w3.org/2000/svg">
<rect width="148" height="148" transform="translate(0 0.345703)" fill="#C1C1C1"/>
<path d="M56.2432 55.3457H55.0742V46.377H51.9297V45.3516H59.374V46.377H56.2432V55.3457ZM63.585 45.3516C64.4053 45.3516 65.082 45.4541 65.6152 45.6592C66.153 45.8597 66.554 46.1673 66.8184 46.582C67.0827 46.9967 67.2148 47.5254 67.2148 48.168C67.2148 48.6966 67.1191 49.1387 66.9277 49.4941C66.7363 49.8451 66.4857 50.1299 66.1758 50.3486C65.8659 50.5674 65.5355 50.736 65.1846 50.8545L67.9258 55.3457H66.5723L64.125 51.1758H62.0469V55.3457H60.8848V45.3516H63.585ZM63.5166 46.3564H62.0469V50.1914H63.6328C64.4486 50.1914 65.0479 50.0251 65.4307 49.6924C65.818 49.3597 66.0117 48.8698 66.0117 48.2227C66.0117 47.5436 65.8066 47.0628 65.3965 46.7803C64.9909 46.4977 64.3643 46.3564 63.5166 46.3564ZM75.7939 55.3457L74.5635 52.1738H70.5576L69.334 55.3457H68.1582L72.0684 45.3105H73.1143L76.9971 55.3457H75.7939ZM74.2148 51.1416L73.0459 47.9902C73.0186 47.9082 72.973 47.7738 72.9092 47.5869C72.8499 47.4001 72.7884 47.2064 72.7246 47.0059C72.6608 46.8053 72.6084 46.6436 72.5674 46.5205C72.5218 46.7074 72.4717 46.8942 72.417 47.0811C72.3669 47.2633 72.3167 47.4342 72.2666 47.5938C72.2165 47.7487 72.1732 47.8809 72.1367 47.9902L70.9473 51.1416H74.2148ZM86.2939 46.2334C85.7425 46.2334 85.2458 46.3291 84.8037 46.5205C84.3662 46.7074 83.9925 46.9808 83.6826 47.3408C83.3773 47.6963 83.1426 48.127 82.9785 48.6328C82.8145 49.1387 82.7324 49.7083 82.7324 50.3418C82.7324 51.1803 82.8623 51.9095 83.1221 52.5293C83.3864 53.1445 83.7783 53.6208 84.2979 53.958C84.8219 54.2952 85.4759 54.4639 86.2598 54.4639C86.7064 54.4639 87.1257 54.4274 87.5176 54.3545C87.9141 54.277 88.2992 54.1813 88.6729 54.0674V55.0791C88.3083 55.2158 87.9255 55.3161 87.5244 55.3799C87.1234 55.4482 86.6471 55.4824 86.0957 55.4824C85.0794 55.4824 84.2295 55.2728 83.5459 54.8535C82.8669 54.4297 82.3564 53.8327 82.0146 53.0625C81.6774 52.2923 81.5088 51.3831 81.5088 50.335C81.5088 49.5785 81.6136 48.888 81.8232 48.2637C82.0374 47.6348 82.3473 47.0924 82.7529 46.6367C83.1631 46.181 83.6644 45.8301 84.2568 45.584C84.8538 45.3333 85.5374 45.208 86.3076 45.208C86.8135 45.208 87.3011 45.2581 87.7705 45.3584C88.2399 45.4587 88.6637 45.6022 89.042 45.7891L88.5771 46.7734C88.2581 46.6276 87.9072 46.5023 87.5244 46.3975C87.1462 46.2881 86.736 46.2334 86.2939 46.2334ZM98.4004 45.3516V46.7188C98.6966 46.6686 98.9222 46.557 99.0771 46.3838C99.2367 46.2106 99.346 45.9827 99.4053 45.7002C99.4691 45.4176 99.501 45.0872 99.501 44.709H100.697L100.793 44.8525C100.738 45.1852 100.659 45.4997 100.554 45.7959C100.453 46.0876 100.312 46.3519 100.13 46.5889C99.9521 46.8213 99.722 47.0173 99.4395 47.1768C99.1569 47.3363 98.8105 47.4525 98.4004 47.5254V51.8184C98.4004 52.5247 98.266 53.1536 97.9971 53.7051C97.7327 54.2565 97.3226 54.6917 96.7666 55.0107C96.2106 55.3252 95.4951 55.4824 94.6201 55.4824C93.3577 55.4824 92.3939 55.1475 91.7285 54.4775C91.0677 53.8076 90.7373 52.9121 90.7373 51.791V45.3516H91.9062V51.8389C91.9062 52.6774 92.1341 53.3268 92.5898 53.7871C93.0501 54.2474 93.736 54.4775 94.6475 54.4775C95.2581 54.4775 95.7549 54.3682 96.1377 54.1494C96.5205 53.9261 96.8008 53.6162 96.9785 53.2197C97.1562 52.8232 97.2451 52.3652 97.2451 51.8457V45.3516H98.4004ZM96.5615 42.1113V42.248C96.4704 42.3802 96.3451 42.5397 96.1855 42.7266C96.0306 42.9089 95.8574 43.1025 95.666 43.3076C95.4746 43.5081 95.2809 43.6995 95.085 43.8818C94.8936 44.0641 94.7158 44.2214 94.5518 44.3535H93.793V44.1895C93.9388 44.0163 94.0983 43.8089 94.2715 43.5674C94.4447 43.3213 94.6133 43.0706 94.7773 42.8154C94.9414 42.5557 95.0781 42.321 95.1875 42.1113H96.5615ZM109.215 45.3516V51.8184C109.215 52.5247 109.071 53.1536 108.784 53.7051C108.502 54.2565 108.073 54.6917 107.499 55.0107C106.925 55.3252 106.205 55.4824 105.339 55.4824C104.104 55.4824 103.163 55.1475 102.516 54.4775C101.873 53.8076 101.552 52.9121 101.552 51.791V45.3516H102.721V51.8252C102.721 52.6729 102.944 53.3268 103.391 53.7871C103.842 54.2474 104.514 54.4775 105.407 54.4775C106.018 54.4775 106.517 54.3682 106.904 54.1494C107.296 53.9261 107.586 53.6162 107.772 53.2197C107.964 52.8187 108.06 52.3561 108.06 51.832V45.3516H109.215ZM39.3789 69.3516H42.209C43.4577 69.3516 44.3965 69.5384 45.0254 69.9121C45.6543 70.2858 45.9688 70.9215 45.9688 71.8193C45.9688 72.2067 45.8936 72.5553 45.7432 72.8652C45.5973 73.1706 45.3831 73.4235 45.1006 73.624C44.818 73.8245 44.4694 73.9635 44.0547 74.041V74.1094C44.4922 74.1777 44.8796 74.3031 45.2168 74.4854C45.554 74.6676 45.8184 74.9229 46.0098 75.251C46.2012 75.5791 46.2969 75.9961 46.2969 76.502C46.2969 77.1172 46.1533 77.6367 45.8662 78.0605C45.5837 78.4844 45.1826 78.8057 44.6631 79.0244C44.1436 79.2386 43.5283 79.3457 42.8174 79.3457H39.3789V69.3516ZM40.541 73.6377H42.4551C43.3255 73.6377 43.9271 73.4941 44.2598 73.207C44.597 72.9199 44.7656 72.5007 44.7656 71.9492C44.7656 71.3796 44.5651 70.9694 44.1641 70.7188C43.7676 70.4681 43.1341 70.3428 42.2637 70.3428H40.541V73.6377ZM40.541 74.6152V78.3545H42.6191C43.5078 78.3545 44.1367 78.1813 44.5059 77.835C44.875 77.484 45.0596 77.0124 45.0596 76.4199C45.0596 76.0417 44.9753 75.7181 44.8066 75.4492C44.6426 75.1803 44.3737 74.9753 44 74.834C43.6309 74.6882 43.1364 74.6152 42.5166 74.6152H40.541ZM54.6982 79.3457L53.4678 76.1738H49.4619L48.2383 79.3457H47.0625L50.9727 69.3105H52.0186L55.9014 79.3457H54.6982ZM53.1191 75.1416L51.9502 71.9902C51.9229 71.9082 51.8773 71.7738 51.8135 71.5869C51.7542 71.4001 51.6927 71.2064 51.6289 71.0059C51.5651 70.8053 51.5127 70.6436 51.4717 70.5205C51.4261 70.7074 51.376 70.8942 51.3213 71.0811C51.2712 71.2633 51.221 71.4342 51.1709 71.5938C51.1208 71.7487 51.0775 71.8809 51.041 71.9902L49.8516 75.1416H53.1191ZM53.0508 66.7949C53.0508 67.1458 52.9437 67.4193 52.7295 67.6152C52.5153 67.8066 52.2419 67.9411 51.9092 68.0186L51.8477 68.7773H51.1367L51.0479 67.5947C51.3988 67.5355 51.6722 67.4512 51.8682 67.3418C52.0687 67.2279 52.1689 67.0592 52.1689 66.8359C52.1689 66.6126 52.0801 66.46 51.9023 66.3779C51.7292 66.2959 51.5081 66.2549 51.2393 66.2549C51.1117 66.2549 50.984 66.2617 50.8564 66.2754C50.7334 66.2845 50.6309 66.2982 50.5488 66.3164V65.6328C50.64 65.6055 50.7493 65.585 50.877 65.5713C51.0046 65.5531 51.1572 65.5439 51.335 65.5439C51.8864 65.5439 52.3102 65.6488 52.6064 65.8584C52.9027 66.0635 53.0508 66.3757 53.0508 66.7949ZM65.957 74.335C65.957 75.1051 65.859 75.807 65.6631 76.4404C65.4671 77.0693 65.1755 77.6117 64.7881 78.0674C64.4053 78.5186 63.929 78.8672 63.3594 79.1133C62.7897 79.3594 62.1289 79.4824 61.377 79.4824C60.6022 79.4824 59.9255 79.3594 59.3467 79.1133C58.7725 78.8672 58.2939 78.5163 57.9111 78.0605C57.5329 77.6048 57.248 77.0602 57.0566 76.4268C56.8698 75.7933 56.7764 75.0915 56.7764 74.3213C56.7764 73.3005 56.945 72.4049 57.2822 71.6348C57.6195 70.8646 58.1299 70.2653 58.8135 69.8369C59.5016 69.4085 60.363 69.1943 61.3975 69.1943C62.3864 69.1943 63.2181 69.4062 63.8926 69.8301C64.5716 70.2539 65.0843 70.8509 65.4307 71.6211C65.7816 72.3867 65.957 73.2913 65.957 74.335ZM58 74.335C58 75.1826 58.1208 75.9163 58.3623 76.5361C58.6038 77.1559 58.973 77.6344 59.4697 77.9717C59.971 78.3089 60.6068 78.4775 61.377 78.4775C62.1517 78.4775 62.7852 78.3089 63.2773 77.9717C63.7741 77.6344 64.141 77.1559 64.3779 76.5361C64.6149 75.9163 64.7334 75.1826 64.7334 74.335C64.7334 73.0452 64.4622 72.0381 63.9199 71.3135C63.3822 70.5843 62.5413 70.2197 61.3975 70.2197C60.6227 70.2197 59.9847 70.3861 59.4834 70.7188C58.9821 71.0514 58.6084 71.5254 58.3623 72.1406C58.1208 72.7513 58 73.4827 58 74.335ZM79.3965 79.3457H78.2344V74.6357H72.9844V79.3457H71.8223V69.3516H72.9844V73.6104H78.2344V69.3516H79.3965V79.3457ZM88.4131 79.3457L87.1826 76.1738H83.1768L81.9531 79.3457H80.7773L84.6875 69.3105H85.7334L89.6162 79.3457H88.4131ZM86.834 75.1416L85.665 71.9902C85.6377 71.9082 85.5921 71.7738 85.5283 71.5869C85.4691 71.4001 85.4076 71.2064 85.3438 71.0059C85.2799 70.8053 85.2275 70.6436 85.1865 70.5205C85.141 70.7074 85.0908 70.8942 85.0361 71.0811C84.986 71.2633 84.9359 71.4342 84.8857 71.5938C84.8356 71.7487 84.7923 71.8809 84.7559 71.9902L83.5664 75.1416H86.834ZM84.7217 66.1113C84.8311 66.321 84.9655 66.5557 85.125 66.8154C85.2891 67.0706 85.46 67.3213 85.6377 67.5674C85.82 67.8089 85.9863 68.0163 86.1367 68.1895V68.3535H85.3643C85.2002 68.2214 85.0202 68.0641 84.8242 67.8818C84.6328 67.6995 84.4414 67.5081 84.25 67.3076C84.0586 67.1025 83.8854 66.9089 83.7305 66.7266C83.5755 66.5397 83.4548 66.3802 83.3682 66.248V66.1113H84.7217ZM98.8174 79.3457H97.4775L92.0293 70.9512H91.9746C91.9883 71.1745 92.0042 71.4297 92.0225 71.7168C92.0407 71.9993 92.0544 72.3024 92.0635 72.626C92.0771 72.945 92.084 73.2708 92.084 73.6035V79.3457H91.0039V69.3516H92.3369L97.7646 77.7188H97.8125C97.8034 77.5592 97.792 77.3337 97.7783 77.042C97.7646 76.7458 97.751 76.429 97.7373 76.0918C97.7282 75.75 97.7236 75.4333 97.7236 75.1416V69.3516H98.8174V79.3457ZM109.119 79.3457H107.957V74.6357H102.707V79.3457H101.545V69.3516H102.707V73.6104H107.957V69.3516H109.119V79.3457ZM60.3311 93.3516C61.3428 93.3516 62.2155 93.5384 62.9492 93.9121C63.6875 94.2812 64.2549 94.8304 64.6514 95.5596C65.0524 96.2842 65.2529 97.182 65.2529 98.2529C65.2529 99.3786 65.0479 100.32 64.6377 101.076C64.2275 101.828 63.6328 102.396 62.8535 102.778C62.0742 103.157 61.1286 103.346 60.0166 103.346H57.4053V98.9092H56.3457V97.8906H57.4053V93.3516H60.3311ZM60.1533 94.3428H58.5605V97.8906H61.1035V98.9092H58.5605V102.348H59.8936C61.2744 102.348 62.3089 102.008 62.9971 101.329C63.6852 100.65 64.0293 99.6383 64.0293 98.2939C64.0293 97.3962 63.8789 96.6556 63.5781 96.0723C63.2773 95.4889 62.8376 95.056 62.2588 94.7734C61.6846 94.4863 60.9827 94.3428 60.1533 94.3428ZM67.4746 103.346V93.3516H68.6367V103.346H67.4746ZM76.9492 103.346H71.3848V93.3516H76.9492V94.377H72.5469V97.6104H76.6963V98.6221H72.5469V102.32H76.9492V103.346ZM74.1943 105.745C74.0029 105.745 73.8411 105.684 73.709 105.561C73.5768 105.438 73.5107 105.251 73.5107 105C73.5107 104.745 73.5768 104.556 73.709 104.433C73.8411 104.314 74.0029 104.255 74.1943 104.255C74.3903 104.255 74.5544 104.314 74.6865 104.433C74.8187 104.556 74.8848 104.745 74.8848 105C74.8848 105.251 74.8187 105.438 74.6865 105.561C74.5544 105.684 74.3903 105.745 74.1943 105.745ZM74.8848 90.1182C74.9987 90.3232 75.1582 90.5557 75.3633 90.8154C75.5684 91.0706 75.7848 91.3213 76.0127 91.5674C76.2406 91.8135 76.4434 92.0254 76.6211 92.2031V92.3535H75.8145C75.5684 92.194 75.3154 91.998 75.0557 91.7656C74.7959 91.5332 74.543 91.2917 74.2969 91.041C74.0508 91.2917 73.8001 91.5332 73.5449 91.7656C73.2943 91.9935 73.0459 92.1895 72.7998 92.3535H72.0205V92.2031C72.1937 92.0208 72.3896 91.8066 72.6084 91.5605C72.8317 91.3145 73.0436 91.0638 73.2441 90.8086C73.4492 90.5534 73.611 90.3232 73.7295 90.1182H74.8848ZM86.9775 103.346H85.6377L80.1895 94.9512H80.1348C80.1484 95.1745 80.1644 95.4297 80.1826 95.7168C80.2008 95.9993 80.2145 96.3024 80.2236 96.626C80.2373 96.945 80.2441 97.2708 80.2441 97.6035V103.346H79.1641V93.3516H80.4971L85.9248 101.719H85.9727C85.9635 101.559 85.9521 101.334 85.9385 101.042C85.9248 100.746 85.9111 100.429 85.8975 100.092C85.8883 99.75 85.8838 99.4333 85.8838 99.1416V93.3516H86.9775V103.346ZM96.4111 103.346H95.2422V94.377H92.0977V93.3516H99.542V94.377H96.4111V103.346ZM108.613 93.3516V94.7188C108.91 94.6686 109.135 94.557 109.29 94.3838C109.45 94.2106 109.559 93.9827 109.618 93.7002C109.682 93.4176 109.714 93.0872 109.714 92.709H110.91L111.006 92.8525C110.951 93.1852 110.871 93.4997 110.767 93.7959C110.666 94.0876 110.525 94.3519 110.343 94.5889C110.165 94.8213 109.935 95.0173 109.652 95.1768C109.37 95.3363 109.023 95.4525 108.613 95.5254V99.8184C108.613 100.525 108.479 101.154 108.21 101.705C107.946 102.257 107.535 102.692 106.979 103.011C106.424 103.325 105.708 103.482 104.833 103.482C103.571 103.482 102.607 103.147 101.941 102.478C101.281 101.808 100.95 100.912 100.95 99.791V93.3516H102.119V99.8389C102.119 100.677 102.347 101.327 102.803 101.787C103.263 102.247 103.949 102.478 104.86 102.478C105.471 102.478 105.968 102.368 106.351 102.149C106.733 101.926 107.014 101.616 107.191 101.22C107.369 100.823 107.458 100.365 107.458 99.8457V93.3516H108.613ZM106.33 90.7949C106.33 91.1458 106.223 91.4193 106.009 91.6152C105.795 91.8066 105.521 91.9411 105.188 92.0186L105.127 92.7773H104.416L104.327 91.5947C104.678 91.5355 104.951 91.4512 105.147 91.3418C105.348 91.2279 105.448 91.0592 105.448 90.8359C105.448 90.6126 105.359 90.46 105.182 90.3779C105.008 90.2959 104.787 90.2549 104.519 90.2549C104.391 90.2549 104.263 90.2617 104.136 90.2754C104.013 90.2845 103.91 90.2982 103.828 90.3164V89.6328C103.919 89.6055 104.029 89.585 104.156 89.5713C104.284 89.5531 104.437 89.5439 104.614 89.5439C105.166 89.5439 105.59 89.6488 105.886 89.8584C106.182 90.0635 106.33 90.3757 106.33 90.7949Z" fill="white"/>
<path fill-rule="evenodd" clip-rule="evenodd" d="M-2.98127e-07 115.617L-2.30339e-07 117.168L98.9337 117.168L96.8848 122.437L107.711 116.391L96.8848 110.346L98.9347 115.617L-2.98127e-07 115.617Z" fill="white"/>
</svg>
