<svg width="33" height="32" viewBox="0 0 33 32" fill="none" xmlns="http://www.w3.org/2000/svg">
<g clip-path="url(#clip0_324_20862)">
<path d="M17.3913 1.27954C9.04802 1.27954 2.28125 8.04631 2.28125 16.3895C2.28125 24.7328 9.04802 31.4903 17.3913 31.4903C25.7345 31.4903 32.5013 24.7236 32.5013 16.3895C32.5013 8.05553 25.7253 1.27954 17.3913 1.27954ZM18.1472 12.4715C18.1011 12.8771 18.0735 13.3934 17.9813 13.8912C17.9352 14.1493 18.0274 14.2692 18.1933 14.4167C19.9541 15.947 21.715 17.4774 23.4758 19.017C24.1672 19.6254 24.8771 20.2247 25.5593 20.8331C26.4443 21.626 26.7578 22.6308 26.4443 23.774C26.1401 24.8987 25.3657 25.6086 24.2133 25.8206C23.1624 26.0234 22.2405 25.71 21.5214 24.8987C19.3457 22.4188 17.1884 19.9297 15.022 17.4405C14.8929 17.293 14.7823 17.2746 14.6071 17.3022C13.4916 17.4958 12.3761 17.5419 11.2698 17.2377C10.0621 16.9058 9.2785 16.0853 8.73458 14.9975C8.22753 13.9834 8.07081 12.914 8.27362 11.7985C8.29206 11.6971 8.37503 11.5588 8.458 11.5311C8.54098 11.5035 8.68848 11.5772 8.76223 11.651C9.43522 12.3055 10.0898 12.9785 10.7628 13.633C10.855 13.7252 10.984 13.799 11.1039 13.8266C11.6939 13.9649 12.2931 14.0848 12.8924 14.1954C12.9846 14.2139 13.1136 14.177 13.1874 14.1124C13.7129 13.5962 14.2383 13.0799 14.7546 12.5452C14.8284 12.4715 14.8652 12.3147 14.8468 12.2133C14.7362 11.6141 14.6163 11.0148 14.478 10.4248C14.4504 10.305 14.3766 10.1943 14.2937 10.1022C13.6391 9.43839 12.9753 8.78384 12.33 8.12007C12.247 8.0371 12.1733 7.88959 12.1917 7.7974C12.2194 7.71443 12.3761 7.63146 12.4775 7.61302C14.3305 7.32723 15.9254 7.86193 17.1884 9.25401C17.7785 9.90856 17.9905 10.7383 18.0735 11.5956C18.1011 11.8538 18.1011 12.1119 18.1288 12.4715H18.1472ZM22.9503 22.9996C22.9503 23.4052 23.273 23.7371 23.6786 23.7371C24.0751 23.7371 24.4254 23.3868 24.4254 22.9812C24.4254 22.5755 24.0935 22.2621 23.6786 22.2621C23.273 22.2621 22.9503 22.5847 22.9503 22.9996ZM16.2942 20.9622C16.1928 21.1373 16.1375 21.3217 16.0176 21.4416C14.644 22.8244 13.2703 24.1981 11.8875 25.5809C11.5833 25.8852 11.2145 25.8759 10.9103 25.5809C10.3756 25.0554 9.84086 24.5207 9.31538 23.986C8.99271 23.6541 8.98349 23.3038 9.31538 22.9719C10.7167 21.5614 12.1272 20.1601 13.5285 18.7588C13.888 18.4085 14.2568 18.4269 14.5794 18.8049C15.0681 19.3673 15.5567 19.9297 16.0361 20.5012C16.1467 20.6303 16.202 20.7962 16.2942 20.9806V20.9622ZM24.5544 9.08807C24.997 9.52136 25.4118 9.94544 25.8451 10.3787C25.5501 10.7751 25.2551 11.1992 24.9232 11.5864C24.8126 11.7155 24.6098 11.78 24.4438 11.8353C23.9829 11.9736 23.6325 12.2502 23.3007 12.5913C22.4341 13.4948 21.5398 14.3706 20.6456 15.274C20.2952 14.9698 19.9541 14.6748 19.6038 14.3706C19.6684 14.2968 19.7237 14.2323 19.7882 14.177C20.7193 13.2459 21.6412 12.3055 22.5816 11.3928C22.8305 11.1531 22.9596 10.8581 23.061 10.5539C23.1808 10.1944 23.3652 9.91778 23.6971 9.72418C23.9921 9.5398 24.2687 9.30932 24.5544 9.09728V9.08807Z" fill="#D3D3D3"/>
</g>
<defs>
<clipPath id="clip0_324_20862">
<rect width="32" height="32" fill="white" transform="translate(0.5)"/>
</clipPath>
</defs>
</svg>
