<svg width="33" height="32" viewBox="0 0 33 32" fill="none" xmlns="http://www.w3.org/2000/svg">
<g clip-path="url(#clip0_324_20850)">
<g clip-path="url(#clip1_324_20850)">
<path d="M16.5049 0C7.66753 0 0.5 7.16753 0.5 16.0049C0.5 24.8422 7.66753 32 16.5049 32C25.3422 32 32.5098 24.8325 32.5098 16.0049C32.5098 7.1773 25.3325 0 16.5049 0ZM20.9089 17.4696C21.6511 17.5282 22.3639 17.5771 23.0767 17.6454C25.0493 17.8212 26.2504 19.0027 27.0218 20.7116C27.2464 21.2096 27.4319 21.7272 27.5882 22.2545C27.9104 23.3287 27.5589 24.2075 26.6019 24.7934C25.6254 25.3891 24.5317 25.6527 23.4185 25.8871C23.0865 25.9554 22.7545 26.0043 22.3932 26.0726C22.4127 25.3012 22.0905 24.7543 21.3972 24.4419C21.4167 24.354 21.446 24.2661 21.4655 24.1782C21.612 23.6314 21.4753 23.1431 21.0944 22.7428C20.8113 22.44 20.5183 22.1373 20.2058 21.8541C19.7176 21.4049 19.1414 21.3464 18.5165 21.5709C18.2821 21.0729 17.9306 20.6726 17.374 20.6237C16.7783 20.5652 16.1729 20.5652 15.587 20.6237C15.0401 20.6823 14.6886 21.0632 14.4738 21.5417C14.2394 21.5124 14.0343 21.4635 13.8097 21.4538C13.3898 21.4342 13.0285 21.5905 12.7258 21.8834C12.5403 22.069 12.3645 22.2545 12.1692 22.4303C11.5638 22.9771 11.2415 23.6021 11.5833 24.4321C10.89 24.7543 10.558 25.2817 10.5775 26.0922C9.94278 25.9652 9.33735 25.8578 8.74168 25.7113C7.93119 25.516 7.14998 25.2719 6.42737 24.8325C5.42157 24.227 5.04074 23.3482 5.40204 22.235C5.65593 21.4635 5.96842 20.7019 6.34925 19.9792C7.14998 18.4754 8.46826 17.7235 10.1576 17.6161C10.7435 17.5771 11.3294 17.5185 11.9153 17.4892C11.9934 17.4892 12.1106 17.538 12.1497 17.5966C12.384 17.9872 12.7356 18.2411 13.1359 18.4461C13.9562 18.866 14.8546 19.0418 15.7627 19.1004C16.9052 19.1785 18.038 19.1004 19.1317 18.7391C20.0008 18.4559 20.4597 18.1337 20.8894 17.4696H20.9089ZM10.6166 7.05035C10.8119 4.60909 12.2278 2.35337 13.8586 1.87489C14.005 2.67562 14.1417 3.48612 14.2882 4.28685C14.3077 4.37473 14.3175 4.46262 14.337 4.5505C14.4054 4.84345 14.6105 4.99969 14.8644 4.9411C15.128 4.89228 15.2647 4.68721 15.2061 4.3845C15.0597 3.49588 14.9034 2.61703 14.7472 1.72841C14.6495 1.16204 14.9034 0.771437 15.4893 0.742142C16.1533 0.703082 16.8271 0.712847 17.4911 0.742142C17.6767 0.742142 17.8622 0.869088 18.038 0.966738C18.2626 1.10345 18.3407 1.29875 18.2919 1.57217C18.1161 2.49008 17.9599 3.41776 17.8036 4.33567C17.745 4.66768 17.8622 4.87275 18.1356 4.9411C18.4188 5.00946 18.6141 4.85322 18.6825 4.50168C18.8387 3.63259 18.995 2.75374 19.161 1.8163C21.2214 2.9881 22.2858 4.71651 22.403 7.06012C22.5006 7.06012 22.5885 7.06988 22.6666 7.07965C23.0963 7.10894 23.4381 7.44095 23.4673 7.86085C23.4966 8.31004 23.2428 8.67135 22.8131 8.769C22.6959 8.79829 22.5787 8.79829 22.4615 8.79829C18.4774 8.79829 14.4933 8.79829 10.5189 8.79829C10.0111 8.79829 9.64983 8.53464 9.57171 8.10497C9.49359 7.65578 9.71819 7.25542 10.1478 7.11871C10.2943 7.06988 10.4603 7.06988 10.6263 7.05035H10.6166ZM22.6373 9.88221C22.5885 10.8294 22.5299 11.7278 21.7389 12.4016C21.6413 12.4797 21.5925 12.6359 21.5436 12.7629C20.9675 14.1202 20.1961 15.3506 19.0438 16.2881C18.0771 17.079 16.9834 17.5185 15.7139 17.245C14.63 17.0204 13.7804 16.376 13.0481 15.5752C12.2766 14.7257 11.7005 13.7492 11.2708 12.6848C11.222 12.5676 11.1048 12.4797 11.0267 12.3723C10.89 12.2063 10.7045 12.0598 10.6068 11.8743C10.2748 11.2688 10.1576 10.6048 10.1674 9.89197H22.6471L22.6373 9.88221ZM20.5085 23.7778C20.3718 23.9927 20.2547 24.188 20.1277 24.3833C19.8641 24.7641 20.0789 25.2817 20.5281 25.35C21.319 25.477 21.3288 25.4965 21.3288 26.307C21.3288 26.5023 21.3288 26.7074 21.3288 26.9027C21.3288 27.3128 21.2116 27.4397 20.8113 27.4983C20.7722 27.4983 20.7331 27.5179 20.6941 27.5179C20.323 27.5179 20.0984 27.6839 20.0398 28.0549C20.0203 28.1721 20.0105 28.3381 20.0691 28.426C20.616 29.1974 20.616 29.1779 19.9324 29.8517C19.4767 30.2944 18.9852 30.3432 18.4579 29.9982C18.2333 29.8517 17.6865 30.0861 17.6279 30.3497C17.5888 30.5352 17.5595 30.7208 17.5204 30.9063C17.4716 31.1504 17.3251 31.2774 17.081 31.2774C16.6904 31.2774 16.2998 31.2774 15.9092 31.2774C15.6749 31.2774 15.5186 31.1407 15.4698 30.9063C15.4503 30.8282 15.421 30.7501 15.421 30.672C15.4698 30.1935 15.128 30.047 14.7667 29.9396C14.6886 29.92 14.5616 29.9786 14.4835 30.0275C13.9888 30.3725 13.5298 30.3302 13.1067 29.9005C12.6835 29.4709 12.6282 28.9728 12.9406 28.4065C13.0871 28.1819 12.8528 27.6253 12.5891 27.5667C12.4915 27.5471 12.3938 27.5276 12.2962 27.5081C11.7103 27.4007 11.6517 27.3323 11.6517 26.7562C11.6517 26.4632 11.6517 26.18 11.6517 25.8871C11.6517 25.6039 11.8079 25.4477 12.0911 25.3988C12.1594 25.3891 12.2278 25.3695 12.2962 25.3695C12.7453 25.3988 12.8821 25.0864 12.9797 24.7446C12.9992 24.6567 12.9602 24.5298 12.9016 24.4516C12.3254 23.6802 12.4133 23.6704 13.0383 23.0455C13.175 22.9088 13.302 22.772 13.4387 22.6451C13.6437 22.4498 13.8586 22.44 14.0929 22.5865C14.1613 22.6256 14.2199 22.6842 14.2882 22.7232C14.6691 22.9966 14.8448 23.0064 15.2354 22.7428C15.3038 22.6939 15.3428 22.5865 15.3526 22.4986C15.4991 21.5612 15.5284 21.6002 16.4365 21.61C16.6318 21.61 16.8369 21.61 17.0322 21.61C17.2861 21.61 17.4423 21.7467 17.4911 21.9908C17.5107 22.0787 17.54 22.1666 17.54 22.2545C17.54 22.5963 17.6962 22.7818 18.0282 22.8892C18.2235 22.9576 18.3505 22.9478 18.5067 22.8306C19.1903 22.3326 19.2 22.3424 19.7859 22.9283C19.9422 23.0845 20.1082 23.231 20.2449 23.397C20.323 23.4849 20.3816 23.6118 20.4695 23.7486L20.5085 23.7778ZM18.4286 26.4535C18.4286 25.3793 17.5497 24.5102 16.4756 24.5298C15.421 24.5395 14.5714 25.4086 14.5812 26.4828C14.5812 27.5374 15.46 28.4065 16.5146 28.3967C17.5693 28.3967 18.4286 27.5179 18.4286 26.4632V26.4535Z" fill="#D3D3D3"/>
</g>
</g>
<defs>
<clipPath id="clip0_324_20850">
<rect width="32" height="32" fill="white" transform="translate(0.5)"/>
</clipPath>
<clipPath id="clip1_324_20850">
<rect width="32" height="32" fill="white" transform="translate(0.5)"/>
</clipPath>
</defs>
</svg>
