<svg width="33" height="32" viewBox="0 0 33 32" fill="none" xmlns="http://www.w3.org/2000/svg">
<g clip-path="url(#clip0_324_20873)">
<path d="M16.8223 10.938V10.2068H15.9961V10.957C16.2525 10.938 16.4994 10.9285 16.7558 10.938C16.7748 10.938 16.7938 10.938 16.8223 10.938Z" fill="#D3D3D3"/>
<path d="M16.8242 10.9363V15.9757C17.555 16.156 18.1054 16.8203 18.1054 17.608C18.1054 18.5381 17.3462 19.2973 16.4162 19.2973C15.4861 19.2973 14.7269 18.5381 14.7269 17.608C14.7269 16.8203 15.2678 16.156 16.0081 15.9757V10.9553C12.5915 11.2115 9.6875 13.9922 9.6875 17.7314C9.6875 21.4896 12.6485 24.5265 16.4636 24.5454C20.3641 24.5644 23.3821 21.3662 23.3156 17.7504C23.4011 14.0681 20.3452 11.0976 16.8337 10.9458L16.8242 10.9363Z" fill="#D3D3D3"/>
<path d="M16.5 0.449951C7.91123 0.449951 0.945312 7.41587 0.945312 16.0046C0.945312 24.5934 7.91123 31.5498 16.5 31.5498C25.0888 31.5498 32.0547 24.5839 32.0547 16.0046C32.0547 7.42536 25.0793 0.449951 16.5 0.449951ZM26.2751 18.083C26.0663 22.6289 22.906 26.3966 18.4455 27.2982C13.0455 28.3896 7.96817 24.9066 6.89576 19.5825C6.37379 16.9632 6.95271 14.5336 8.39524 12.3129C8.54708 12.0756 8.70842 11.8384 8.87925 11.6106C8.96466 11.4967 8.96466 11.4113 8.86976 11.3069C8.5281 10.9178 8.19594 10.5192 7.85429 10.1206C7.65499 9.88336 7.66448 9.66508 7.90174 9.4563C8.40473 9.01025 8.90772 8.5642 9.4202 8.12765C9.60051 7.96631 9.8093 7.99478 9.98013 8.1751C10.3408 8.5642 10.7109 8.9628 11.0715 9.36139C11.1854 9.48477 11.2803 9.51324 11.4322 9.41833C12.5615 8.77299 13.7573 8.29847 15.0575 8.11816C15.2093 8.09918 15.3612 8.08969 15.5035 8.08019C15.6459 8.0707 15.7123 8.01376 15.7028 7.85243C15.6933 7.62466 15.7028 7.40638 15.7028 7.13116C15.3137 7.13116 14.9626 7.13116 14.6114 7.13116C14.2603 7.13116 14.004 6.90339 13.9945 6.55225C13.9851 6.03028 13.9945 5.50831 13.9945 4.98634C13.9945 4.75857 14.1179 4.60673 14.3457 4.55927C14.4786 4.5308 14.6114 4.51182 14.7443 4.51182C15.9211 4.51182 17.0979 4.51182 18.2747 4.51182C18.7967 4.51182 18.977 4.69214 18.977 5.20462C18.977 5.66965 18.977 6.12518 18.977 6.59021C18.977 6.8939 18.8631 7.05524 18.5594 7.08371C18.1608 7.13116 17.7622 7.13116 17.3162 7.15963C17.3162 7.41587 17.2972 7.67211 17.3257 7.92835C17.3257 7.98529 17.4775 8.08019 17.5629 8.08019C18.7967 8.19408 19.9545 8.58318 21.0554 9.14311C21.1123 9.17159 21.1693 9.20955 21.2357 9.23802C21.5773 9.43415 21.8874 9.3867 22.1657 9.09566C22.441 8.80146 22.7162 8.51675 22.9914 8.23204C23.2192 7.99478 23.4374 7.99478 23.7127 8.26051C24.0923 8.63064 24.4624 9.01025 24.842 9.38037C24.9369 9.47528 25.0603 9.5512 25.1837 9.61763C25.326 9.69355 25.3355 9.9403 25.1837 10.1301C25.0223 10.3294 24.842 10.5192 24.6712 10.7185C24.5004 10.9083 24.3485 11.0981 24.1682 11.2784C24.0258 11.4208 24.0353 11.5252 24.1682 11.6865C24.9749 12.6925 25.5538 13.8219 25.9144 15.0651C26.1991 16.0616 26.3415 17.0865 26.294 18.121L26.2751 18.083Z" fill="#D3D3D3"/>
</g>
<defs>
<clipPath id="clip0_324_20873">
<rect width="32" height="32" fill="white" transform="translate(0.5)"/>
</clipPath>
</defs>
</svg>
