<svg width="148" height="149" viewBox="0 0 148 149" fill="none" xmlns="http://www.w3.org/2000/svg">
<rect width="132" height="16" transform="translate(0 0.345703)" fill="#F5F5F5"/>
<path d="M132 0.345703L148 16.3457H132V0.345703Z" fill="#F5F5F5"/>
<rect width="148" height="132" transform="translate(0 16.3457)" fill="#F5F5F5"/>
<path d="M37.6191 57.3516C38.6309 57.3516 39.5036 57.5384 40.2373 57.9121C40.9756 58.2812 41.543 58.8304 41.9395 59.5596C42.3405 60.2842 42.541 61.182 42.541 62.2529C42.541 63.3786 42.3359 64.3197 41.9258 65.0762C41.5156 65.8281 40.9209 66.3955 40.1416 66.7783C39.3623 67.1566 38.4167 67.3457 37.3047 67.3457H34.6934V62.9092H33.6338V61.8906H34.6934V57.3516H37.6191ZM37.4414 58.3428H35.8486V61.8906H38.3916V62.9092H35.8486V66.3477H37.1816C38.5625 66.3477 39.597 66.0081 40.2852 65.3291C40.9733 64.6501 41.3174 63.6383 41.3174 62.2939C41.3174 61.3962 41.167 60.6556 40.8662 60.0723C40.5654 59.4889 40.1257 59.056 39.5469 58.7734C38.9727 58.4863 38.2708 58.3428 37.4414 58.3428ZM51.0312 67.3457L49.8008 64.1738H45.7949L44.5713 67.3457H43.3955L47.3057 57.3105H48.3516L52.2344 67.3457H51.0312ZM49.4521 63.1416L48.2832 59.9902C48.2559 59.9082 48.2103 59.7738 48.1465 59.5869C48.0872 59.4001 48.0257 59.2064 47.9619 59.0059C47.8981 58.8053 47.8457 58.6436 47.8047 58.5205C47.7591 58.7074 47.709 58.8942 47.6543 59.0811C47.6042 59.2633 47.554 59.4342 47.5039 59.5938C47.4538 59.7487 47.4105 59.8809 47.374 59.9902L46.1846 63.1416H49.4521ZM49.9854 54.5078C49.9535 54.877 49.8486 55.2005 49.6709 55.4785C49.4977 55.752 49.2562 55.9661 48.9463 56.1211C48.6364 56.276 48.2627 56.3535 47.8252 56.3535C47.1553 56.3535 46.6471 56.1872 46.3008 55.8545C45.959 55.5218 45.7699 55.0729 45.7334 54.5078H46.4443C46.4717 54.763 46.5423 54.9567 46.6562 55.0889C46.7702 55.221 46.9274 55.3122 47.1279 55.3623C47.3285 55.4079 47.57 55.4307 47.8525 55.4307C48.1032 55.4307 48.3288 55.4056 48.5293 55.3555C48.7298 55.3008 48.8939 55.2074 49.0215 55.0752C49.1491 54.9385 49.2288 54.7493 49.2607 54.5078H49.9854ZM61.4355 67.3457H60.0957L54.6475 58.9512H54.5928C54.6064 59.1745 54.6224 59.4297 54.6406 59.7168C54.6589 59.9993 54.6725 60.3024 54.6816 60.626C54.6953 60.945 54.7021 61.2708 54.7021 61.6035V67.3457H53.6221V57.3516H54.9551L60.3828 65.7188H60.4307C60.4215 65.5592 60.4102 65.3337 60.3965 65.042C60.3828 64.7458 60.3691 64.429 60.3555 64.0918C60.3464 63.75 60.3418 63.4333 60.3418 63.1416V57.3516H61.4355V67.3457ZM68.4355 62.1094H71.9287V66.9561C71.4046 67.1338 70.8646 67.266 70.3086 67.3525C69.7572 67.4391 69.1396 67.4824 68.4561 67.4824C67.417 67.4824 66.5397 67.2751 65.8242 66.8604C65.1133 66.4456 64.5732 65.8555 64.2041 65.0898C63.835 64.3197 63.6504 63.4059 63.6504 62.3486C63.6504 61.3141 63.8532 60.4118 64.2588 59.6416C64.6689 58.8714 65.2591 58.2744 66.0293 57.8506C66.804 57.4222 67.7337 57.208 68.8184 57.208C69.3743 57.208 69.9007 57.2604 70.3975 57.3652C70.8988 57.4655 71.3636 57.609 71.792 57.7959L71.3477 58.8076C70.9785 58.6481 70.5706 58.5114 70.124 58.3975C69.682 58.2835 69.224 58.2266 68.75 58.2266C67.9342 58.2266 67.2347 58.3952 66.6514 58.7324C66.0726 59.0697 65.6283 59.5459 65.3184 60.1611C65.013 60.7764 64.8604 61.5055 64.8604 62.3486C64.8604 63.1826 64.9948 63.9095 65.2637 64.5293C65.5326 65.1445 65.9518 65.623 66.5215 65.9648C67.0911 66.3066 67.8249 66.4775 68.7227 66.4775C69.1738 66.4775 69.5612 66.4525 69.8848 66.4023C70.2083 66.3477 70.5023 66.2839 70.7666 66.2109V63.1484H68.4355V62.1094ZM85.7988 67.3457H84.459L79.0107 58.9512H78.9561C78.9697 59.1745 78.9857 59.4297 79.0039 59.7168C79.0221 59.9993 79.0358 60.3024 79.0449 60.626C79.0586 60.945 79.0654 61.2708 79.0654 61.6035V67.3457H77.9854V57.3516H79.3184L84.7461 65.7188H84.7939C84.7848 65.5592 84.7734 65.3337 84.7598 65.042C84.7461 64.7458 84.7324 64.429 84.7188 64.0918C84.7096 63.75 84.7051 63.4333 84.7051 63.1416V57.3516H85.7988V67.3457ZM96.1006 67.3457H94.9385V62.6357H89.6885V67.3457H88.5264V57.3516H89.6885V61.6104H94.9385V57.3516H96.1006V67.3457ZM105.117 67.3457L103.887 64.1738H99.8809L98.6572 67.3457H97.4814L101.392 57.3105H102.438L106.32 67.3457H105.117ZM103.538 63.1416L102.369 59.9902C102.342 59.9082 102.296 59.7738 102.232 59.5869C102.173 59.4001 102.112 59.2064 102.048 59.0059C101.984 58.8053 101.932 58.6436 101.891 58.5205C101.845 58.7074 101.795 58.8942 101.74 59.0811C101.69 59.2633 101.64 59.4342 101.59 59.5938C101.54 59.7487 101.496 59.8809 101.46 59.9902L100.271 63.1416H103.538ZM101.945 69.7451C101.754 69.7451 101.592 69.6836 101.46 69.5605C101.328 69.4375 101.262 69.2507 101.262 69C101.262 68.7448 101.328 68.5557 101.46 68.4326C101.592 68.3141 101.754 68.2549 101.945 68.2549C102.141 68.2549 102.305 68.3141 102.438 68.4326C102.57 68.5557 102.636 68.7448 102.636 69C102.636 69.2507 102.57 69.4375 102.438 69.5605C102.305 69.6836 102.141 69.7451 101.945 69.7451ZM102.485 54.1182C102.599 54.3232 102.759 54.5557 102.964 54.8154C103.169 55.0706 103.385 55.3213 103.613 55.5674C103.841 55.8135 104.044 56.0254 104.222 56.2031V56.3535H103.415C103.169 56.194 102.916 55.998 102.656 55.7656C102.396 55.5332 102.144 55.2917 101.897 55.041C101.651 55.2917 101.401 55.5332 101.146 55.7656C100.895 55.9935 100.646 56.1895 100.4 56.3535H99.6211V56.2031C99.7943 56.0208 99.9902 55.8066 100.209 55.5605C100.432 55.3145 100.644 55.0638 100.845 54.8086C101.05 54.5534 101.212 54.3232 101.33 54.1182H102.485ZM110.319 57.3516C111.609 57.3516 112.55 57.6045 113.143 58.1104C113.74 58.6117 114.038 59.3317 114.038 60.2705C114.038 60.6943 113.967 61.0977 113.826 61.4805C113.689 61.8587 113.466 62.1937 113.156 62.4854C112.846 62.7725 112.438 63.0003 111.933 63.1689C111.431 63.333 110.816 63.415 110.087 63.415H108.87V67.3457H107.708V57.3516H110.319ZM110.21 58.3428H108.87V62.417H109.957C110.595 62.417 111.126 62.3486 111.55 62.2119C111.978 62.0752 112.299 61.8542 112.514 61.5488C112.728 61.2389 112.835 60.8288 112.835 60.3184C112.835 59.653 112.623 59.1585 112.199 58.835C111.775 58.5068 111.112 58.3428 110.21 58.3428ZM41.7822 91.3457H40.6133V82.377H37.4688V81.3516H44.9131V82.377H41.7822V91.3457ZM52.6924 91.3457L51.4619 88.1738H47.4561L46.2324 91.3457H45.0566L48.9668 81.3105H50.0127L53.8955 91.3457H52.6924ZM51.1133 87.1416L49.9443 83.9902C49.917 83.9082 49.8714 83.7738 49.8076 83.5869C49.7484 83.4001 49.6868 83.2064 49.623 83.0059C49.5592 82.8053 49.5068 82.6436 49.4658 82.5205C49.4202 82.7074 49.3701 82.8942 49.3154 83.0811C49.2653 83.2633 49.2152 83.4342 49.165 83.5938C49.1149 83.7487 49.0716 83.8809 49.0352 83.9902L47.8457 87.1416H51.1133ZM49.001 78.1113C49.1104 78.321 49.2448 78.5557 49.4043 78.8154C49.5684 79.0706 49.7393 79.3213 49.917 79.5674C50.0993 79.8089 50.2656 80.0163 50.416 80.1895V80.3535H49.6436C49.4795 80.2214 49.2995 80.0641 49.1035 79.8818C48.9121 79.6995 48.7207 79.5081 48.5293 79.3076C48.3379 79.1025 48.1647 78.9089 48.0098 78.7266C47.8548 78.5397 47.734 78.3802 47.6475 78.248V78.1113H49.001ZM55.2832 91.3457V81.3516H56.4453V91.3457H55.2832ZM70.0352 91.3457H68.6611L65.0586 86.4854L63.9922 87.4424V91.3457H62.8301V81.3516H63.9922V86.335C64.252 86.0387 64.5186 85.7448 64.792 85.4531C65.0654 85.1569 65.3366 84.8584 65.6055 84.5576L68.5244 81.3516H69.8848L65.9062 85.6855L70.0352 91.3457ZM78.9766 91.3457H77.8145V86.6357H72.5645V91.3457H71.4023V81.3516H72.5645V85.6104H77.8145V81.3516H78.9766V91.3457ZM90.3926 86.335C90.3926 87.1051 90.2946 87.807 90.0986 88.4404C89.9027 89.0693 89.611 89.6117 89.2236 90.0674C88.8408 90.5186 88.3646 90.8672 87.7949 91.1133C87.2253 91.3594 86.5645 91.4824 85.8125 91.4824C85.0378 91.4824 84.361 91.3594 83.7822 91.1133C83.208 90.8672 82.7295 90.5163 82.3467 90.0605C81.9684 89.6048 81.6836 89.0602 81.4922 88.4268C81.3053 87.7933 81.2119 87.0915 81.2119 86.3213C81.2119 85.3005 81.3805 84.4049 81.7178 83.6348C82.055 82.8646 82.5654 82.2653 83.249 81.8369C83.9372 81.4085 84.7985 81.1943 85.833 81.1943C86.8219 81.1943 87.6536 81.4062 88.3281 81.8301C89.0072 82.2539 89.5199 82.8509 89.8662 83.6211C90.2171 84.3867 90.3926 85.2913 90.3926 86.335ZM82.4355 86.335C82.4355 87.1826 82.5563 87.9163 82.7979 88.5361C83.0394 89.1559 83.4085 89.6344 83.9053 89.9717C84.4066 90.3089 85.0423 90.4775 85.8125 90.4775C86.5872 90.4775 87.2207 90.3089 87.7129 89.9717C88.2096 89.6344 88.5765 89.1559 88.8135 88.5361C89.0505 87.9163 89.1689 87.1826 89.1689 86.335C89.1689 85.0452 88.8978 84.0381 88.3555 83.3135C87.8177 82.5843 86.9769 82.2197 85.833 82.2197C85.0583 82.2197 84.4202 82.3861 83.9189 82.7188C83.4176 83.0514 83.0439 83.5254 82.7979 84.1406C82.5563 84.7513 82.4355 85.4827 82.4355 86.335ZM98.8896 91.3457L97.6592 88.1738H93.6533L92.4297 91.3457H91.2539L95.1641 81.3105H96.21L100.093 91.3457H98.8896ZM97.3105 87.1416L96.1416 83.9902C96.1143 83.9082 96.0687 83.7738 96.0049 83.5869C95.9456 83.4001 95.8841 83.2064 95.8203 83.0059C95.7565 82.8053 95.7041 82.6436 95.6631 82.5205C95.6175 82.7074 95.5674 82.8942 95.5127 83.0811C95.4626 83.2633 95.4124 83.4342 95.3623 83.5938C95.3122 83.7487 95.2689 83.8809 95.2324 83.9902L94.043 87.1416H97.3105ZM97.2422 78.7949C97.2422 79.1458 97.1351 79.4193 96.9209 79.6152C96.7067 79.8066 96.4333 79.9411 96.1006 80.0186L96.0391 80.7773H95.3281L95.2393 79.5947C95.5902 79.5355 95.8636 79.4512 96.0596 79.3418C96.2601 79.2279 96.3604 79.0592 96.3604 78.8359C96.3604 78.6126 96.2715 78.46 96.0938 78.3779C95.9206 78.2959 95.6995 78.2549 95.4307 78.2549C95.3031 78.2549 95.1755 78.2617 95.0479 78.2754C94.9248 78.2845 94.8223 78.2982 94.7402 78.3164V77.6328C94.8314 77.6055 94.9408 77.585 95.0684 77.5713C95.196 77.5531 95.3486 77.5439 95.5264 77.5439C96.0778 77.5439 96.5016 77.6488 96.7979 77.8584C97.0941 78.0635 97.2422 78.3757 97.2422 78.7949ZM109.294 91.3457H107.954L102.506 82.9512H102.451C102.465 83.1745 102.481 83.4297 102.499 83.7168C102.517 83.9993 102.531 84.3024 102.54 84.626C102.554 84.945 102.561 85.2708 102.561 85.6035V91.3457H101.48V81.3516H102.813L108.241 89.7188H108.289C108.28 89.5592 108.269 89.3337 108.255 89.042C108.241 88.7458 108.228 88.429 108.214 88.0918C108.205 87.75 108.2 87.4333 108.2 87.1416V81.3516H109.294V91.3457Z" fill="black"/>
<path fill-rule="evenodd" clip-rule="evenodd" d="M132.771 0.345703H131.23V98.6263L125.997 96.591L132.002 107.346L138.008 96.591L132.771 98.6275V0.345703Z" fill="white"/>
</svg>
