<svg width="24" height="24" viewBox="0 0 24 24" fill="none" xmlns="http://www.w3.org/2000/svg">
<path d="M11 13.0002H6C5.71667 13.0002 5.47934 12.9042 5.288 12.7122C5.09667 12.5202 5.00067 12.2829 5 12.0002C4.99934 11.7175 5.09534 11.4802 5.288 11.2882C5.48067 11.0962 5.718 11.0002 6 11.0002H11V6.00019C11 5.71685 11.096 5.47952 11.288 5.28819C11.48 5.09685 11.7173 5.00085 12 5.00019C12.2827 4.99952 12.5203 5.09552 12.713 5.28819C12.9057 5.48085 13.0013 5.71819 13 6.00019V11.0002H18C18.2833 11.0002 18.521 11.0962 18.713 11.2882C18.905 11.4802 19.0007 11.7175 19 12.0002C18.9993 12.2829 18.9033 12.5205 18.712 12.7132C18.5207 12.9059 18.2833 13.0015 18 13.0002H13V18.0002C13 18.2835 12.904 18.5212 12.712 18.7132C12.52 18.9052 12.2827 19.0009 12 19.0002C11.7173 18.9995 11.48 18.9035 11.288 18.7122C11.096 18.5209 11 18.2835 11 18.0002V13.0002Z" fill="black"/>
</svg>
