<svg width="24" height="24" viewBox="0 0 24 24" fill="none" xmlns="http://www.w3.org/2000/svg">
<path d="M20.0306 9.5308L12.5306 17.0308C12.4609 17.1005 12.3782 17.1559 12.2871 17.1936C12.1961 17.2313 12.0985 17.2508 11.9999 17.2508C11.9014 17.2508 11.8038 17.2313 11.7127 17.1936C11.6217 17.1559 11.539 17.1005 11.4693 17.0308L3.9693 9.5308C3.82857 9.39007 3.74951 9.1992 3.74951 9.00017C3.74951 8.80115 3.82857 8.61028 3.9693 8.46955C4.11003 8.32882 4.30091 8.24976 4.49993 8.24976C4.69895 8.24976 4.88982 8.32882 5.03055 8.46955L11.9999 15.4399L18.9693 8.46955C19.039 8.39986 19.1217 8.34459 19.2128 8.30688C19.3038 8.26917 19.4014 8.24976 19.4999 8.24976C19.5985 8.24976 19.6961 8.26917 19.7871 8.30688C19.8781 8.34459 19.9609 8.39986 20.0306 8.46955C20.1002 8.53923 20.1555 8.62196 20.1932 8.713C20.2309 8.80405 20.2503 8.90163 20.2503 9.00017C20.2503 9.09872 20.2309 9.1963 20.1932 9.28735C20.1555 9.37839 20.1002 9.46112 20.0306 9.5308Z" fill="black"/>
</svg>
