<svg width="24" height="25" viewBox="0 0 24 25" fill="none" xmlns="http://www.w3.org/2000/svg">
<circle cx="12" cy="12.4299" r="11" fill="white"/>
<path d="M16.3398 9.75168C16.4358 9.66211 16.5133 9.55451 16.5678 9.435C16.6223 9.3155 16.6527 9.18643 16.6573 9.05518C16.6619 8.92392 16.6406 8.79305 16.5946 8.67002C16.5486 8.547 16.4788 8.43424 16.3893 8.33818C16.2997 8.24211 16.1921 8.16463 16.0726 8.11016C15.9531 8.05568 15.824 8.02528 15.6928 8.02068C15.5615 8.01608 15.4306 8.03739 15.3076 8.08337C15.1846 8.12935 15.0718 8.19911 14.9758 8.28868L12.0498 11.0167L9.32176 8.08968C9.13923 7.90272 8.89078 7.79463 8.62956 7.78854C8.36834 7.78245 8.11512 7.87884 7.92407 8.05708C7.73302 8.23532 7.61932 8.48126 7.6073 8.74227C7.59529 9.00328 7.6859 9.25863 7.85977 9.45368L10.5878 12.3797L7.66077 15.1077C7.56131 15.1963 7.48057 15.304 7.4233 15.4243C7.36602 15.5445 7.33336 15.6751 7.32723 15.8082C7.3211 15.9413 7.34163 16.0742 7.38761 16.1993C7.43359 16.3243 7.5041 16.4389 7.59498 16.5363C7.68587 16.6338 7.79531 16.712 7.91687 16.7666C8.03843 16.8211 8.16966 16.8508 8.30286 16.8539C8.43605 16.857 8.56853 16.8334 8.6925 16.7846C8.81647 16.7358 8.92944 16.6628 9.02476 16.5697L11.9508 13.8427L14.6788 16.7687C14.7668 16.87 14.8744 16.9525 14.9951 17.0113C15.1157 17.0702 15.247 17.1041 15.381 17.1111C15.5151 17.1181 15.6492 17.0981 15.7753 17.0522C15.9015 17.0063 16.0171 16.9355 16.1153 16.8439C16.2134 16.7524 16.2922 16.642 16.3468 16.5194C16.4014 16.3968 16.4308 16.2644 16.4332 16.1302C16.4356 15.996 16.4109 15.8627 16.3607 15.7382C16.3104 15.6137 16.2356 15.5006 16.1408 15.4057L13.4138 12.4797L16.3398 9.75168Z" fill="#CC0000"/>
<path fill-rule="evenodd" clip-rule="evenodd" d="M1 12.4299C1 6.35487 5.925 1.42987 12 1.42987C18.075 1.42987 23 6.35487 23 12.4299C23 18.5049 18.075 23.4299 12 23.4299C5.925 23.4299 1 18.5049 1 12.4299ZM12 21.4299C10.8181 21.4299 9.64778 21.1971 8.55585 20.7448C7.46392 20.2925 6.47177 19.6296 5.63604 18.7938C4.80031 17.9581 4.13738 16.966 3.68508 15.874C3.23279 14.7821 3 13.6118 3 12.4299C3 11.248 3.23279 10.0777 3.68508 8.98572C4.13738 7.89379 4.80031 6.90164 5.63604 6.06591C6.47177 5.23018 7.46392 4.56725 8.55585 4.11495C9.64778 3.66266 10.8181 3.42987 12 3.42987C14.3869 3.42987 16.6761 4.37808 18.364 6.06591C20.0518 7.75374 21 10.0429 21 12.4299C21 14.8168 20.0518 17.106 18.364 18.7938C16.6761 20.4817 14.3869 21.4299 12 21.4299Z" fill="#CC0000"/>
</svg>
