<svg width="24" height="24" viewBox="0 0 24 24" fill="none" xmlns="http://www.w3.org/2000/svg">
<rect x="0.5" y="0.5" width="23" height="23" rx="11.5" stroke="#282828"/>
<path d="M19 8.87451V15.5C19 16.0357 18.7954 16.5511 18.4279 16.9408C18.0604 17.3305 17.5579 17.5651 17.0232 17.5965L16.9 17.6H7.1C6.56435 17.6 6.04894 17.3954 5.65922 17.0279C5.2695 16.6604 5.03492 16.1579 5.0035 15.6232L5 15.5V8.87451L11.6115 13.2824L11.6927 13.3286C11.7884 13.3754 11.8935 13.3997 12 13.3997C12.1065 13.3997 12.2116 13.3754 12.3073 13.3286L12.3885 13.2824L19 8.87451Z" fill="#282828"/>
<path d="M16.9001 6.3999C17.6561 6.3999 18.319 6.7989 18.6886 7.3988L12.0001 11.8578L5.31165 7.3988C5.48716 7.11374 5.72829 6.87478 6.01494 6.70187C6.30159 6.52896 6.62543 6.4271 6.95945 6.4048L7.10015 6.3999H16.9001Z" fill="#282828"/>
</svg>
