<svg width="24" height="24" viewBox="0 0 24 24" fill="none" xmlns="http://www.w3.org/2000/svg">
<rect x="0.5" y="0.5" width="23" height="23" rx="11.5" stroke="#282828"/>
<path d="M18.9924 14.8202C18.8765 15.7009 18.444 16.5094 17.7755 17.0946C17.1071 17.6797 16.2485 18.0016 15.3602 18C10.1991 18 6.00001 13.801 6.00001 8.6399C5.99841 7.75153 6.32026 6.89296 6.90543 6.22454C7.4906 5.55612 8.29908 5.12357 9.17986 5.00767C9.40259 4.98047 9.62814 5.02604 9.82284 5.13756C10.0175 5.24909 10.171 5.42059 10.2602 5.62647L11.633 8.69125V8.69905C11.7013 8.85665 11.7295 9.02871 11.7151 9.19987C11.7007 9.37103 11.6441 9.53595 11.5505 9.67991C11.5388 9.69746 11.5264 9.71371 11.5134 9.72996L10.1601 11.3342C10.6469 12.3235 11.6818 13.3492 12.6841 13.8374L14.2662 12.4912C14.2817 12.4781 14.298 12.466 14.3149 12.4548C14.4588 12.3589 14.6243 12.3003 14.7965 12.2844C14.9686 12.2685 15.142 12.2958 15.301 12.3638L15.3095 12.3677L18.3717 13.7399C18.5779 13.8288 18.7498 13.982 18.8617 14.1768C18.9736 14.3715 19.0195 14.5972 18.9924 14.8202Z" fill="#282828"/>
</svg>
