<svg width="65" height="65" viewBox="0 0 65 65" fill="none" xmlns="http://www.w3.org/2000/svg">
<rect x="0.166992" y="0.5" width="64" height="64" rx="32" fill="#FFF5F5"/>
<path d="M44.8743 43.7923L38.6155 37.5348C40.4296 35.3569 41.3342 32.5635 41.1411 29.7357C40.948 26.9079 39.6722 24.2634 37.579 22.3523C35.4858 20.4412 32.7363 19.4106 29.9027 19.475C27.069 19.5394 24.3692 20.6938 22.365 22.698C20.3608 24.7022 19.2064 27.402 19.142 30.2357C19.0776 33.0694 20.1081 35.8188 22.0193 37.912C23.9304 40.0052 26.5749 41.281 29.4027 41.4741C32.2305 41.6672 35.0239 40.7626 37.2018 38.9485L43.4593 45.2073C43.5522 45.3002 43.6625 45.3739 43.7839 45.4242C43.9053 45.4745 44.0354 45.5004 44.1668 45.5004C44.2982 45.5004 44.4283 45.4745 44.5497 45.4242C44.6711 45.3739 44.7814 45.3002 44.8743 45.2073C44.9672 45.1144 45.0409 45.0041 45.0912 44.8827C45.1415 44.7613 45.1673 44.6312 45.1673 44.4998C45.1673 44.3684 45.1415 44.2383 45.0912 44.1169C45.0409 43.9955 44.9672 43.8852 44.8743 43.7923ZM21.1668 30.4998C21.1668 28.7198 21.6946 26.9797 22.6836 25.4997C23.6725 24.0196 25.0781 22.8661 26.7226 22.1849C28.3672 21.5037 30.1768 21.3255 31.9226 21.6727C33.6684 22.02 35.2721 22.8772 36.5308 24.1358C37.7894 25.3945 38.6466 26.9982 38.9939 28.744C39.3411 30.4898 39.1629 32.2994 38.4817 33.9439C37.8005 35.5885 36.647 36.9941 35.1669 37.983C33.6869 38.972 31.9468 39.4998 30.1668 39.4998C27.7807 39.4972 25.493 38.5481 23.8058 36.8608C22.1185 35.1736 21.1694 32.8859 21.1668 30.4998Z" fill="#CC0000"/>
</svg>
