<svg width="65" height="64" viewBox="0 0 65 64" fill="none" xmlns="http://www.w3.org/2000/svg">
<g clip-path="url(#clip0_224_8360)">
<path d="M46.4824 28.4194C46.4824 25.8904 47.9307 23.6957 50.0419 22.6262C49.5684 20.9328 48.8944 19.3174 48.0477 17.819C45.7973 18.5543 43.2238 18.0251 41.4357 16.237C39.6476 14.449 39.1184 11.8755 39.8537 9.62504C38.3553 8.77835 36.7399 8.10434 35.0465 7.63086C33.9714 9.74202 31.7823 11.1903 29.2534 11.1903C26.7244 11.1903 24.5297 9.74202 23.4602 7.63086C21.7668 8.10434 20.1514 8.77278 18.653 9.62504C19.3883 11.8755 18.8591 14.449 17.071 16.237C15.2829 18.0251 12.7094 18.5543 10.459 17.819C9.61233 19.3174 8.93832 20.9328 8.46484 22.6262C10.576 23.7013 12.0243 25.8904 12.0243 28.4194C12.0243 30.9483 10.576 33.143 8.46484 34.2125C8.93832 35.9115 9.60676 37.5213 10.459 39.0197C12.7094 38.2845 15.2829 38.8136 17.071 40.6017C18.8591 42.3898 19.3883 44.9633 18.653 47.2137C20.1514 48.0604 21.7668 48.7344 23.4602 49.2079C24.1064 47.9323 25.1647 46.8962 26.457 46.2779M21.9785 35.0982C20.3631 33.338 19.3771 30.9929 19.3771 28.4194C19.3771 22.966 23.8 18.5432 29.2534 18.5432C32.6346 18.5432 35.6203 20.2421 37.4028 22.8379" stroke="#010013" stroke-width="1.3703" stroke-linecap="round" stroke-linejoin="round"/>
<path fill-rule="evenodd" clip-rule="evenodd" d="M43.2433 45.2413C38.7202 49.1461 31.8631 49.1294 27.3511 45.0018C22.4882 40.5511 22.1595 32.9699 26.6102 28.107C31.0609 23.2441 38.6422 22.9154 43.5051 27.3661C48.0171 31.4937 48.6354 38.323 45.1372 43.1692L46.9086 44.7901C47.9558 44.4281 49.1534 44.6342 50.0335 45.4196L56.9352 51.7252C58.1941 52.8838 58.2888 54.839 57.1301 56.0979C55.9715 57.3568 54.0163 57.4515 52.7574 56.2929L45.8446 49.9984C44.9757 49.1851 44.6359 47.9652 44.9701 46.8233L43.2433 45.2413ZM54.4341 52.3881C55.2028 52.338 55.8657 52.9228 55.9214 53.6915C55.9715 54.4603 55.3866 55.1287 54.6179 55.1788C53.8492 55.229 53.1864 54.6441 53.1306 53.8754C53.0805 53.1067 53.6654 52.4438 54.4341 52.3881ZM41.756 29.2767C37.9515 25.8008 32.0135 26.0515 28.5209 29.8561C25.045 33.6606 25.2956 39.5986 29.1002 43.0912C32.9047 46.5838 38.8427 46.3164 42.3353 42.5119C45.8279 38.7073 45.5606 32.7693 41.756 29.2823V29.2767Z" fill="#EC1A3B"/>
<path fill-rule="evenodd" clip-rule="evenodd" d="M31.904 29.9328C32.6114 29.7935 33.369 29.9996 33.9204 30.5455C34.5332 31.1583 34.717 32.0439 34.4663 32.8182C34.4385 32.9018 34.4607 32.9853 34.522 33.0466L36.3045 34.8291L35.4021 35.7315L35.0846 35.4196L34.7225 35.7816L33.2575 34.3166C33.1963 34.2554 33.1127 34.2331 33.0292 34.2609C32.2549 34.5116 31.3692 34.3278 30.7565 33.715C30.2106 33.1692 30.0045 32.406 30.1437 31.6986C30.1604 31.615 30.2161 31.5482 30.2997 31.5259C30.3832 31.4981 30.4668 31.5259 30.5281 31.5816L31.9095 32.9631C31.9986 33.0522 32.1435 33.0522 32.2326 32.9631L33.1796 32.0161C33.2687 31.927 33.2687 31.7821 33.1796 31.693L31.7981 30.3116C31.7368 30.2503 31.7146 30.1667 31.7424 30.0832C31.7703 29.9996 31.8315 29.9439 31.9151 29.9272L31.904 29.9328ZM36.1597 37.8705L35.8255 37.5363L36.2265 37.1352L35.9146 36.8233L39.4629 33.275L39.5855 33.3975L40.538 33.1079L41.8582 31.2084L41.0059 30.3561L39.151 31.6429L38.8613 32.6734L38.9449 32.7569L35.3966 36.3053L35.0846 35.9933L34.6836 36.3944L34.3493 36.0602C34.1878 35.8986 33.926 35.8986 33.7644 36.0602L33.3244 36.5002C33.2854 36.5392 33.2798 36.6005 33.3077 36.6506C33.4302 36.8344 33.4079 37.0907 33.2464 37.2522C33.0849 37.4138 32.8286 37.436 32.6448 37.3135C32.5947 37.2801 32.5334 37.2856 32.4944 37.3302L31.0294 38.7952C30.4 39.4246 30.4 40.4552 31.0294 41.0846L31.1352 41.1904C31.7647 41.8199 32.7952 41.8199 33.4247 41.1904L34.8952 39.7199C34.9342 39.6809 34.9398 39.6252 34.9175 39.575C34.8172 39.3912 34.8451 39.1573 34.9955 39.0069C35.1459 38.8565 35.3854 38.8231 35.5637 38.9289C35.6082 38.9567 35.6695 38.9456 35.7085 38.9066L36.1541 38.461C36.3157 38.2994 36.3157 38.0376 36.1541 37.8761L36.1597 37.8705ZM34.2546 37.1631L34.2156 37.1241C34.1209 37.0294 33.9705 37.0294 33.8814 37.1241L31.2411 39.7644C31.1464 39.8591 31.1464 40.0095 31.2411 40.0987L31.2801 40.1377C31.3748 40.2323 31.5252 40.2323 31.6143 40.1377L34.2546 37.4973C34.3493 37.4026 34.3493 37.2522 34.2546 37.1631ZM35.0958 37.9986L35.0568 37.9596C34.9621 37.865 34.8117 37.865 34.7225 37.9596L32.0822 40.6C31.9875 40.6947 31.9875 40.8451 32.0822 40.9342L32.1212 40.9732C32.2159 41.0679 32.3663 41.0679 32.4554 40.9732L35.0958 38.3329C35.1905 38.2382 35.1905 38.0878 35.0958 37.9986ZM37.3852 35.9153L39.1621 37.6923C39.2234 37.7535 39.3069 37.7758 39.3905 37.748C40.1648 37.4973 41.0505 37.6811 41.6632 38.2939C42.2091 38.8398 42.4152 39.6029 42.2759 40.3103C42.2592 40.3939 42.2035 40.4607 42.12 40.483C42.0364 40.5109 41.9528 40.483 41.8916 40.4273L40.5101 39.0459C40.421 38.9567 40.2762 38.9567 40.187 39.0459L39.2401 39.9928C39.151 40.082 39.151 40.2268 39.2401 40.3159L40.6215 41.6973C40.6828 41.7586 40.7051 41.8422 40.6772 41.9257C40.6494 42.0093 40.5881 42.065 40.5046 42.0817C39.7971 42.221 39.0396 42.0149 38.4881 41.469C37.8754 40.8562 37.6915 39.9705 37.9422 39.1963C37.9701 39.1127 37.9478 39.0292 37.8865 38.9679L36.4215 37.5029L36.7836 37.1408L36.4716 36.8289L37.374 35.9265L37.3852 35.9153Z" fill="black"/>
</g>
<defs>
<clipPath id="clip0_224_8360">
<rect width="50.1609" height="50.1609" fill="white" transform="translate(7.78125 6.94531)"/>
</clipPath>
</defs>
</svg>
