<svg width="65" height="65" viewBox="0 0 65 65" fill="none" xmlns="http://www.w3.org/2000/svg">
<rect x="0.5" y="0.5" width="64" height="64" rx="32" fill="#FFF5F5"/>
<path d="M20.5 30.3892C20.5 26.1252 20.5 23.9932 21.004 23.2758C21.5067 22.5598 23.5107 21.8732 27.52 20.5012L28.284 20.2398C30.3733 19.5238 31.4173 19.1665 32.5 19.1665C33.5827 19.1665 34.6267 19.5238 36.716 20.2398L37.48 20.5012C41.4893 21.8732 43.4933 22.5598 43.996 23.2758C44.5 23.9932 44.5 26.1265 44.5 30.3892V32.4878C44.5 40.0052 38.848 43.6545 35.3013 45.2025C34.34 45.6225 33.86 45.8332 32.5 45.8332C31.14 45.8332 30.66 45.6225 29.6987 45.2025C26.152 43.6532 20.5 40.0065 20.5 32.4878V30.3892Z" stroke="#CC0000" stroke-width="2"/>
<path d="M29.1665 33.033L31.0718 35.1663L35.8332 29.833" stroke="#CC0000" stroke-width="2" stroke-linecap="round" stroke-linejoin="round"/>
</svg>
