<svg width="65" height="64" viewBox="0 0 65 64" fill="none" xmlns="http://www.w3.org/2000/svg">
<g clip-path="url(#clip0_224_8347)">
<path d="M44.8389 10.1054C43.0891 9.1216 41.2149 8.33702 39.241 7.78906C37.9894 10.2487 35.4364 11.9361 32.4911 11.9361C29.5458 11.9361 26.9928 10.2487 25.7412 7.78906C23.7673 8.33702 21.8931 9.1216 20.1433 10.1054C20.9964 12.7269 20.3862 15.722 18.3002 17.808C16.2142 19.894 13.2191 20.5042 10.5976 19.6511C9.61379 21.4009 8.82921 23.2751 8.28125 25.249C10.7408 26.5006 12.4221 29.0474 12.4221 31.9989C12.4221 34.9504 10.7408 37.4972 8.28125 38.7488C8.82921 40.7227 9.61379 42.5969 10.5976 44.3467C13.2191 43.4874 16.2142 44.1038 18.3002 46.1898C20.3799 48.2758 20.9964 51.2709 20.1433 53.8924C21.8931 54.8762 23.7673 55.6608 25.7412 56.2088C26.9866 53.7492 29.5396 52.0679 32.4911 52.0679C35.4426 52.0679 37.9894 53.7492 39.241 56.2088C41.2149 55.6608 43.0891 54.8762 44.8389 53.8924C43.9796 51.2709 44.596 48.2758 46.682 46.1898C48.7618 44.1038 51.7631 43.4936 54.3783 44.3467C55.3684 42.5969 56.153 40.7227 56.7009 38.7488C54.2414 37.5034 52.5539 34.9504 52.5539 31.9989C52.5539 29.0474 54.2414 26.5006 56.7009 25.249C56.153 23.2751 55.3684 21.4009 54.3783 19.6511C51.7569 20.5104 48.7618 19.894 46.682 17.808C44.596 15.722 43.9858 12.7269 44.8389 10.1054ZM18.3064 31.9927C18.3064 24.1594 24.6578 17.808 32.4911 17.808C40.3244 17.808 46.6758 24.1594 46.6758 31.9927C46.6758 39.826 40.3244 46.1774 32.4911 46.1774C24.6578 46.1774 18.3064 39.826 18.3064 31.9927Z" stroke="#010013" stroke-width="1.39481" stroke-linecap="round" stroke-linejoin="round"/>
<path fill-rule="evenodd" clip-rule="evenodd" d="M26.0201 23.3198C27.0787 23.1143 28.2244 23.4194 29.0463 24.2414C29.9679 25.1629 30.2481 26.4955 29.8683 27.6599C29.8309 27.7844 29.862 27.9152 29.9492 28.0086L32.6267 30.6861L31.2693 32.0435L30.7961 31.5703L30.2543 32.112L28.05 29.9078C27.9566 29.8143 27.8259 29.7832 27.7013 29.8268C26.5369 30.2004 25.2106 29.9264 24.2828 29.0049C23.4609 28.1829 23.1495 27.0372 23.3612 25.9786C23.3862 25.8541 23.4733 25.7545 23.5979 25.7171C23.7224 25.6797 23.8469 25.7109 23.9403 25.8043L26.0201 27.884C26.1509 28.0148 26.3688 28.0148 26.5058 27.884L27.9255 26.4643C28.0563 26.3336 28.0563 26.1156 27.9255 25.9786L25.8457 23.8989C25.7523 23.8055 25.7212 23.6809 25.7586 23.5564C25.7959 23.4319 25.8956 23.3447 26.0201 23.3198ZM32.4213 35.2504L31.9231 34.7522L32.5271 34.1482L32.0539 33.675L37.3903 28.3386L37.5771 28.5254L39.0092 28.0895L40.9894 25.2376L39.7066 23.9549L36.917 25.8852L36.4749 27.4357L36.6057 27.5665L31.2693 32.9028L30.7961 32.4296L30.1921 33.0336L29.6939 32.5355C29.4511 32.2926 29.0588 32.2926 28.8159 32.5355L28.1559 33.1955C28.0936 33.2578 28.0874 33.3512 28.131 33.4197C28.3178 33.6999 28.2867 34.0797 28.0376 34.3226C27.7947 34.5654 27.4149 34.5965 27.1347 34.416C27.06 34.3661 26.9728 34.3786 26.9105 34.4409L24.7062 36.6452C23.7598 37.5916 23.7598 39.1421 24.7062 40.0824L24.8681 40.2443C25.8146 41.1907 27.3651 41.1907 28.3053 40.2443L30.5221 38.0275C30.5781 37.9715 30.5906 37.8843 30.5532 37.8158C30.4038 37.5418 30.4411 37.1931 30.6715 36.9565C30.9019 36.7199 31.2568 36.6825 31.5308 36.8382C31.5993 36.8756 31.6865 36.8631 31.7425 36.8071L32.415 36.1346C32.6579 35.8917 32.6579 35.4994 32.415 35.2566L32.4213 35.2504ZM29.5569 34.1856L29.4947 34.1233C29.3577 33.9863 29.1273 33.9863 28.9903 34.1233L25.0238 38.0898C24.8868 38.2268 24.8868 38.4572 25.0238 38.5942L25.0861 38.6564C25.2231 38.7934 25.4535 38.7934 25.5904 38.6564L29.5569 34.6899C29.6939 34.553 29.6939 34.3226 29.5569 34.1856ZM30.821 35.4434L30.7587 35.3811C30.6217 35.2441 30.3913 35.2441 30.2543 35.3811L26.2879 39.3476C26.1509 39.4846 26.1509 39.715 26.2879 39.852L26.3501 39.9142C26.4871 40.0512 26.7175 40.0512 26.8545 39.9142L30.821 35.9478C30.958 35.8108 30.958 35.5804 30.821 35.4434ZM34.2582 32.3113L36.9295 34.9826C37.0229 35.076 37.1536 35.1071 37.2782 35.0636C38.4426 34.6899 39.7689 34.9639 40.6967 35.8855C41.5186 36.7074 41.83 37.8532 41.6183 38.9117C41.5934 39.0363 41.5062 39.1359 41.3816 39.1732C41.2571 39.2106 41.1326 39.1795 41.0392 39.0861L38.9594 37.0063C38.8287 36.8756 38.6107 36.8756 38.4737 37.0063L37.054 38.426C36.9232 38.5568 36.9232 38.7747 37.054 38.9117L39.1338 40.9915C39.2272 41.0849 39.2583 41.2094 39.2209 41.334C39.1836 41.4585 39.084 41.5457 38.9594 41.5706C37.8946 41.7761 36.7551 41.4709 35.9332 40.649C35.0116 39.7274 34.7314 38.3949 35.1112 37.2305C35.1486 37.1059 35.1237 36.9752 35.0303 36.8818L32.8322 34.6837L33.374 34.142L32.9007 33.6687L34.2582 32.3113Z" fill="#EC1A3B"/>
</g>
<defs>
<clipPath id="clip0_224_8347">
<rect width="64" height="64" fill="white" transform="translate(0.5)"/>
</clipPath>
</defs>
</svg>
