<svg width="65" height="64" viewBox="0 0 65 64" fill="none" xmlns="http://www.w3.org/2000/svg">
<g clip-path="url(#clip0_224_8339)">
<path d="M16.8277 9.81641V50.8451M32.5658 40.7755H21.4256M34.8396 44.3669H23.123M44.4516 48.3014V49.2438C44.4516 50.1268 43.7334 50.8451 42.8504 50.8451H14.586C12.82 50.8451 11.3789 49.404 11.3789 47.638V13.0235C11.3789 11.2575 12.82 9.81641 14.586 9.81641H42.8458C43.7288 9.81641 44.4471 10.5347 44.4471 11.4177V31.1817" stroke="#010013" stroke-width="1.08885" stroke-linecap="round" stroke-linejoin="round"/>
<path fill-rule="evenodd" clip-rule="evenodd" d="M48.2738 46.9835C44.5589 50.1905 38.927 50.1768 35.2213 46.7867C31.2273 43.1313 30.9574 36.9047 34.6128 32.9107C38.2682 28.9168 44.4948 28.6468 48.4888 32.3023C52.1946 35.6923 52.7024 41.3013 49.8293 45.2816L51.2841 46.6129C52.1442 46.3155 53.1279 46.4848 53.8507 47.1299L59.5192 52.3088C60.5531 53.2604 60.6309 54.8662 59.6793 55.9002C58.7277 56.9341 57.1219 57.0119 56.0879 56.0603L50.4103 50.8905C49.6966 50.2226 49.4175 49.2206 49.692 48.2828L48.2738 46.9835ZM57.465 52.8532C58.0963 52.812 58.6408 53.2924 58.6865 53.9237C58.7277 54.5551 58.2473 55.1041 57.6159 55.1453C56.9846 55.1865 56.4402 54.7061 56.3944 54.0747C56.3532 53.4434 56.8336 52.899 57.465 52.8532ZM47.0523 33.8715C43.9275 31.0167 39.0506 31.2226 36.182 34.3473C33.3272 37.472 33.5331 42.349 36.6578 45.2175C39.7826 48.086 44.6595 47.8664 47.5281 44.7417C50.3966 41.617 50.177 36.74 47.0523 33.8761V33.8715Z" fill="#EC1A3B"/>
<path d="M46.0842 37.4662C46.7888 38.2531 47.2142 39.2962 47.2142 40.4353C47.2142 41.2405 46.9992 42 46.6241 42.6496M42.0674 44.8411C39.9308 44.5117 38.293 42.6634 38.293 40.4353C38.293 39.2962 38.723 38.2531 39.4276 37.4662M40.1504 36.8119C40.7726 36.3636 41.5138 36.0708 42.319 35.993M43.1928 35.993C43.998 36.0708 44.7437 36.3636 45.3659 36.8119M43.3667 36.7067C45.1372 36.9995 46.4822 38.5321 46.4822 40.385C46.4822 41.5974 45.9058 42.6725 45.0091 43.3542C44.3823 43.83 43.6046 44.1136 42.7582 44.1136C41.9118 44.1136 41.1295 43.83 40.5027 43.3542C39.606 42.6725 39.0295 41.5974 39.0295 40.385C39.0295 39.7262 39.2034 39.104 39.5053 38.5642M44.6431 38.4452L43.0098 40.1654M41.3674 34.4375H44.149C44.332 34.4375 44.483 34.5885 44.483 34.7715C44.483 34.9545 44.332 35.1055 44.149 35.1055H43.1928V35.9976C43.1059 35.9884 43.019 35.9839 42.9275 35.9793H42.9183H42.9137H42.9092H42.8817H42.8771H42.8726H42.8634H42.8588H42.8451H42.8085C42.8085 35.9793 42.7765 35.9793 42.7628 35.9793C42.749 35.9793 42.7307 35.9793 42.717 35.9793H42.6804H42.6713H42.6667H42.6575H42.653H42.6484H42.6209H42.6164H42.6118C42.5203 35.9793 42.4288 35.9884 42.3419 35.9976V35.1055H41.3857C41.2027 35.1055 41.0517 34.9545 41.0517 34.7715C41.0517 34.5885 41.2027 34.4375 41.3857 34.4375H41.3674ZM42.9961 40.1837C43.1333 40.3164 43.1425 40.536 43.0098 40.6778C42.8771 40.8151 42.6575 40.8242 42.5157 40.6915C42.3785 40.5589 42.3693 40.3393 42.502 40.1974C42.6347 40.0602 42.8543 40.051 42.9961 40.1837Z" stroke="#010013" stroke-width="0.343126" stroke-linecap="round" stroke-linejoin="round"/>
<path fill-rule="evenodd" clip-rule="evenodd" d="M46.1091 35.8461L46.9692 36.6102C47.0013 36.6376 47.0058 36.6925 46.9738 36.7245L46.864 36.8481C46.8366 36.8801 46.7817 36.8847 46.7496 36.8527L46.4797 36.6148L45.8163 37.3605L45.4961 37.0768L46.1595 36.3311L45.8895 36.0932C45.8575 36.0657 45.8529 36.0108 45.885 35.9788L45.9948 35.8553C46.0222 35.8233 46.0771 35.8187 46.1091 35.8461Z" fill="#EC1A3B"/>
</g>
<defs>
<clipPath id="clip0_224_8339">
<rect width="49.5107" height="47.4566" fill="white" transform="translate(10.8359 9.27148)"/>
</clipPath>
</defs>
</svg>
