<svg width="25" height="24" viewBox="0 0 25 24" fill="none" xmlns="http://www.w3.org/2000/svg">
<path d="M21.5 12C21.5 12.1989 21.421 12.3897 21.2803 12.5303C21.1397 12.671 20.9489 12.75 20.75 12.75H4.25C4.05109 12.75 3.86032 12.671 3.71967 12.5303C3.57902 12.3897 3.5 12.1989 3.5 12C3.5 11.8011 3.57902 11.6103 3.71967 11.4697C3.86032 11.329 4.05109 11.25 4.25 11.25H20.75C20.9489 11.25 21.1397 11.329 21.2803 11.4697C21.421 11.6103 21.5 11.8011 21.5 12ZM4.25 6.75H20.75C20.9489 6.75 21.1397 6.67098 21.2803 6.53033C21.421 6.38968 21.5 6.19891 21.5 6C21.5 5.80109 21.421 5.61032 21.2803 5.46967C21.1397 5.32902 20.9489 5.25 20.75 5.25H4.25C4.05109 5.25 3.86032 5.32902 3.71967 5.46967C3.57902 5.61032 3.5 5.80109 3.5 6C3.5 6.19891 3.57902 6.38968 3.71967 6.53033C3.86032 6.67098 4.05109 6.75 4.25 6.75ZM20.75 17.25H4.25C4.05109 17.25 3.86032 17.329 3.71967 17.4697C3.57902 17.6103 3.5 17.8011 3.5 18C3.5 18.1989 3.57902 18.3897 3.71967 18.5303C3.86032 18.671 4.05109 18.75 4.25 18.75H20.75C20.9489 18.75 21.1397 18.671 21.2803 18.5303C21.421 18.3897 21.5 18.1989 21.5 18C21.5 17.8011 21.421 17.6103 21.2803 17.4697C21.1397 17.329 20.9489 17.25 20.75 17.25Z" fill="#282828"/>
</svg>
