<svg width="25" height="24" viewBox="0 0 25 24" fill="none" xmlns="http://www.w3.org/2000/svg">
<path d="M21.0603 10.189L13.5603 2.68899C13.279 2.4079 12.8977 2.25 12.5 2.25C12.1024 2.25 11.721 2.4079 11.4397 2.68899L3.9397 10.189C3.79973 10.3279 3.68878 10.4933 3.6133 10.6755C3.53782 10.8577 3.49931 11.053 3.50001 11.2502V20.2502C3.50001 20.4492 3.57903 20.6399 3.71968 20.7806C3.86033 20.9212 4.0511 21.0002 4.25001 21.0002H10.25C10.4489 21.0002 10.6397 20.9212 10.7803 20.7806C10.921 20.6399 11 20.4492 11 20.2502V15.0002H14V20.2502C14 20.4492 14.079 20.6399 14.2197 20.7806C14.3603 20.9212 14.5511 21.0002 14.75 21.0002H20.75C20.9489 21.0002 21.1397 20.9212 21.2803 20.7806C21.421 20.6399 21.5 20.4492 21.5 20.2502V11.2502C21.5007 11.053 21.4622 10.8577 21.3867 10.6755C21.3112 10.4933 21.2003 10.3279 21.0603 10.189ZM20 19.5002H15.5V14.2502C15.5 14.0513 15.421 13.8606 15.2803 13.7199C15.1397 13.5793 14.9489 13.5002 14.75 13.5002H10.25C10.0511 13.5002 9.86033 13.5793 9.71968 13.7199C9.57903 13.8606 9.50001 14.0513 9.50001 14.2502V19.5002H5.00001V11.2502L12.5 3.75024L20 11.2502V19.5002Z" fill="black"/>
</svg>
