<svg width="21" height="21" viewBox="0 0 21 21" fill="none" xmlns="http://www.w3.org/2000/svg">
<path d="M20.0308 18.8163L15.3368 14.1231C16.6973 12.4897 17.3757 10.3947 17.2309 8.27383C17.0861 6.15297 16.1293 4.16957 14.5593 2.73624C12.9894 1.30291 10.9274 0.530007 8.80212 0.578307C6.67687 0.626606 4.65205 1.49239 3.14888 2.99556C1.64571 4.49873 0.779927 6.52355 0.731627 8.6488C0.683327 10.7741 1.45623 12.8361 2.88956 14.406C4.32289 15.9759 6.30629 16.9328 8.42715 17.0776C10.548 17.2224 12.6431 16.544 14.2765 15.1835L18.9696 19.8775C19.0393 19.9472 19.122 20.0025 19.213 20.0402C19.3041 20.0779 19.4017 20.0973 19.5002 20.0973C19.5988 20.0973 19.6963 20.0779 19.7874 20.0402C19.8784 20.0025 19.9612 19.9472 20.0308 19.8775C20.1005 19.8078 20.1558 19.7251 20.1935 19.6341C20.2312 19.543 20.2506 19.4454 20.2506 19.3469C20.2506 19.2483 20.2312 19.1508 20.1935 19.0597C20.1558 18.9687 20.1005 18.886 20.0308 18.8163ZM2.25021 8.84689C2.25021 7.51187 2.64609 6.20683 3.38779 5.09679C4.12949 3.98676 5.1837 3.1216 6.4171 2.61071C7.6505 2.09982 9.0077 1.96614 10.3171 2.22659C11.6264 2.48704 12.8292 3.12992 13.7732 4.07392C14.7172 5.01793 15.3601 6.22066 15.6205 7.53003C15.881 8.83941 15.7473 10.1966 15.2364 11.43C14.7255 12.6634 13.8603 13.7176 12.7503 14.4593C11.6403 15.201 10.3352 15.5969 9.00021 15.5969C7.21061 15.5949 5.49488 14.8831 4.22944 13.6177C2.96399 12.3522 2.2522 10.6365 2.25021 8.84689Z" fill="white"/>
</svg>
