<svg width="65" height="65" viewBox="0 0 65 65" fill="none" xmlns="http://www.w3.org/2000/svg">
<rect x="0.833496" y="0.5" width="64" height="64" rx="32" fill="#FFF5F5"/>
<path d="M29.8335 19.5C25.9785 19.5 22.8335 22.645 22.8335 26.5C22.8335 28.91 24.0635 31.05 25.9275 32.313C22.3605 33.843 19.8335 37.383 19.8335 41.5H21.8335C21.8335 37.07 25.4035 33.5 29.8335 33.5C31.9785 33.5 33.8965 34.379 35.3335 35.75L30.6145 40.469L30.5525 40.781L29.8645 44.313L29.5525 45.781L31.0215 45.469L34.5515 44.781L34.8645 44.719L44.9585 34.625C46.1185 33.465 46.1185 31.535 44.9585 30.375C44.3984 29.8202 43.6436 29.5064 42.8553 29.5006C42.067 29.4948 41.3076 29.7975 40.7395 30.344L36.7715 34.313C35.89 33.4686 34.8627 32.791 33.7395 32.313C34.6912 31.6709 35.471 30.8052 36.0104 29.7918C36.5498 28.7783 36.8324 27.6481 36.8335 26.5C36.8335 22.645 33.6885 19.5 29.8335 19.5ZM29.8335 21.5C32.6065 21.5 34.8335 23.727 34.8335 26.5C34.8335 29.273 32.6065 31.5 29.8335 31.5C27.0605 31.5 24.8335 29.273 24.8335 26.5C24.8335 23.727 27.0605 21.5 29.8335 21.5ZM42.8335 31.5C43.0875 31.5 43.3535 31.582 43.5525 31.781C43.6469 31.8721 43.722 31.9813 43.7733 32.1021C43.8246 32.2229 43.851 32.3528 43.851 32.484C43.851 32.6152 43.8246 32.7451 43.7733 32.8659C43.722 32.9867 43.6469 33.0959 43.5525 33.187L33.8645 42.875L32.0835 43.25L32.4585 41.469L42.1465 31.781C42.2356 31.6895 42.3426 31.6173 42.4607 31.569C42.5789 31.5206 42.7058 31.4972 42.8335 31.5Z" fill="#CC0000"/>
</svg>
