<svg width="65" height="65" viewBox="0 0 65 65" fill="none" xmlns="http://www.w3.org/2000/svg">
<rect x="0.166992" y="0.5" width="64" height="64" rx="32" fill="#FFF5F5"/>
<path fill-rule="evenodd" clip-rule="evenodd" d="M29.9129 18.4998H34.3729C35.0449 18.4898 35.7029 18.7098 36.2329 19.1238C36.7669 19.541 37.1355 20.1342 37.2729 20.7978L37.6629 22.6678C37.8322 22.7585 37.9989 22.8518 38.1629 22.9478L40.0529 22.3278C40.4417 22.2023 40.8523 22.1587 41.2588 22.1997C41.6653 22.2406 42.0589 22.3653 42.4149 22.5658C42.8549 22.8138 43.2249 23.1698 43.4829 23.6058L45.7329 27.3178C46.0966 27.893 46.2401 28.5803 46.1368 29.253C46.0335 29.9257 45.6904 30.5383 45.1709 30.9778H45.1669L43.6829 32.2438V32.7598L45.1489 34.0658C45.6584 34.4982 45.9978 35.0975 46.1066 35.7568C46.2154 36.4162 46.0865 37.0927 45.7429 37.6658L43.5629 41.3858V41.3898C43.3031 41.8245 42.9348 42.1841 42.494 42.4334C42.0533 42.6827 41.5553 42.8131 41.0489 42.8118L41.0469 40.8118C41.209 40.81 41.3682 40.7689 41.5109 40.6918C41.6473 40.6163 41.7612 40.5059 41.8409 40.3718L44.0249 36.6418C44.1277 36.4725 44.1657 36.2716 44.1319 36.0764C44.0981 35.8811 43.9947 35.7048 43.8409 35.5798L43.8249 35.5658L41.6829 33.6558V31.3218L43.8669 29.4598C44.0231 29.3322 44.1268 29.1515 44.1581 28.9523C44.1895 28.7531 44.1463 28.5493 44.0369 28.3798L44.0269 28.3618L41.7649 24.6298C41.6852 24.4958 41.5713 24.3854 41.4349 24.3098C41.2918 24.2318 41.1318 24.1899 40.9689 24.1878H40.9629C40.8626 24.1876 40.7628 24.2024 40.6669 24.2318H40.6629L37.8929 25.1438L37.4929 24.8838C37.1271 24.6479 36.7463 24.4361 36.3529 24.2498L35.9029 24.0358L35.3149 21.2038V21.1998C35.2725 21.0013 35.1613 20.8242 35.0009 20.6998C34.83 20.5659 34.618 20.4952 34.4009 20.4998H29.8869C29.6698 20.4952 29.4578 20.5659 29.2869 20.6998C29.1258 20.8239 29.0138 21.0011 28.9709 21.1998V21.2038L28.3809 24.0378L27.9309 24.2498C27.5336 24.4378 27.1502 24.6498 26.7809 24.8858L26.3709 25.1498L23.6829 24.2038C23.5962 24.1855 23.5074 24.1788 23.4189 24.1838L23.3869 24.1878H23.3549C23.1921 24.1893 23.0321 24.2305 22.8889 24.3078C22.7525 24.3834 22.6386 24.4938 22.5589 24.6278L22.5549 24.6378L20.2989 28.3578C20.1961 28.5272 20.1581 28.7281 20.1919 28.9233C20.2257 29.1185 20.3291 29.2949 20.4829 29.4198L20.4989 29.4338L22.6409 31.3438V32.8478L20.5529 35.4818L20.4749 35.5478C20.3165 35.6735 20.21 35.8533 20.1761 36.0526C20.1421 36.2519 20.183 36.4568 20.2909 36.6278L20.2969 36.6378L22.5589 40.3698C22.6393 40.5033 22.753 40.6135 22.8889 40.6898C23.0316 40.7698 23.1869 40.8105 23.3549 40.8118H23.3609C23.4609 40.8118 23.5596 40.7972 23.6569 40.7678H23.6609L26.4309 39.8558L26.8309 40.1158C27.1962 40.3518 27.5762 40.5632 27.9709 40.7498L28.4209 40.9638L29.0109 43.7998C29.0509 43.9918 29.1569 44.1718 29.3229 44.2998C29.4909 44.4318 29.7029 44.5038 29.9229 44.4998H34.4769C34.694 44.5045 34.906 44.4338 35.0769 44.2998L36.3109 45.8758C35.7796 46.2915 35.1214 46.5119 34.4469 46.4998H29.9509C29.2777 46.5109 28.6212 46.2907 28.0909 45.8758C27.5568 45.4587 27.1883 44.8654 27.0509 44.2018L26.6609 42.3298C26.492 42.2405 26.3253 42.1471 26.1609 42.0498L24.2709 42.6698C23.8821 42.7953 23.4715 42.839 23.065 42.798C22.6585 42.757 22.2649 42.6324 21.9089 42.4318C21.4683 42.186 21.1 41.8288 20.8409 41.3958L18.5889 37.6758C18.2397 37.1123 18.1002 36.4437 18.195 35.7876C18.2897 35.1314 18.6126 34.5296 19.1069 34.0878L20.6009 32.2038L19.1749 30.9338C18.6647 30.501 18.3251 29.9008 18.2166 29.2406C18.1082 28.5804 18.238 27.9031 18.5829 27.3298L18.5869 27.3258L20.8409 23.6058C21.0965 23.1758 21.4591 22.8192 21.8933 22.5708C22.3275 22.3223 22.8186 22.1904 23.3189 22.1878C23.6202 22.1718 23.9176 22.2005 24.2109 22.2738L24.2549 22.2858L26.1249 22.9438C26.2889 22.8478 26.4556 22.7558 26.6249 22.6678L27.0129 20.7998C27.1498 20.1355 27.5185 19.5415 28.0529 19.1238C28.5809 18.7098 29.2409 18.4898 29.9129 18.4998ZM23.3489 42.8118H23.3469L23.3549 41.8118V42.8118H23.3489ZM40.9749 22.1878H40.9789L40.9709 23.1878V22.1878H40.9749ZM32.1669 28.4998C31.106 28.4998 30.0886 28.9213 29.3385 29.6714C28.5883 30.4216 28.1669 31.439 28.1669 32.4998C28.1669 33.5607 28.5883 34.5781 29.3385 35.3283C30.0886 36.0784 31.106 36.4998 32.1669 36.4998C33.2278 36.4998 34.2452 36.0784 34.9953 35.3283C35.7455 34.5781 36.1669 33.5607 36.1669 32.4998C36.1669 31.439 35.7455 30.4216 34.9953 29.6714C34.2452 28.9213 33.2278 28.4998 32.1669 28.4998ZM26.1669 32.4998C26.167 31.4819 26.4261 30.4808 26.9198 29.5906C27.4135 28.7005 28.1256 27.9505 28.989 27.4114C29.8524 26.8723 30.8388 26.5616 31.8553 26.5088C32.8718 26.4559 33.8851 26.6625 34.7998 27.1092C35.7144 27.5559 36.5004 28.2279 37.0838 29.0621C37.6672 29.8962 38.0287 30.8651 38.1344 31.8775C38.2402 32.8899 38.0866 33.9125 37.6882 34.8492C37.2897 35.7859 36.6595 36.6058 35.8569 37.2318L38.9989 41.9458L37.3349 43.0538L34.0889 38.1858C33.186 38.4911 32.2234 38.577 31.2808 38.4362C30.3381 38.2955 29.4426 37.9322 28.6683 37.3764C27.894 36.8207 27.2632 36.0885 26.8283 35.2404C26.3933 34.3924 26.1665 33.4529 26.1669 32.4998Z" fill="#CC0000"/>
</svg>
