<svg width="65" height="64" viewBox="0 0 65 64" fill="none" xmlns="http://www.w3.org/2000/svg">
<g clip-path="url(#clip0_224_8312)">
<path d="M28.3908 17.6816H11.1523V29.1431H28.3908V17.6816Z" stroke="#010013" stroke-width="1.01" stroke-linecap="round" stroke-linejoin="round"/>
<path d="M34.4905 17.6816H30.9883V24.2318H34.4905V17.6816Z" stroke="#010013" stroke-width="1.01" stroke-linecap="round" stroke-linejoin="round"/>
<path d="M34.0791 25.6445H31.3997C31.1725 25.6445 30.9883 25.8285 30.9883 26.0555V28.7321C30.9883 28.9591 31.1725 29.1431 31.3997 29.1431H34.0791C34.3063 29.1431 34.4905 28.9591 34.4905 28.7321V26.0555C34.4905 25.8285 34.3063 25.6445 34.0791 25.6445Z" stroke="#010013" stroke-width="1.01" stroke-linecap="round" stroke-linejoin="round"/>
<path d="M9.00391 30.3301H36.3016V31.6812C36.3016 32.5237 35.6176 33.2121 34.769 33.2121H10.5364C9.69303 33.2121 9.00391 32.5289 9.00391 31.6812V30.3301Z" stroke="#010013" stroke-width="1.01" stroke-linecap="round" stroke-linejoin="round"/>
<path d="M9.00391 30.3296V19.459" stroke="#010013" stroke-width="1.01" stroke-linecap="round" stroke-linejoin="round"/>
<path d="M13.0705 33.2012H11.3477V34.1105H13.0705V33.2012Z" stroke="#010013" stroke-width="1.01" stroke-linecap="round" stroke-linejoin="round"/>
<path d="M34.2658 33.2012H32.543V34.1105H34.2658V33.2012Z" stroke="#010013" stroke-width="1.01" stroke-linecap="round" stroke-linejoin="round"/>
<path d="M36.3016 30.3295V15.5391H9.00391V16.7207L36.3016 16.6076" stroke="#010013" stroke-width="1.01" stroke-linecap="round" stroke-linejoin="round"/>
<path d="M9.00391 15.539C9.00391 15.539 9.08619 13.7461 10.4439 13.7461H36.3016" stroke="#010013" stroke-width="1.01" stroke-linecap="round" stroke-linejoin="round"/>
<path d="M7.96094 46.3441V39.4857C7.96094 39.4857 8.25922 37.1328 10.9694 37.1328H52.2759C52.2759 37.1328 54.5336 37.2201 54.5336 39.8094V50.8547H7.96094L9.51404 52.5089H55.8861C55.8861 52.5089 56.9867 53.11 55.8861 53.9628H9.56547C9.56547 53.9628 9.41633 56.2181 11.7203 56.2181H22.5972" stroke="#010013" stroke-width="1.14" stroke-linecap="round" stroke-linejoin="round"/>
<path d="M32.8197 41.9355H29.9141V45.2389H32.8197V41.9355Z" fill="#EC1A3B"/>
<path d="M40.5235 11.8715L40.0863 31.7479C40.0863 31.7479 39.7675 33.3816 41.6806 33.3816H52.9226C52.9226 33.3816 54.0797 33.5819 54.1209 32.3849C54.162 31.1879 53.8792 10.5204 53.8792 10.5204C53.8792 10.5204 53.838 8.04931 50.5312 7.93115C47.2245 7.81299 42.8377 7.21192 41.0017 9.28741C39.1658 11.3578 43.5114 11.3167 43.5114 11.3167L52.7992 11.1985" stroke="#010013" stroke-width="1.01" stroke-linecap="round" stroke-linejoin="round"/>
<path d="M51.7281 9.6582H42.4609C42.3444 9.6582 42.25 9.75251 42.25 9.86883V10.136C42.25 10.2523 42.3444 10.3466 42.4609 10.3466H51.7281C51.8445 10.3466 51.9389 10.2523 51.9389 10.136V9.86883C51.9389 9.75251 51.8445 9.6582 51.7281 9.6582Z" stroke="#010013" stroke-width="1.01" stroke-linecap="round" stroke-linejoin="round"/>
<path d="M42.25 10.002V11.2195" stroke="#010013" stroke-width="1.01" stroke-linecap="round" stroke-linejoin="round"/>
<path d="M51.9414 10.002V11.2041" stroke="#010013" stroke-width="1.01" stroke-linecap="round" stroke-linejoin="round"/>
<path d="M43.7109 11.3105H50.5096V11.9065C50.5096 12.4254 50.0879 12.8466 49.5685 12.8466H44.6521C44.1326 12.8466 43.7109 12.4254 43.7109 11.9065V11.3105Z" stroke="#010013" stroke-width="1.01" stroke-linecap="round" stroke-linejoin="round"/>
<path d="M48.0151 15.5762H46.4414V17.1482H48.0151V15.5762Z" fill="#EC1A3B"/>
<path d="M41.7773 33.3926H53.0399V33.6905C53.0399 33.9474 52.8291 34.158 52.5719 34.158H42.2453C41.9882 34.158 41.7773 33.9474 41.7773 33.6905V33.3926Z" stroke="#010013" stroke-width="1.01" stroke-linecap="round" stroke-linejoin="round"/>
</g>
<defs>
<clipPath id="clip0_224_8312">
<rect width="49" height="49" fill="white" transform="translate(7.66797 7.5)"/>
</clipPath>
</defs>
</svg>
