<svg width="24" height="24" viewBox="0 0 24 24" fill="none" xmlns="http://www.w3.org/2000/svg">
<rect x="0.5" y="0.5" width="23" height="23" rx="11.5" stroke="#282828"/>
<path d="M19 8.875V15.5005C19 16.0361 18.7954 16.5516 18.4279 16.9413C18.0604 17.331 17.5579 17.5656 17.0232 17.597L16.9 17.6005H7.1C6.56435 17.6005 6.04894 17.3959 5.65922 17.0284C5.2695 16.6609 5.03492 16.1584 5.0035 15.6237L5 15.5005V8.875L11.6115 13.2829L11.6927 13.3291C11.7884 13.3759 11.8935 13.4002 12 13.4002C12.1065 13.4002 12.2116 13.3759 12.3073 13.3291L12.3885 13.2829L19 8.875Z" fill="#282828"/>
<path d="M16.9003 6.40039C17.6563 6.40039 18.3192 6.79939 18.6888 7.39929L12.0003 11.8583L5.31177 7.39929C5.48728 7.11423 5.72842 6.87527 6.01506 6.70236C6.30171 6.52945 6.62555 6.42759 6.95957 6.40529L7.10027 6.40039H16.9003Z" fill="#282828"/>
</svg>
