<svg width="24" height="25" viewBox="0 0 24 25" fill="none" xmlns="http://www.w3.org/2000/svg">
<rect width="24" height="24" transform="translate(0 0.5)" fill="#FCF2F2"/>
<path d="M20.0306 10.0306L12.5306 17.5306C12.4609 17.6003 12.3782 17.6556 12.2871 17.6933C12.1961 17.7311 12.0985 17.7505 11.9999 17.7505C11.9014 17.7505 11.8038 17.7311 11.7127 17.6933C11.6217 17.6556 11.539 17.6003 11.4693 17.5306L3.9693 10.0306C3.82857 9.88982 3.74951 9.69895 3.74951 9.49993C3.74951 9.30091 3.82857 9.11003 3.9693 8.9693C4.11003 8.82857 4.30091 8.74951 4.49993 8.74951C4.69895 8.74951 4.88982 8.82857 5.03055 8.9693L11.9999 15.9396L18.9693 8.9693C19.039 8.89962 19.1217 8.84435 19.2128 8.80663C19.3038 8.76892 19.4014 8.74951 19.4999 8.74951C19.5985 8.74951 19.6961 8.76892 19.7871 8.80663C19.8781 8.84435 19.9609 8.89962 20.0306 8.9693C20.1002 9.03899 20.1555 9.12171 20.1932 9.21276C20.2309 9.3038 20.2503 9.40138 20.2503 9.49993C20.2503 9.59847 20.2309 9.69606 20.1932 9.7871C20.1555 9.87815 20.1002 9.96087 20.0306 10.0306Z" fill="#CC0000"/>
</svg>
