<svg width="65" height="65" viewBox="0 0 65 65" fill="none" xmlns="http://www.w3.org/2000/svg">
<rect x="0.833496" y="0.5" width="64" height="64" rx="32" fill="#FFF5F5"/>
<path d="M31.5 45.8332C30.4093 45.8332 29.3667 45.3932 27.2827 44.5132C22.0947 42.3212 19.5 41.2238 19.5 39.3798V25.8332M31.5 45.8332V31.6398M31.5 45.8332C31.9533 45.8332 32.3613 45.7572 32.8333 45.6038M43.5 25.8332V31.8332M23.5 32.4998L26.1667 33.8332M38.1667 21.8332L24.8333 28.4998M26.6013 29.4212L22.7067 27.5372C20.5693 26.5025 19.5 25.9852 19.5 25.1665C19.5 24.3478 20.5693 23.8305 22.7067 22.7958L26.6 20.9118C29.0067 19.7478 30.2067 19.1665 31.5 19.1665C32.7933 19.1665 33.9947 19.7478 36.3987 20.9118L40.2933 22.7958C42.4307 23.8305 43.5 24.3478 43.5 25.1665C43.5 25.9852 42.4307 26.5025 40.2933 27.5372L36.4 29.4212C33.9933 30.5852 32.7933 31.1665 31.5 31.1665C30.2067 31.1665 29.0053 30.5852 26.6013 29.4212Z" stroke="#CC0000" stroke-width="1.5" stroke-linecap="round" stroke-linejoin="round"/>
<path fill-rule="evenodd" clip-rule="evenodd" d="M38.7085 37.0537C38.7085 36.888 38.7743 36.729 38.8916 36.6118C39.0088 36.4946 39.1677 36.4287 39.3335 36.4287H46.2085C46.3743 36.4287 46.5332 36.4946 46.6504 36.6118C46.7676 36.729 46.8335 36.888 46.8335 37.0537C46.8335 37.2195 46.7676 37.3784 46.6504 37.4957C46.5332 37.6129 46.3743 37.6787 46.2085 37.6787H39.3335C39.1677 37.6787 39.0088 37.6129 38.8916 37.4957C38.7743 37.3784 38.7085 37.2195 38.7085 37.0537ZM38.7085 40.1787C38.7085 40.013 38.7743 39.854 38.8916 39.7368C39.0088 39.6196 39.1677 39.5537 39.3335 39.5537H46.2085C46.3743 39.5537 46.5332 39.6196 46.6504 39.7368C46.7676 39.854 46.8335 40.013 46.8335 40.1787C46.8335 40.3445 46.7676 40.5034 46.6504 40.6207C46.5332 40.7379 46.3743 40.8037 46.2085 40.8037H39.3335C39.1677 40.8037 39.0088 40.7379 38.8916 40.6207C38.7743 40.5034 38.7085 40.3445 38.7085 40.1787ZM38.7085 43.3037C38.7085 43.138 38.7743 42.979 38.8916 42.8618C39.0088 42.7446 39.1677 42.6787 39.3335 42.6787H46.2085C46.3743 42.6787 46.5332 42.7446 46.6504 42.8618C46.7676 42.979 46.8335 43.138 46.8335 43.3037C46.8335 43.4695 46.7676 43.6284 46.6504 43.7457C46.5332 43.8629 46.3743 43.9287 46.2085 43.9287H39.3335C39.1677 43.9287 39.0088 43.8629 38.8916 43.7457C38.7743 43.6284 38.7085 43.4695 38.7085 43.3037Z" fill="#CC0000"/>
<path d="M38.0835 37.0537C38.0835 37.2195 38.0176 37.3784 37.9004 37.4957C37.7832 37.6129 37.6243 37.6787 37.4585 37.6787C37.2927 37.6787 37.1338 37.6129 37.0166 37.4957C36.8993 37.3784 36.8335 37.2195 36.8335 37.0537C36.8335 36.888 36.8993 36.729 37.0166 36.6118C37.1338 36.4946 37.2927 36.4287 37.4585 36.4287C37.6243 36.4287 37.7832 36.4946 37.9004 36.6118C38.0176 36.729 38.0835 36.888 38.0835 37.0537ZM38.0835 40.1787C38.0835 40.3445 38.0176 40.5034 37.9004 40.6207C37.7832 40.7379 37.6243 40.8037 37.4585 40.8037C37.2927 40.8037 37.1338 40.7379 37.0166 40.6207C36.8993 40.5034 36.8335 40.3445 36.8335 40.1787C36.8335 40.013 36.8993 39.854 37.0166 39.7368C37.1338 39.6196 37.2927 39.5537 37.4585 39.5537C37.6243 39.5537 37.7832 39.6196 37.9004 39.7368C38.0176 39.854 38.0835 40.013 38.0835 40.1787ZM38.0835 43.3037C38.0835 43.4695 38.0176 43.6284 37.9004 43.7457C37.7832 43.8629 37.6243 43.9287 37.4585 43.9287C37.2927 43.9287 37.1338 43.8629 37.0166 43.7457C36.8993 43.6284 36.8335 43.4695 36.8335 43.3037C36.8335 43.138 36.8993 42.979 37.0166 42.8618C37.1338 42.7446 37.2927 42.6787 37.4585 42.6787C37.6243 42.6787 37.7832 42.7446 37.9004 42.8618C38.0176 42.979 38.0835 43.138 38.0835 43.3037Z" fill="#CC0000"/>
</svg>
