<svg width="65" height="65" viewBox="0 0 65 65" fill="none" xmlns="http://www.w3.org/2000/svg">
<rect x="0.5" y="0.5" width="64" height="64" rx="32" fill="#FFF5F5"/>
<path d="M33.1668 45.8332H40.5002C41.2074 45.8332 41.8857 45.5522 42.3858 45.0521C42.8859 44.552 43.1668 43.8737 43.1668 43.1665V25.8332L36.5002 19.1665H24.5002C23.7929 19.1665 23.1146 19.4475 22.6145 19.9476C22.1144 20.4476 21.8335 21.1259 21.8335 21.8332V34.4998" stroke="#CC0000" stroke-width="2" stroke-linecap="round" stroke-linejoin="round"/>
<path d="M35.167 19.1665V24.4998C35.167 25.2071 35.4479 25.8854 35.948 26.3855C36.4481 26.8856 37.1264 27.1665 37.8336 27.1665H43.167M34.3376 37.3345C34.6006 37.0715 34.8092 36.7593 34.9516 36.4157C35.0939 36.0721 35.1672 35.7038 35.1672 35.3318C35.1672 34.9599 35.0939 34.5916 34.9516 34.248C34.8092 33.9044 34.6006 33.5922 34.3376 33.3292C34.0746 33.0662 33.7624 32.8576 33.4188 32.7152C33.0752 32.5729 32.7069 32.4996 32.335 32.4996C31.963 32.4996 31.5947 32.5729 31.2511 32.7152C30.9075 32.8576 30.5953 33.0662 30.3323 33.3292L23.6523 40.0118C23.3353 40.3287 23.1033 40.7203 22.9776 41.1505L21.8616 44.9772C21.8282 45.0919 21.8262 45.2135 21.8558 45.3293C21.8855 45.4451 21.9457 45.5507 22.0302 45.6352C22.1147 45.7197 22.2204 45.78 22.3362 45.8096C22.4519 45.8393 22.5736 45.8373 22.6883 45.8038L26.515 44.6878C26.9452 44.5622 27.3368 44.3302 27.6536 44.0132L34.3376 37.3345Z" stroke="#CC0000" stroke-width="2" stroke-linecap="round" stroke-linejoin="round"/>
</svg>
