<svg width="22" height="19" viewBox="0 0 22 19" fill="none" xmlns="http://www.w3.org/2000/svg">
<path d="M21.1703 17.9144L15.9203 7.41437C15.858 7.28982 15.7623 7.18506 15.6438 7.11185C15.5253 7.03864 15.3888 6.99986 15.2495 6.99986C15.1103 6.99986 14.9737 7.03864 14.8553 7.11185C14.7368 7.18506 14.641 7.28982 14.5787 7.41437L12.5434 11.4859C10.9481 11.3962 9.41312 10.8452 8.125 9.89969C9.63633 8.28575 10.552 6.20463 10.7209 4H13C13.1989 4 13.3897 3.92098 13.5303 3.78033C13.671 3.63968 13.75 3.44891 13.75 3.25C13.75 3.05109 13.671 2.86032 13.5303 2.71967C13.3897 2.57902 13.1989 2.5 13 2.5H7.75V1C7.75 0.801088 7.67098 0.610322 7.53033 0.46967C7.38968 0.329018 7.19891 0.25 7 0.25C6.80109 0.25 6.61032 0.329018 6.46967 0.46967C6.32902 0.610322 6.25 0.801088 6.25 1V2.5H1C0.801088 2.5 0.610322 2.57902 0.46967 2.71967C0.329018 2.86032 0.25 3.05109 0.25 3.25C0.25 3.44891 0.329018 3.63968 0.46967 3.78033C0.610322 3.92098 0.801088 4 1 4H9.21531C9.04827 5.83811 8.26802 7.56667 7 8.90781C6.20984 8.07406 5.60306 7.08406 5.21875 6.00156C5.18715 5.90712 5.13705 5.81991 5.07139 5.74503C5.00572 5.67015 4.9258 5.6091 4.83629 5.56544C4.74678 5.52178 4.64946 5.49639 4.55003 5.49074C4.4506 5.48509 4.35104 5.49931 4.25715 5.53255C4.16327 5.5658 4.07695 5.61741 4.00323 5.68437C3.92951 5.75133 3.86987 5.83231 3.82778 5.92257C3.78569 6.01283 3.76199 6.11057 3.75808 6.21009C3.75417 6.3096 3.77012 6.4089 3.805 6.50219C4.25244 7.76769 4.95726 8.92674 5.875 9.90625C4.46197 10.9446 2.75353 11.5031 1 11.5C0.801088 11.5 0.610322 11.579 0.46967 11.7197C0.329018 11.8603 0.25 12.0511 0.25 12.25C0.25 12.4489 0.329018 12.6397 0.46967 12.7803C0.610322 12.921 0.801088 13 1 13C3.17555 13.0024 5.28875 12.2734 7 10.93C8.39648 12.0211 10.0635 12.7117 11.8225 12.9278L9.32875 17.9144C9.28467 18.0025 9.25838 18.0984 9.25137 18.1966C9.24436 18.2949 9.25677 18.3935 9.28789 18.487C9.35075 18.6757 9.486 18.8318 9.66391 18.9208C9.84181 19.0098 10.0478 19.0245 10.2365 18.9616C10.4253 18.8988 10.5813 18.7635 10.6703 18.5856L11.9631 16H18.5359L19.8288 18.5856C19.8911 18.7102 19.9869 18.815 20.1055 18.8882C20.2241 18.9614 20.3607 19.0001 20.5 19C20.6278 18.9999 20.7535 18.9672 20.8651 18.9049C20.9768 18.8426 21.0706 18.7528 21.1378 18.644C21.2049 18.5353 21.2432 18.4111 21.2489 18.2834C21.2546 18.1557 21.2275 18.0287 21.1703 17.9144ZM12.7131 14.5L15.25 9.42719L17.7859 14.5H12.7131Z" fill="black"/>
</svg>
