<svg width="65" height="64" viewBox="0 0 65 64" fill="none" xmlns="http://www.w3.org/2000/svg">
<g clip-path="url(#clip0_224_8352)">
<path d="M54.9185 21.8741L54.8505 53.6663C54.8505 54.5042 54.1655 55.1891 53.3277 55.1891H25.3963M18.2578 32.3696V9.15953C18.2578 8.3217 18.9428 7.63672 19.7806 7.63672H40.7999M22.028 11.4239H37.4826M28.6401 50.8358H51.1482M30.0553 42.9557H51.1482M25.5039 35.0756H51.1482M22.028 27.1898H51.1426M22.028 19.3097H37.4826M40.766 20.4589L40.9584 7.79523V7.6537L48.414 15.2564L54.8335 21.8062L42.2378 21.9364C41.8302 21.9364 41.4792 21.7949 41.1905 21.5062C40.9018 21.2175 40.7603 20.8665 40.766 20.4589Z" stroke="#010013" stroke-width="1.24542" stroke-linecap="round" stroke-linejoin="round"/>
<path d="M20.2025 53.7362L19.7892 46.592C19.7779 46.4165 20.4515 46.1618 21.295 46.9656C21.6007 47.26 22.1838 47.243 22.2744 46.8581C22.5518 45.7032 22.4612 44.4012 22.3763 42.935C22.3763 42.8841 22.3989 42.8388 22.4442 42.8161C22.5065 42.7878 22.6537 42.7992 22.8178 42.901L25.4106 44.5201C25.8125 44.6333 26.1748 44.7522 26.5088 44.8767" fill="#EC1A3B"/>
<path d="M15.3561 39.4535H15.3448C15.1749 39.3969 15.0391 39.3403 14.9315 39.2554C14.8239 39.1705 14.756 39.0573 14.6768 38.8308C14.5975 38.6044 14.5069 38.2704 14.4447 37.9703C14.3824 37.6703 14.3428 37.4042 14.3258 37.1721C14.3088 36.94 14.3145 36.7419 14.3654 36.5891C14.422 36.4362 14.5635 36.3117 14.6654 36.2834C14.7673 36.2494 14.8239 36.272 14.8692 36.2607C14.9145 36.2494 14.8466 36.2211 14.8466 36.1984L14.2352 34.4888C13.4087 32.5754 15.0221 31.4885 16.0864 31.8282C15.7863 31.279 16.6921 30.4922 17.1223 30.2997C18.9452 29.4902 20.6661 29.9657 22.2625 30.996C23.2985 31.613 23.6325 30.6733 23.8193 30.8092C24.4929 31.3073 24.6798 33.2717 23.1569 34.5398C23.3098 35.4116 23.1683 35.8588 22.9079 36.2494C22.9815 36.2494 23.055 36.272 23.123 36.2947C23.2702 36.3513 23.4004 36.4475 23.4626 36.6287C23.5249 36.8098 23.5192 37.0759 23.4966 37.342C23.474 37.608 23.4343 37.8741 23.3721 38.1402C23.3098 38.4062 23.2192 38.678 23.14 38.8648C23.0607 39.0573 22.9871 39.1705 22.8852 39.2554C22.7777 39.3403 22.6418 39.3969 22.472 39.4535C22.4437 39.4648 22.4097 39.4705 22.3757 39.4818L22.3248 40.297C22.2965 40.7725 22.121 41.1801 21.804 41.5254V42.935C21.804 43.2181 21.6851 43.4558 21.4643 43.6257L19.3754 45.7372C19.2452 45.8391 19.1093 45.8901 18.9735 45.8844C18.8433 45.8844 18.7074 45.8335 18.5715 45.7316L16.4883 43.62C16.2675 43.4502 16.1486 43.2068 16.1486 42.9237V41.7066L15.9958 41.5481C15.6505 41.1914 15.4693 40.7725 15.4353 40.28L15.3787 39.4365L15.3561 39.4535Z" fill="#EC1A3B"/>
<path d="M15.5539 42.935C15.5539 42.8841 15.5312 42.8388 15.4859 42.8161C15.4237 42.7878 15.2765 42.7992 15.1123 42.901L12.5196 44.5201C9.35509 45.3976 8.47763 46.7279 8.28516 49.4282V55.0099C8.28516 55.8364 8.86258 56.0063 9.24753 56.0572C12.2479 56.4478 14.5632 56.5724 17.5635 56.6233L18.1466 46.592C18.1579 46.4165 17.4843 46.1618 16.6408 46.9656C16.3351 47.26 15.752 47.243 15.6614 46.8581C15.3841 45.7032 15.4746 44.4012 15.5595 42.935H15.5539Z" fill="#EC1A3B"/>
</g>
<defs>
<clipPath id="clip0_224_8352">
<rect width="47.258" height="49.613" fill="white" transform="translate(8.28125 7.01367)"/>
</clipPath>
</defs>
</svg>
