<svg width="320" height="111" viewBox="0 0 320 111" fill="none" xmlns="http://www.w3.org/2000/svg">
<g clip-path="url(#clip0_1_248)">
<path d="M132.876 71.5879C124.386 71.5879 118.205 77.8396 118.205 86.0115C118.205 93.3701 123.727 99.8672 132.876 99.8672C140.824 99.8672 147.172 93.8572 147.172 85.6053C147.172 78.4152 142.39 71.5879 132.876 71.5879ZM133.408 98.6005C125.289 98.6005 122.325 90.7559 122.325 84.7054C122.325 75.7547 127.888 72.8527 132.173 72.8527C140.039 72.8527 143.049 80.1285 143.049 86.873C143.048 94.9227 138.349 98.6005 133.408 98.6005ZM239.372 97.458C239.254 97.458 239.044 97.6197 238.843 97.7429C238.52 97.9 238.166 97.9838 237.807 97.9884C236.204 97.9884 236.166 96.2731 236.166 94.4328V87.3889C236.166 84.1606 234.846 82.5406 231.878 82.5406C227.002 82.5406 224.214 85.4407 224.214 87.5679C224.214 87.9347 224.419 88.1397 224.791 88.1397C225.409 88.1397 226.521 87.8538 227.141 87.3629C227.469 87.1155 227.51 86.6256 227.554 85.9721C227.636 84.7073 229.195 84.1346 230.349 84.1346C232.903 84.1346 233.239 86.179 233.199 87.6902V89.4333C233.199 90.0484 233.074 90.5499 232.456 90.7568L227.554 92.5125C224.916 93.4539 224.134 94.3904 224.134 95.9863C224.134 97.1307 224.628 98.153 225.409 98.847C226.111 99.462 227.182 99.7883 228.291 99.7883C229.41 99.7883 231.534 99.3841 233.199 97.6659C233.616 99.1117 235.22 99.7883 236.206 99.7883C238.284 99.7883 239.633 98.1453 239.739 97.9181C239.736 97.9162 239.543 97.458 239.372 97.458ZM233.197 92.5731V94.9641C233.157 95.8198 232.908 96.4319 232.414 96.9219C232.003 97.3358 230.722 97.9441 229.902 97.9441C227.801 97.9441 227.303 96.1894 227.303 95.4925C227.303 93.9014 228.499 93.2893 230.929 92.4692L233.196 91.7386L233.197 92.5731ZM251.758 97.5398C251.758 96.148 252.748 95.1258 254.065 95.1258C255.465 95.1258 256.37 96.2288 256.37 97.5398C256.37 98.845 255.465 99.7864 254.065 99.7864C252.873 99.7864 251.758 98.9268 251.758 97.5398Z" fill="black"/>
<path d="M239.427 98.1191C239.614 98.1191 239.765 97.9687 239.765 97.7832C239.765 97.5977 239.614 97.4473 239.427 97.4473C239.24 97.4473 239.088 97.5977 239.088 97.7832C239.088 97.9687 239.24 98.1191 239.427 98.1191Z" fill="black"/>
<path d="M191.579 84.85C191.58 84.7399 191.559 84.6307 191.516 84.5289C191.474 84.427 191.412 84.3344 191.334 84.2565C191.255 84.1785 191.162 84.1167 191.06 84.0747C190.957 84.0327 190.847 84.0112 190.736 84.0116H187.96C187.049 84.0116 186.766 83.9269 185.444 83.3571C184.194 82.8279 182.851 82.5498 181.492 82.5389C177.822 82.5389 174.772 85.1956 174.772 88.7107C174.772 91.3231 176.519 93.0624 178.242 93.8391C178.242 93.8391 174.652 95.0972 174.652 97.0069C174.652 98.6932 175.925 100.057 178.25 100.522C173.606 102.487 174.072 105.465 174.072 105.465C174.072 107.508 175.846 110.206 180.916 110.206C186.267 110.206 191.17 106.937 191.17 102.481C191.17 98.3939 187.709 97.9877 185.402 97.9877C183.59 97.9877 181.902 98.1099 180.496 98.1099C178.562 98.1099 177.616 97.3351 177.616 96.3928C177.616 95.2069 178.937 94.4321 179.427 94.1452C179.923 94.1857 180.496 94.2704 181.239 94.2704C186.475 94.2704 188.166 90.5925 188.166 87.7703C188.166 87.0773 188.166 86.3804 188.079 85.6865H190.735C191.208 85.6865 191.579 85.3111 191.579 84.85ZM179.14 100.97C179.719 100.604 181.369 100.519 182.682 100.519H184.081C187.049 100.519 188.781 101.584 188.781 104.076C188.781 106.406 186.352 108.449 182.682 108.449C178.938 108.449 177.163 106.609 177.163 104.403C177.164 102.85 178.15 101.584 179.14 100.97ZM181.861 93.0816C179.882 93.0816 178.112 91.2047 178.112 88.2969C178.112 85.5219 179.592 83.7267 181.573 83.7267C184.082 83.7267 185.241 86.0541 185.241 88.8349C185.241 91.3231 184.082 93.0816 181.861 93.0816ZM104.898 95.9846C104.939 95.8887 104.946 95.7814 104.916 95.6812C104.887 95.5811 104.823 95.4943 104.735 95.4359C104.648 95.3776 104.543 95.3512 104.438 95.3614C104.333 95.3716 104.236 95.4177 104.161 95.4918H104.155C102.877 97.0858 101.723 97.4968 100.365 97.4968C95.9556 97.4968 93.5218 93.9826 93.5218 89.8552C93.5218 88.8349 93.5664 88.7512 94.6378 88.7512H104.271C104.343 88.7514 104.415 88.7342 104.479 88.701C104.543 88.6678 104.598 88.6196 104.64 88.5606H104.643L104.646 88.5577C104.673 88.5158 104.693 88.4696 104.705 88.421C104.786 88.2083 104.857 87.8579 104.857 87.4007C104.857 84.952 102.546 82.5389 99.0046 82.5389C94.0613 82.5389 90.725 86.7481 90.725 91.7735C90.725 93.5725 91.2161 95.4918 92.4543 97.0867C93.6479 98.6412 95.7499 99.7867 98.4272 99.7867C100.55 99.7867 103.472 98.7827 104.854 96.0645C104.869 96.0405 104.882 96.0135 104.898 95.9846ZM98.5534 83.7643C100.942 83.7643 101.723 85.1956 101.723 86.3429C101.723 86.3429 101.737 86.8444 101.737 87.0783C101.737 87.4691 101.534 87.5268 101.342 87.5268H94.269C93.9769 87.5268 93.9769 87.4017 93.9769 87.3208C94.0167 85.9704 96.1215 83.7643 98.5534 83.7643ZM81.0549 84.1589C83.3227 83.0356 85.2422 81.1616 85.2422 78.3712C85.2422 75.754 83.8807 74.1225 82.1136 73.2611C80.2582 72.3235 77.7885 72.1176 75.1868 72.1176C71.5138 72.1176 68.783 72.2302 66.6025 72.4217V72.4236C66.4704 72.4351 66.3479 72.4966 66.2605 72.5954C66.1731 72.6942 66.1275 72.8227 66.1333 72.954C66.139 73.0854 66.1957 73.2094 66.2914 73.3003C66.3872 73.3913 66.5146 73.442 66.6471 73.442L67.6185 73.5267C69.471 73.6894 69.6282 74.5287 69.6282 77.5501V93.0807C69.6282 97.3707 69.5438 97.8221 67.3633 98.1898L66.62 98.3121L66.617 98.3149C66.4862 98.3225 66.3631 98.3793 66.273 98.4737C66.1828 98.5682 66.1324 98.6931 66.1318 98.8232C66.1318 99.1042 66.3628 99.3333 66.6471 99.3333L66.6966 99.3314C66.6966 99.3314 66.6966 99.3333 66.7024 99.3333H76.3843C83.8031 99.3333 87.3441 96.1454 87.3441 91.4059C87.3441 87.0321 83.28 84.5651 81.0549 84.1589ZM73.0072 82.9894V74.6943C73.0072 73.9589 73.1712 73.7548 73.5836 73.6307C73.9553 73.469 74.5706 73.3862 75.4808 73.3862C78.6084 73.3862 81.6167 74.8993 81.6167 78.9054C81.6167 82.7421 79.3528 83.9702 75.1499 84.1329C74.851 84.1454 74.5909 84.1541 74.3648 84.156H73.0072V82.9894ZM77.1247 98.0695C75.8923 98.0695 74.6521 97.8625 73.8699 96.9221C73.0858 96.0251 73.0063 93.9412 73.0063 92.4695V85.3582H75.3944C81.9447 85.3582 83.5915 89.1208 83.5915 92.3462C83.5925 96.4322 80.7948 98.0695 77.1247 98.0695ZM159.981 82.5389C158.461 82.5389 156.771 83.9154 155.327 85.0993V82.2483C155.327 82.2435 155.331 82.2367 155.331 82.2338C155.331 82.1988 155.325 82.1641 155.311 82.1316C155.298 82.0992 155.278 82.0698 155.253 82.045C155.228 82.0202 155.198 82.0006 155.166 81.9872C155.133 81.9739 155.098 81.9671 155.063 81.9672C155.018 81.9678 154.975 81.9801 154.937 82.0028H154.931L150.916 83.9597V83.9635C150.843 84.0014 150.782 84.0582 150.739 84.1279C150.697 84.1976 150.674 84.2775 150.673 84.3591C150.673 84.5439 150.79 84.7056 150.958 84.774C152.131 85.5315 152.28 85.8905 152.28 87.4845V94.6342C152.28 97.5786 152.243 97.9434 150.717 98.1898L150.176 98.2707C150.038 98.2783 149.909 98.3376 149.814 98.4365C149.72 98.5355 149.667 98.6665 149.666 98.8029C149.666 99.0936 149.909 99.3343 150.202 99.3343H157.914C158.215 99.3343 158.455 99.0936 158.455 98.8029C158.455 98.6672 158.402 98.5366 158.308 98.4378C158.214 98.339 158.086 98.2792 157.95 98.2707L157.408 98.1898C156.989 98.1205 156.234 98.0772 155.945 97.9126C155.338 97.569 155.327 96.7701 155.327 94.6342V89.0755C155.327 87.6885 155.45 86.5036 155.866 85.9319C156.193 85.4805 156.689 85.1137 157.347 85.1137C157.926 85.1137 158.543 85.3563 159.162 85.7663C159.448 85.9319 159.656 86.0541 160.068 86.0541C160.728 86.0541 161.838 85.5219 161.838 84.1724C161.836 83.1954 161.013 82.5389 159.981 82.5389ZM167.192 77.9611C168.348 77.9611 169.375 77.3076 169.375 75.8358C169.375 74.6933 168.552 73.7115 167.315 73.7115C166.08 73.7115 165.09 74.5711 165.09 75.9157C165.09 77.0236 165.917 77.9611 167.192 77.9611ZM171.105 98.2716L170.57 98.1908C169.048 97.9434 169.005 97.5786 169.005 94.6352V82.6121C169.004 82.5358 168.983 82.461 168.945 82.3947C168.908 82.3284 168.853 82.2727 168.788 82.233C168.722 82.1932 168.647 82.1707 168.57 82.1674C168.494 82.1642 168.417 82.1804 168.348 82.2146L164.632 83.9423H164.629L164.603 83.9558V83.9597C164.529 83.9963 164.467 84.0526 164.423 84.1223C164.379 84.192 164.356 84.2723 164.356 84.3543C164.356 84.5179 164.443 84.6556 164.575 84.7374C165.683 85.4708 165.955 85.8915 165.955 87.4854V94.6352C165.955 97.5796 165.918 97.9444 164.39 98.1908L163.854 98.2716C163.716 98.2795 163.587 98.3389 163.493 98.4378C163.398 98.5367 163.346 98.6677 163.345 98.8039C163.345 99.0946 163.585 99.3352 163.884 99.3352H171.08C171.222 99.3386 171.36 99.2857 171.463 99.1883C171.566 99.0909 171.626 98.957 171.629 98.8159C171.632 98.6749 171.579 98.5383 171.481 98.4362C171.383 98.3342 171.248 98.2749 171.105 98.2716ZM196.983 77.9611C198.135 77.9611 199.161 77.3076 199.161 75.8358C199.161 74.6933 198.339 73.7115 197.106 73.7115C195.871 73.7115 194.878 74.5711 194.878 75.9157C194.878 77.0236 195.704 77.9611 196.983 77.9611ZM200.895 98.2716L200.359 98.1908C198.835 97.9434 198.795 97.5786 198.795 94.6352V82.6121C198.795 82.5352 198.775 82.4597 198.737 82.3927C198.699 82.3257 198.644 82.2696 198.578 82.2297C198.512 82.1897 198.436 82.1674 198.359 82.1648C198.281 82.1621 198.204 82.1793 198.135 82.2146L194.421 83.9423C194.421 83.9423 194.415 83.9423 194.412 83.9443L194.386 83.9558V83.9597C194.315 83.9965 194.256 84.0512 194.213 84.1183C194.171 84.1853 194.148 84.2622 194.145 84.3412C194.142 84.4203 194.161 84.4986 194.199 84.5681C194.237 84.6377 194.292 84.6961 194.36 84.7374C195.473 85.4708 195.744 85.8915 195.744 87.4854V94.6352C195.744 97.5796 195.704 97.9444 194.18 98.1908L193.646 98.2716C193.508 98.278 193.378 98.3369 193.282 98.4359C193.186 98.535 193.132 98.6667 193.132 98.8039C193.132 99.0946 193.375 99.3352 193.673 99.3352H200.87C201.166 99.3352 201.409 99.0946 201.409 98.8039C201.408 98.667 201.354 98.5357 201.258 98.4367C201.163 98.3378 201.033 98.2787 200.895 98.2716ZM248.957 98.2716L248.422 98.1908C246.897 97.9434 246.857 97.5786 246.857 94.6352V70.4437C246.858 70.3662 246.839 70.2897 246.801 70.2218C246.763 70.154 246.708 70.0971 246.641 70.0569C246.574 70.0166 246.498 69.9944 246.42 69.9923C246.341 69.9903 246.264 70.0085 246.195 70.0452L242.487 71.7691C242.477 71.7691 242.474 71.773 242.469 71.7759L242.448 71.7874C242.375 71.8255 242.314 71.8826 242.271 71.9527C242.228 72.0227 242.205 72.103 242.205 72.1849C242.205 72.3476 242.291 72.4872 242.424 72.5651C243.531 73.3034 243.807 73.7211 243.807 75.3132V94.6352C243.807 97.5796 243.767 97.9444 242.239 98.1908L241.703 98.2716C241.566 98.2793 241.438 98.3388 241.344 98.4379C241.25 98.537 241.198 98.668 241.199 98.8039C241.199 99.0946 241.432 99.3352 241.729 99.3352H248.931C249.227 99.3352 249.467 99.0946 249.467 98.8039C249.467 98.6673 249.414 98.5359 249.319 98.4369C249.224 98.3379 249.095 98.2788 248.957 98.2716ZM222.111 98.2716L221.577 98.1908C220.048 97.9434 220.013 97.5786 220.013 94.6352V87.6077C220.013 84.8702 218.611 82.5389 215.19 82.5389C213.091 82.5389 210.337 83.7758 208.969 84.8009V82.6121C208.969 82.5353 208.949 82.4599 208.911 82.3931C208.873 82.3262 208.818 82.2702 208.752 82.2303C208.686 82.1904 208.61 82.168 208.533 82.1653C208.456 82.1625 208.379 82.1795 208.31 82.2146L204.6 83.9394L204.591 83.9443L204.56 83.9558V83.9597C204.493 83.9187 204.416 83.896 204.337 83.8937C204.258 83.8915 204.18 83.9099 204.111 83.947C204.041 83.9841 203.983 84.0386 203.941 84.1052C203.899 84.1717 203.876 84.2479 203.873 84.3262C203.871 84.4045 203.889 84.482 203.926 84.5512C203.963 84.6204 204.018 84.6787 204.085 84.7203C204.152 84.7619 204.228 84.7854 204.307 84.7884C204.386 84.7914 204.464 84.7738 204.534 84.7374C205.646 85.4708 205.922 85.8915 205.922 87.4854V94.6352C205.922 97.5796 205.882 97.9444 204.357 98.1908L203.822 98.2716C203.685 98.2788 203.555 98.338 203.46 98.437C203.365 98.536 203.313 98.6674 203.313 98.8039C203.313 99.0946 203.555 99.3352 203.845 99.3352H211.049C211.341 99.3352 211.586 99.0946 211.586 98.8039C211.586 98.6673 211.533 98.5361 211.438 98.4372C211.343 98.3382 211.213 98.279 211.076 98.2716L210.535 98.1908C209.011 97.9434 208.971 97.5786 208.971 94.6352V88.3825C208.971 87.1996 209.056 86.6249 209.591 85.9329C210.166 85.1542 211.526 84.5025 213.093 84.5025C215.891 84.5025 216.965 86.2168 216.965 88.5462V94.6352C216.965 97.5796 216.923 97.9444 215.401 98.1908L214.859 98.2716C214.723 98.2842 214.597 98.3473 214.507 98.4481C214.416 98.549 214.368 98.6801 214.371 98.8151C214.374 98.9501 214.429 99.0788 214.524 99.1753C214.619 99.2718 214.748 99.329 214.884 99.3352H222.086C222.382 99.3352 222.623 99.0946 222.623 98.8039C222.622 98.6673 222.569 98.536 222.474 98.4371C222.379 98.3382 222.249 98.279 222.111 98.2716Z" fill="black"/>
<path d="M108.586 18.5607H80.5958V2.41702H66.1328V44.6512H80.5958V27.6759H108.586V44.6512H123.046V2.41702H108.586V18.5607ZM151.659 2.41702L125.724 44.6512H136.774L142.086 36.0086H171.981L177.126 44.6512H194.784L168.854 2.41702H151.659ZM147.201 27.6759L157.266 11.2772L167.03 27.6759H147.201ZM252.151 20.7168C255.6 16.2391 255.13 9.68611 248.525 5.92547C242.358 2.42472 230.591 1.133 223.241 1.133C211.48 1.133 203.905 1.91843 197.464 3.00706V44.6532H211.927V9.32997C217.136 8.3116 222.421 8.28561 224.401 8.37513C230.14 8.63405 233.367 9.51381 235.954 11.3359C238.617 13.2128 239.339 17.3922 235.879 20.2846C233.289 22.4484 228.026 24.154 216.264 22.3627L214.611 25.0713L236.844 44.6512H256.528L236.751 27.6759C241.506 27.0753 248.714 25.182 252.151 20.7168ZM34.4313 17.0101C26.0877 15.4055 18.991 14.3968 18.991 11.7142C18.991 8.72838 24.7271 7.96413 32.8534 8.8333C40.542 9.63509 47.7968 11.6285 54.5625 14.4882L59.7018 6.12953C54.2365 4.062 42.9651 1.41791 32.7457 1.1176C21.5316 0.792258 2.61721 1.79137 1.80012 13.0271C1.05387 23.3214 15.8304 25.7768 25.52 28.008C34.9669 30.2026 43.8356 30.988 43.8356 34.2289C43.8356 36.5149 40.7069 38.2995 32.4478 37.6825C22.5156 36.9413 14.0506 34.2433 5.60511 30.0861L0 39.2177C9.36256 42.8523 21.6334 45.7639 32.6981 45.9478C45.8414 46.1615 60.6946 44.0564 61.0226 32.8871C61.2972 23.5659 51.5698 20.3144 34.4313 17.0101ZM311.517 5.92547C305.63 2.47574 294.603 1.133 286.149 1.133C274.381 1.133 266.724 1.91843 260.284 3.00706V44.6532H274.741V29.3893C279.207 30.1333 284.814 30.5693 289.653 30.5289C301.491 30.4346 310.283 27.6759 314.293 23.357C320 17.2026 318.086 9.77755 311.517 5.92547ZM298.877 20.3722C296.377 22.3993 292.725 23.1212 286.972 23.1048C282.719 23.0866 278.32 22.3185 274.741 21.5099V9.32997C279.947 8.3116 285.326 8.29716 287.297 8.37513C293.078 8.6148 296.438 9.58889 298.939 11.3359C301.546 13.1435 302.408 17.4961 298.877 20.3722Z" fill="#E6000D"/>
</g>
<defs>
<clipPath id="clip0_1_248">
<rect width="320" height="109.694" fill="white" transform="translate(0 0.652344)"/>
</clipPath>
</defs>
</svg>
