<svg width="64" height="64" viewBox="0 0 64 64" fill="none" xmlns="http://www.w3.org/2000/svg">
<rect y="0.000244141" width="64" height="64" rx="32" fill="#FFF5F5"/>
<path d="M20 30.6669V20.0002H30.6667V30.6669H20ZM22.6667 28.0002H28V22.6669H22.6667V28.0002ZM20 44.0002V33.3336H30.6667V44.0002H20ZM22.6667 41.3336H28V36.0002H22.6667V41.3336ZM33.3333 30.6669V20.0002H44V30.6669H33.3333ZM36 28.0002H41.3333V22.6669H36V28.0002ZM41.3333 44.0002V41.3336H44V44.0002H41.3333ZM33.3333 36.0002V33.3336H36V36.0002H33.3333ZM36 38.6669V36.0002H38.6667V38.6669H36ZM33.3333 41.3336V38.6669H36V41.3336H33.3333ZM36 44.0002V41.3336H38.6667V44.0002H36ZM38.6667 41.3336V38.6669H41.3333V41.3336H38.6667ZM38.6667 36.0002V33.3336H41.3333V36.0002H38.6667ZM41.3333 38.6669V36.0002H44V38.6669H41.3333Z" fill="#CC0000"/>
</svg>
