<svg width="64" height="64" viewBox="0 0 64 64" fill="none" xmlns="http://www.w3.org/2000/svg">
<g clip-path="url(#clip0_224_12852)">
<path d="M26.6305 53.4028H20.2807C19.8528 53.4028 19.502 53.7537 19.502 54.1816C19.502 54.6095 19.8528 54.9603 20.2807 54.9603H26.6305C27.0584 54.9603 27.4093 54.6095 27.4093 54.1816C27.4093 53.7537 27.0584 53.4028 26.6305 53.4028Z" fill="#010013"/>
<path d="M26.6305 55.2512H20.2807C19.6902 55.2512 19.2109 54.772 19.2109 54.1815C19.2109 53.591 19.6902 53.1118 20.2807 53.1118H26.6305C27.221 53.1118 27.7002 53.591 27.7002 54.1815C27.7002 54.772 27.221 55.2512 26.6305 55.2512ZM20.2807 53.7023C20.0154 53.7023 19.7929 53.9162 19.7929 54.1901C19.7929 54.4639 20.0068 54.6779 20.2807 54.6779H26.6305C26.8958 54.6779 27.1183 54.4639 27.1183 54.1901C27.1183 53.9162 26.9043 53.7023 26.6305 53.7023H20.2807Z" fill="#010013"/>
<path d="M55.8331 16.3135H39.5221V5.12006C39.5221 4.69217 39.1713 4.34131 38.7434 4.34131H8.17524C7.74735 4.34131 7.39648 4.69217 7.39648 5.12006V58.8796C7.39648 59.3075 7.74735 59.6583 8.17524 59.6583H38.7434C39.1713 59.6583 39.5221 59.3075 39.5221 58.8796V41.362L42.2606 38.846H55.8246C56.2524 38.846 56.6033 38.4951 56.6033 38.0672V17.0837C56.6033 16.6559 56.2524 16.305 55.8246 16.305L55.8331 16.3135ZM8.95399 58.1008V50.2962H37.9732V58.1008H8.95399ZM37.9646 48.7473H8.95399V5.89881H37.9732V16.3135H28.0976C27.6697 16.3135 27.3188 16.6644 27.3188 17.0923V38.0758C27.3188 38.5037 27.6697 38.8545 28.0976 38.8545H34.1992V44.4855C34.1992 44.7936 34.3789 45.076 34.6613 45.1958C34.764 45.2386 34.8667 45.2643 34.978 45.2643C35.1662 45.2643 35.3545 45.1958 35.5 45.0589L37.9732 42.7911V48.7473H37.9646ZM55.0544 37.297H41.9611C41.7642 37.297 41.576 37.3741 41.439 37.5024L35.7482 42.7141V38.0758C35.7482 37.6479 35.3973 37.297 34.9694 37.297H28.8678V17.871H55.0544V37.297Z" fill="#010013"/>
<path d="M38.7433 59.9492H8.17518C7.5847 59.9492 7.10547 59.47 7.10547 58.8795V5.12001C7.10547 4.52952 7.5847 4.05029 8.17518 4.05029H38.7433C39.3338 4.05029 39.813 4.52952 39.813 5.12001V16.0225H55.8331C56.4235 16.0225 56.9028 16.5018 56.9028 17.0922V38.0757C56.9028 38.6662 56.4235 39.1455 55.8331 39.1455H42.3803L39.8216 41.4903V58.8795C39.8216 59.47 39.3424 59.9492 38.7519 59.9492H38.7433ZM8.17518 4.63222C7.90989 4.63222 7.68739 4.84616 7.68739 5.12001V58.8795C7.68739 59.1448 7.90134 59.3673 8.17518 59.3673H38.7433C39.0086 59.3673 39.2311 59.1534 39.2311 58.8795V41.3619C39.2311 41.2763 39.2653 41.1993 39.3252 41.148L42.0637 38.632C42.1151 38.5806 42.1835 38.555 42.2605 38.555H55.8245C56.0898 38.555 56.3123 38.341 56.3123 38.0672V17.0837C56.3123 16.8184 56.0984 16.5959 55.8245 16.5959H39.5135C39.3509 16.5959 39.2225 16.4675 39.2225 16.3049V5.12001C39.2225 4.85472 39.0086 4.63222 38.7348 4.63222H8.17518ZM37.9646 58.3917H8.95393C8.79134 58.3917 8.66297 58.2634 8.66297 58.1008V50.2962C8.66297 50.1336 8.79134 50.0052 8.95393 50.0052H37.9731C38.1357 50.0052 38.2641 50.1336 38.2641 50.2962V58.1008C38.2641 58.2634 38.1357 58.3917 37.9731 58.3917H37.9646ZM9.2449 57.8098H37.6822V50.5871H9.2449V57.8098ZM37.9646 49.0382H8.95393C8.79134 49.0382 8.66297 48.9098 8.66297 48.7472V5.89876C8.66297 5.73616 8.79134 5.6078 8.95393 5.6078H37.9731C38.1357 5.6078 38.2641 5.73616 38.2641 5.89876V16.3135C38.2641 16.4761 38.1357 16.6045 37.9731 16.6045H28.0975C27.8322 16.6045 27.6097 16.8184 27.6097 17.0922V38.0757C27.6097 38.341 27.8237 38.5635 28.0975 38.5635H34.1992C34.3618 38.5635 34.4901 38.6919 34.4901 38.8545V44.4855C34.4901 44.6823 34.6014 44.8535 34.7811 44.9305C34.9523 45.0075 35.1662 44.9733 35.3031 44.8449L37.7763 42.5771C37.8619 42.5001 37.9817 42.4744 38.0929 42.5258C38.1956 42.5685 38.2641 42.6798 38.2641 42.791V48.7472C38.2641 48.9098 38.1357 49.0382 37.9731 49.0382H37.9646ZM9.2449 48.4477H37.6822V43.4414L35.6968 45.2642C35.3887 45.5466 34.918 45.6236 34.5415 45.4525C34.1564 45.2813 33.9082 44.8962 33.9082 44.4769V39.1369H28.1061C27.5156 39.1369 27.0364 38.6577 27.0364 38.0672V17.0837C27.0364 16.4932 27.5156 16.014 28.1061 16.014H37.6907V6.18972H9.2449V48.4562V48.4477ZM35.7396 43.005C35.7396 43.005 35.6625 43.005 35.6198 42.9793C35.5171 42.9365 35.4486 42.8253 35.4486 42.714V38.0757C35.4486 37.8105 35.2347 37.588 34.9608 37.588H28.8592C28.6966 37.588 28.5682 37.4596 28.5682 37.297V17.871C28.5682 17.7084 28.6966 17.58 28.8592 17.58H55.0458C55.2084 17.58 55.3367 17.7084 55.3367 17.871V37.297C55.3367 37.4596 55.2084 37.588 55.0458 37.588H41.9525C41.8327 37.588 41.7128 37.6307 41.6273 37.7163L35.9364 42.928C35.885 42.9793 35.808 43.005 35.7396 43.005ZM29.1587 36.9975H34.9608C35.5513 36.9975 36.0305 37.4767 36.0305 38.0672V42.0465L41.2336 37.2799C41.4304 37.1002 41.6872 36.9975 41.9525 36.9975H54.7548V18.1534H29.1501V36.9975H29.1587Z" fill="#010013"/>
<path d="M45.168 28.8159H45.7413C45.8269 29.0384 45.7756 29.2695 45.7756 29.4834C45.7756 29.646 45.8269 29.7145 45.9981 29.7059C46.2719 29.6974 46.5372 29.7145 46.8111 29.7059C47.0164 29.6974 47.0849 29.7744 47.0678 29.9712C47.0421 30.2023 47.1191 30.4419 47.0164 30.6644C46.8966 30.7927 46.7169 30.7414 46.58 30.8184C46.4516 30.9126 46.4944 31.0495 46.4859 31.1693C46.4773 31.3062 46.4944 31.4517 46.3832 31.5544C46.0066 31.6742 45.6301 31.6314 45.2536 31.5886C45.2193 31.5715 45.1851 31.5544 45.1509 31.5287C45.0567 31.3918 45.0653 31.2292 45.0824 31.0837C45.1081 30.8013 45.0139 30.6473 44.7059 30.6815C44.6631 30.6815 44.6117 30.6644 44.5689 30.6473C44.5347 30.6302 44.5005 30.6045 44.4834 30.5702C44.4063 30.3135 44.4149 30.0482 44.4748 29.7915C44.4919 29.7573 44.5176 29.723 44.5518 29.7059C44.8827 29.626 45.0624 29.4121 45.091 29.0641C45.091 28.9956 45.1081 28.9272 45.1423 28.8587C45.1594 28.8416 45.168 28.833 45.1851 28.8159H45.168Z" fill="#010013"/>
<path d="M44.5518 32.4535C44.5518 32.9669 44.5347 33.4718 44.5518 33.9853C44.5518 34.1907 44.4919 34.2506 44.2951 34.242C44.0213 34.2249 43.7474 34.2335 43.4736 34.242C43.3195 34.242 43.2511 34.1907 43.2682 34.0366C43.2682 34.0281 43.2682 34.011 43.2682 34.0024C43.2454 33.5631 43.4479 33.3292 43.8758 33.3007C43.9785 33.1381 43.9186 32.9584 43.9186 32.7872C43.9271 32.4107 43.9186 32.4107 44.3122 32.4192C44.3893 32.4192 44.4748 32.4021 44.5518 32.4535Z" fill="#010013"/>
<path d="M48.3165 31.5285C47.9143 31.5285 47.5035 31.5285 47.1013 31.5285C46.9301 31.306 47.0072 31.0493 47.0243 30.8097C47.0243 30.707 47.1013 30.63 47.2125 30.6385C47.5805 30.6556 47.9485 30.5957 48.3079 30.6728C48.3079 30.9637 48.3079 31.2461 48.3079 31.5371L48.3165 31.5285Z" fill="#010013"/>
<path d="M47.1027 28.8247C47.5049 28.8247 47.9071 28.8076 48.3093 28.8076C48.3093 29.09 48.3093 29.381 48.3093 29.6719C47.9499 29.7575 47.5819 29.6891 47.2225 29.7062C47.1284 29.7062 47.0599 29.6634 47.0685 29.5607C47.0856 29.3125 47.0171 29.0643 47.1027 28.8247Z" fill="#010013"/>
<path d="M43.2774 31.9739C43.2774 32.1964 43.3887 32.4788 42.9523 32.4531C42.6784 32.436 42.5843 32.3675 42.6271 32.1022C42.6271 32.0594 42.6271 32.0081 42.6271 31.9567C42.6442 31.7428 42.5158 31.4946 42.9437 31.4946C43.363 31.4946 43.2946 31.7171 43.2774 31.9653V31.9739Z" fill="#010013"/>
<path d="M48.309 31.5372C48.9508 31.4944 49.1049 31.6742 48.9508 32.3074C48.8909 32.5556 48.677 32.4101 48.5401 32.4358C48.4288 32.4529 48.3004 32.4615 48.309 32.2732C48.3176 32.025 48.309 31.7768 48.3176 31.5372H48.309Z" fill="#010013"/>
<path d="M44.5352 28.8159C44.5352 28.6276 44.5437 28.4393 44.5266 28.2511C44.4924 27.9772 44.578 27.8831 44.8689 27.8916C45.1171 27.8916 45.2027 27.9687 45.177 28.2168C45.1599 28.4137 45.177 28.619 45.1685 28.8244H45.177C44.9888 28.9699 44.7834 28.9442 44.578 28.8758C44.5609 28.8587 44.5438 28.8501 44.5352 28.833V28.8159Z" fill="#010013"/>
<path d="M48.3082 28.8072C48.3082 28.6275 48.3253 28.4478 48.2996 28.2767C48.2483 27.9429 48.3852 27.8745 48.6933 27.8916C48.8901 27.9087 48.9842 27.9515 48.95 28.1569C48.95 28.1911 48.95 28.2253 48.95 28.2596C48.95 28.676 48.7332 28.8557 48.2996 28.7987L48.3082 28.8072Z" fill="#010013"/>
<path d="M47.7441 33.3088C48.326 33.3174 48.3175 33.3174 48.326 33.8822C48.326 34.1047 48.326 34.2502 48.0179 34.2416C47.727 34.2416 47.6414 34.1475 47.6842 33.8822C47.7612 33.6939 47.6585 33.4886 47.7441 33.3003V33.3088Z" fill="#010013"/>
<path d="M44.5195 32.3843C44.5195 32.1019 44.5281 31.8109 44.5366 31.5285C44.5538 31.5114 44.5623 31.5028 44.5794 31.4857C44.742 31.4172 44.9132 31.4258 45.0843 31.46C45.1186 31.4771 45.1528 31.5028 45.1785 31.5285C45.3496 31.8109 45.3325 32.0933 45.2041 32.3843C44.9816 32.4356 44.7591 32.4356 44.5281 32.3843H44.5195Z" fill="#010013"/>
<path d="M43.9024 31.3918C43.9966 31.1351 43.911 30.8698 43.9623 30.6045C44.1506 30.4505 44.3474 30.459 44.5357 30.6045C44.5357 30.6045 44.587 30.673 44.6042 30.7072C44.6469 30.9896 44.7068 31.272 44.5271 31.5288C44.3645 31.5288 44.1934 31.5288 44.0308 31.5288C43.9281 31.5288 43.8768 31.5031 43.8939 31.3918H43.9024Z" fill="#010013"/>
<path d="M47.103 28.8242C47.0859 29.3947 47.3569 29.6771 47.916 29.6714C48.0444 29.6714 48.1727 29.6714 48.3011 29.6629C48.0273 29.8426 47.7192 29.7313 47.4282 29.7313C47.1544 29.7313 47.0346 29.7998 47.0774 30.0822C47.0774 30.125 47.0774 30.1763 47.0774 30.2191C47.0346 30.5015 47.1201 30.6299 47.4282 30.5957C47.6593 30.57 47.8989 30.5957 48.13 30.5957C48.1899 30.5957 48.2754 30.57 48.2925 30.6727C47.9759 30.6727 47.6593 30.6727 47.3341 30.6556C47.1287 30.647 47.0688 30.7326 47.0774 30.9294C47.0859 31.1262 47.0774 31.3316 47.0774 31.5285L47.0945 31.5456C47.0517 31.5456 47.0174 31.5456 46.9832 31.5113C46.8549 31.2375 46.8976 30.9465 46.9319 30.6641C47.0602 30.416 46.9747 30.1592 46.9918 29.9025C47.0003 29.7399 46.872 29.757 46.7693 29.757C46.5211 29.757 46.2729 29.7399 46.0248 29.757C45.8023 29.7741 45.6996 29.6971 45.7167 29.4575C45.7338 29.2435 45.7167 29.0382 45.7167 28.8242C45.8793 29.0125 45.7851 29.2435 45.7937 29.4489C45.7937 29.6286 45.8536 29.7142 46.0333 29.6885C46.0675 29.6885 46.1018 29.6885 46.136 29.6885C46.4099 29.6885 46.735 29.7741 46.9319 29.6543C47.1287 29.526 46.9747 29.1751 47.0089 28.9269C47.0089 28.8756 47.026 28.8413 47.0859 28.8328L47.103 28.8242Z" fill="#010013"/>
<path d="M44.4659 29.7316C44.1065 29.6517 43.9325 29.4178 43.9439 29.0299C43.9439 28.9614 43.961 28.8929 43.961 28.8159C44.1493 28.8159 44.3375 28.8159 44.5344 28.8159H44.5258C44.6798 29.124 44.6798 29.4406 44.5258 29.7487C44.5258 29.7487 44.4745 29.7658 44.4574 29.7316H44.4659Z" fill="#010013"/>
<path d="M45.7423 33.3259C45.554 33.3259 45.3658 33.3088 45.1775 33.3088C45.0919 33.0948 45.1604 32.8638 45.1347 32.6413C45.1176 32.4616 45.2203 32.376 45.3829 32.3674C45.5626 32.3589 45.768 32.3418 45.8108 32.5728C45.8536 32.821 45.9049 33.0863 45.7423 33.3259Z" fill="#010013"/>
<path d="M47.2329 33.3258H47.1045C46.9334 33.1033 47.0019 32.838 47.0275 32.5898C47.0361 32.4871 47.1045 32.4186 47.2158 32.4272C47.3613 32.4272 47.5153 32.3844 47.6608 32.47C47.7464 32.6155 47.695 32.7695 47.7036 32.9236C47.7036 33.3771 47.7036 33.3771 47.2329 33.3343V33.3258Z" fill="#010013"/>
<path d="M41.3779 28.2168C41.3779 28.0799 41.4206 27.9259 41.2581 27.8403C41.1725 27.729 41.0441 27.7633 40.9243 27.7633C39.0502 27.7633 37.176 27.7633 35.3019 27.7633C35.1906 27.7633 35.0623 27.729 34.9767 27.8488C34.8227 27.9515 34.8826 28.1056 34.8826 28.2425C34.8826 30.1081 34.8826 31.9737 34.8826 33.8392C34.8826 34.1559 34.9767 34.2842 35.3104 34.2842C37.1846 34.2757 39.0673 34.2757 40.9414 34.2842C41.2923 34.2842 41.3864 34.1559 41.3864 33.8221C41.3779 31.9565 41.3864 30.091 41.3864 28.2254L41.3779 28.2168ZM40.7703 33.6595H35.4217V28.311H40.7703V33.6595Z" fill="#010013"/>
<path d="M47.0617 33.4544C47.0617 33.4544 47.0361 33.403 47.019 33.3773C47.019 33.3431 47.019 33.3174 47.019 33.2832C46.9676 33.2832 46.9248 33.2832 46.8735 33.2832C46.8307 33.2832 46.7879 33.2832 46.7366 33.2832C46.5483 33.2832 46.36 33.2918 46.1632 33.3003C46.0862 33.4116 45.915 33.3003 45.838 33.4116C45.8123 33.4116 45.7866 33.4458 45.7695 33.5228C45.7695 33.945 45.9264 34.1761 46.2402 34.216C46.4969 34.216 46.7537 34.216 47.0104 34.216C47.1045 33.9678 47.0275 33.7025 47.0532 33.4458L47.0617 33.4544Z" fill="#010013"/>
<path d="M43.2422 28.7989C43.2422 28.9786 43.2422 29.1583 43.2422 29.3295C43.2422 29.5263 43.2678 29.6889 42.9683 29.6889C42.6859 29.6889 42.6688 29.552 42.6774 29.338C42.6859 28.9615 42.6945 28.5764 42.6774 28.1999C42.6688 27.9602 42.78 27.9346 42.9769 27.9346C43.1651 27.9346 43.2678 27.9688 43.2507 28.1913C43.2336 28.3881 43.2507 28.5935 43.2507 28.7989H43.2422Z" fill="#010013"/>
<path d="M43.3124 30.6043C43.3124 30.4246 43.3296 30.2449 43.3124 30.0737C43.2697 29.7828 43.4066 29.7314 43.6548 29.7485C43.8174 29.7571 43.8773 29.7913 43.8858 29.971C43.9115 30.5701 43.92 30.5701 43.3124 30.6043Z" fill="#010013"/>
<path d="M46.4615 31.5034C46.6498 31.5034 46.838 31.512 47.0349 31.5205C47.0349 31.7002 47.0178 31.8714 47.0349 32.0511C47.0605 32.3506 46.8808 32.402 46.6498 32.3934C46.3588 32.3934 46.4786 32.1709 46.4615 32.034C46.4444 31.8628 46.4615 31.6831 46.4615 31.5034Z" fill="#010013"/>
<path d="M39.6298 31.1009C39.6298 30.6987 39.6298 30.2965 39.6298 29.8943C39.6298 29.6718 39.5271 29.5605 39.3131 29.5605C38.5173 29.5605 37.7214 29.5691 36.9255 29.5777C36.6945 29.5777 36.5918 29.6975 36.5918 29.9371C36.5918 30.6987 36.6004 31.4518 36.5918 32.2134C36.5918 32.4873 36.703 32.5985 36.9683 32.5985C37.73 32.5985 38.4831 32.5985 39.2447 32.5985C39.5185 32.5985 39.6298 32.4787 39.6212 32.2049C39.6127 31.8369 39.6212 31.4689 39.6212 31.1009H39.6298ZM39.1078 31.8369C39.1078 32.0081 39.0564 32.068 38.8853 32.0594C38.6285 32.0508 38.3632 32.0594 38.1065 32.0594C37.9011 32.0594 37.7043 32.0423 37.4989 32.0594C37.2165 32.0936 37.0967 32.0081 37.1138 31.7C37.1395 31.255 37.1309 30.8014 37.1138 30.3479C37.1053 30.1168 37.1823 30.074 37.3962 30.074C37.884 30.0911 38.3632 30.0826 38.851 30.074C39.0222 30.074 39.0992 30.0997 39.0992 30.3051C39.0821 30.81 39.0906 31.3234 39.0992 31.8283L39.1078 31.8369Z" fill="#010013"/>
<path d="M41.3779 20.7632C41.3779 20.6263 41.4206 20.4723 41.2581 20.3867C41.1725 20.2754 41.0441 20.3097 40.9243 20.3097C39.0502 20.3097 37.176 20.3097 35.3019 20.3097C35.1906 20.3097 35.0623 20.2754 34.9767 20.3952C34.8227 20.4979 34.8826 20.652 34.8826 20.7889C34.8826 22.6545 34.8826 24.52 34.8826 26.3856C34.8826 26.7023 34.9767 26.8306 35.3104 26.8306C37.1846 26.8221 39.0673 26.8221 40.9414 26.8306C41.2923 26.8306 41.3864 26.7023 41.3864 26.3685C41.3779 24.5029 41.3864 22.6374 41.3864 20.7718L41.3779 20.7632ZM40.7703 26.2145H35.4217V20.8659H40.7703V26.2145Z" fill="#010013"/>
<path d="M39.6298 23.6473C39.6298 23.2451 39.6298 22.8429 39.6298 22.4407C39.6298 22.2182 39.5271 22.1069 39.3131 22.1069C38.5173 22.1069 37.7214 22.1155 36.9255 22.124C36.6945 22.124 36.5918 22.2439 36.5918 22.4835C36.5918 23.2451 36.6004 23.9982 36.5918 24.7598C36.5918 25.0337 36.703 25.1449 36.9683 25.1449C37.73 25.1449 38.4831 25.1449 39.2447 25.1449C39.5185 25.1449 39.6298 25.0251 39.6212 24.7513C39.6127 24.3833 39.6212 24.0153 39.6212 23.6473H39.6298ZM39.1078 24.3918C39.1078 24.563 39.0564 24.6229 38.8853 24.6143C38.6285 24.6058 38.3632 24.6143 38.1065 24.6143C37.9011 24.6143 37.7043 24.5972 37.4989 24.6143C37.2165 24.6486 37.0967 24.563 37.1138 24.2549C37.1395 23.8099 37.1309 23.3564 37.1138 22.9028C37.1053 22.6717 37.1823 22.629 37.3962 22.629C37.884 22.6461 38.3632 22.6375 38.851 22.629C39.0222 22.629 39.0992 22.6546 39.0992 22.86C39.0821 23.3649 39.0906 23.8784 39.0992 24.3833L39.1078 24.3918Z" fill="#010013"/>
<path d="M49.0536 20.7632C49.0536 20.6263 49.0964 20.4723 48.9338 20.3867C48.8483 20.2754 48.7199 20.3097 48.6001 20.3097C46.7259 20.3097 44.8518 20.3097 42.9777 20.3097C42.8664 20.3097 42.7381 20.2754 42.6525 20.3952C42.4984 20.4979 42.5583 20.652 42.5583 20.7889C42.5583 22.6545 42.5583 24.52 42.5583 26.3856C42.5583 26.7023 42.6525 26.8306 42.9862 26.8306C44.8604 26.8221 46.7431 26.8221 48.6172 26.8306C48.9681 26.8306 49.0622 26.7023 49.0622 26.3685C49.0536 24.5029 49.0622 22.6374 49.0622 20.7718L49.0536 20.7632ZM48.4546 26.2145H43.106V20.8659H48.4546V26.2145Z" fill="#010013"/>
<path d="M47.3153 23.6473C47.3153 23.2451 47.3153 22.8429 47.3153 22.4407C47.3153 22.2182 47.2126 22.1069 46.9987 22.1069C46.2028 22.1069 45.407 22.1155 44.6111 22.124C44.38 22.124 44.2773 22.2439 44.2773 22.4835C44.2773 23.2451 44.2859 23.9982 44.2773 24.7598C44.2773 25.0337 44.3886 25.1449 44.6539 25.1449C45.4155 25.1449 46.1686 25.1449 46.9302 25.1449C47.2041 25.1449 47.3153 25.0251 47.3068 24.7513C47.2982 24.3833 47.3068 24.0153 47.3068 23.6473H47.3153ZM46.7933 24.3918C46.7933 24.563 46.742 24.6229 46.5708 24.6143C46.3141 24.6058 46.0488 24.6143 45.7921 24.6143C45.5867 24.6143 45.3898 24.5972 45.1845 24.6143C44.9021 24.6486 44.7822 24.563 44.7994 24.2549C44.825 23.8099 44.8165 23.3564 44.7994 22.9028C44.7908 22.6717 44.8678 22.629 45.0818 22.629C45.5696 22.6461 46.0488 22.6375 46.5366 22.629C46.7077 22.629 46.7848 22.6546 46.7848 22.86C46.7676 23.3649 46.7762 23.8784 46.7848 24.3833L46.7933 24.3918Z" fill="#010013"/>
</g>
<defs>
<clipPath id="clip0_224_12852">
<rect width="49.7887" height="55.899" fill="white" transform="translate(7.10547 4.05029)"/>
</clipPath>
</defs>
</svg>
