<svg width="64" height="64" viewBox="0 0 64 64" fill="none" xmlns="http://www.w3.org/2000/svg">
<rect y="0.000244141" width="64" height="64" rx="32" fill="#FFF5F5"/>
<path d="M42 32.0002C42 31.735 42.1054 31.4807 42.2929 31.2931C42.4804 31.1056 42.7348 31.0002 43 31.0002C43.2652 31.0002 43.5196 31.1056 43.7071 31.2931C43.8946 31.4807 44 31.735 44 32.0002V43.0002C44 43.2655 43.8946 43.5198 43.7071 43.7074C43.5196 43.8949 43.2652 44.0002 43 44.0002H21C20.7348 44.0002 20.4804 43.8949 20.2929 43.7074C20.1054 43.5198 20 43.2655 20 43.0002V21.0002C20 20.735 20.1054 20.4807 20.2929 20.2931C20.4804 20.1056 20.7348 20.0002 21 20.0002H32C32.2652 20.0002 32.5196 20.1056 32.7071 20.2931C32.8946 20.4807 33 20.735 33 21.0002C33 21.2655 32.8946 21.5198 32.7071 21.7074C32.5196 21.8949 32.2652 22.0002 32 22.0002H22V42.0002H42V32.0002Z" fill="#CC0000"/>
<path d="M30.686 33.3203L32.336 33.0843L42.472 22.9503C42.5675 22.858 42.6437 22.7477 42.6961 22.6257C42.7485 22.5037 42.7761 22.3724 42.7772 22.2397C42.7784 22.1069 42.7531 21.9752 42.7028 21.8523C42.6525 21.7294 42.5783 21.6178 42.4844 21.5239C42.3905 21.43 42.2788 21.3557 42.1559 21.3054C42.033 21.2552 41.9013 21.2299 41.7686 21.231C41.6358 21.2322 41.5046 21.2597 41.3826 21.3122C41.2606 21.3646 41.1502 21.4407 41.058 21.5363L30.92 31.6703L30.684 33.3203H30.686ZM43.886 20.1203C44.1647 20.3989 44.3859 20.7297 44.5368 21.0938C44.6877 21.4579 44.7653 21.8481 44.7653 22.2423C44.7653 22.6364 44.6877 23.0266 44.5368 23.3907C44.3859 23.7549 44.1647 24.0857 43.886 24.3643L33.516 34.7343C33.363 34.8877 33.1644 34.9874 32.95 35.0183L29.65 35.4903C29.4962 35.5123 29.3394 35.4983 29.1919 35.4492C29.0445 35.4001 28.9106 35.3174 28.8007 35.2075C28.6908 35.0977 28.6081 34.9637 28.559 34.8163C28.5099 34.6689 28.4959 34.512 28.518 34.3583L28.99 31.0583C29.0203 30.8441 29.1192 30.6455 29.272 30.4923L39.644 20.1223C40.2066 19.5598 40.9695 19.2439 41.765 19.2439C42.5605 19.2439 43.3234 19.5598 43.886 20.1223V20.1203Z" fill="#CC0000"/>
</svg>
