<svg width="64" height="64" viewBox="0 0 64 64" fill="none" xmlns="http://www.w3.org/2000/svg">
<g clip-path="url(#clip0_224_12840)">
<path d="M59.0924 28.5011C59.3165 28.1478 59.2252 27.6684 58.8683 27.4413L52.2868 23.1179C51.9383 22.8908 51.4818 22.9833 51.2494 23.3366L46.4357 30.5871V19.8459C46.4357 19.6357 46.3527 19.4422 46.2033 19.2992L36.6839 9.99641C36.5428 9.86183 36.3519 9.78613 36.161 9.78613H11.5365C11.1215 9.78613 10.7812 10.131 10.7812 10.5516V53.4488C10.7812 53.8693 11.1215 54.2142 11.5365 54.2142H45.6805C46.0954 54.2142 46.4357 53.8693 46.4357 53.4488V48.831C46.4357 48.7216 46.4108 48.6207 46.3693 48.5282V48.2674L59.0924 28.5011ZM36.9162 12.3516L43.8131 19.0889H37.6715C37.2565 19.0889 36.9162 18.7441 36.9162 18.3235V12.3516ZM44.9252 49.9749V52.6833H12.2918V11.317H35.414V19.8544C35.414 20.2749 35.7543 20.6198 36.1693 20.6198H44.253C44.3277 20.6198 44.3941 20.6114 44.4522 20.5861H44.9252V30.1329V32.8581L38.0201 43.2544C37.9454 43.3637 37.9039 43.4815 37.8956 43.6076L37.3312 49.9076C37.2897 50.3871 37.6881 50.7908 38.1695 50.7319L44.9335 49.9665L44.9252 49.9749ZM45.2821 47.1572H45.2323V47.2245L44.6098 48.1833C44.4853 48.3768 44.2862 48.503 44.0621 48.5282L39.8211 49.0076C39.348 49.0581 38.9413 48.6628 38.9828 48.1833L39.348 44.1375C39.3563 44.0114 39.4061 43.8852 39.4725 43.7759L51.6644 25.431C51.8968 25.0861 52.3532 24.9936 52.7018 25.2207L56.7768 27.8955C57.1254 28.1226 57.225 28.602 57.0009 28.9553L45.2821 47.1656V47.1572Z" fill="#010013"/>
<path d="M45.6814 54.5H11.5374C10.9648 54.5 10.5 54.029 10.5 53.4486V10.5514C10.5 9.97103 10.9648 9.5 11.5374 9.5H36.1619C36.4275 9.5 36.6848 9.60093 36.884 9.79439L46.4035 19.0888C46.6026 19.2822 46.7188 19.5598 46.7188 19.8458V29.6449L51.018 23.1766C51.3333 22.7056 51.9724 22.571 52.4455 22.8822L59.0269 27.2056C59.2593 27.357 59.417 27.5925 59.4751 27.8701C59.5332 28.1477 59.4751 28.4252 59.3257 28.6607L46.6524 48.3598V48.4776C46.6939 48.5953 46.7188 48.7131 46.7188 48.8393V53.457C46.7188 54.0374 46.2541 54.5084 45.6814 54.5084V54.5ZM11.5374 10.072C11.2801 10.072 11.0644 10.2822 11.0644 10.5514V53.4486C11.0644 53.7094 11.2718 53.928 11.5374 53.928H45.6814C45.9387 53.928 46.1545 53.7178 46.1545 53.4486V48.8308C46.1545 48.7636 46.1379 48.7047 46.113 48.6458C46.0964 48.6122 46.0881 48.5701 46.0881 48.528V48.2673C46.0881 48.2084 46.1047 48.1579 46.1296 48.1075L58.8526 28.3411C58.919 28.2318 58.9439 28.1056 58.919 27.9794C58.8941 27.8533 58.8194 27.7439 58.7115 27.6766L52.1301 23.3533C51.9143 23.2103 51.6238 23.2692 51.4827 23.4879L46.669 30.7383C46.6026 30.8393 46.4698 30.8897 46.3537 30.8561C46.2375 30.8224 46.1545 30.7047 46.1545 30.5785V19.8374C46.1545 19.7112 46.1047 19.585 46.0134 19.4925L36.4856 10.2065C36.3943 10.1224 36.2781 10.072 36.1619 10.072H11.5374ZM44.9261 52.9776H12.2927C12.135 52.9776 12.0105 52.8514 12.0105 52.6916V11.3168C12.0105 11.157 12.135 11.0308 12.2927 11.0308H35.4067C35.5644 11.0308 35.6889 11.157 35.6889 11.3168V19.8542C35.6889 20.115 35.8963 20.3336 36.1619 20.3336H44.2456C44.2456 20.3336 44.3203 20.3336 44.3701 20.3168C44.395 20.3168 44.4199 20.3084 44.4531 20.3084H44.9261C45.0838 20.3084 45.2083 20.4346 45.2083 20.5944V32.8664C45.2083 32.9252 45.1917 32.9757 45.1585 33.0262L38.2534 43.4224C38.2119 43.4897 38.1787 43.5654 38.1787 43.6495L37.6143 49.9495C37.5977 50.0925 37.6558 50.2355 37.7554 50.3365C37.855 50.4374 37.9961 50.4879 38.1372 50.471L44.9013 49.7056C44.9842 49.6972 45.0589 49.7224 45.117 49.7729C45.1751 49.8234 45.2083 49.9075 45.2083 49.9832V52.6916C45.2083 52.8514 45.0838 52.9776 44.9261 52.9776ZM12.5749 52.3972H44.644V50.2944L38.1953 51.0178C37.8882 51.043 37.5811 50.9421 37.357 50.7234C37.133 50.5047 37.0251 50.1935 37.05 49.8738L37.6143 43.5738C37.6309 43.3972 37.689 43.229 37.7886 43.086L44.644 32.7654V20.8636H44.4863C44.4033 20.8804 44.3203 20.8972 44.2456 20.8972H36.1619C35.5893 20.8972 35.1245 20.4262 35.1245 19.8458V11.6028H12.5749V52.4056V52.3972ZM39.7473 49.3019C39.4734 49.3019 39.2161 49.1925 39.0252 48.9991C38.8011 48.7804 38.6933 48.4692 38.7182 48.1495L39.0833 44.1037C39.0999 43.9271 39.158 43.7589 39.2576 43.6075L51.4412 25.2626C51.7566 24.7916 52.3957 24.657 52.8687 24.9682L56.9438 27.643C57.1761 27.7944 57.3338 28.0299 57.3919 28.3075C57.45 28.585 57.3919 28.8626 57.2508 29.0981L45.532 47.3084C45.532 47.3084 45.5154 47.3336 45.4988 47.3505C45.4988 47.3589 45.4905 47.3757 45.4822 47.3841L44.8681 48.343C44.6938 48.6037 44.4199 48.7804 44.1128 48.814L39.8718 49.2935C39.8718 49.2935 39.7971 49.2935 39.7556 49.2935L39.7473 49.3019ZM52.2961 25.3804C52.1467 25.3804 51.9973 25.4561 51.906 25.5907L39.7224 43.9355C39.6809 44.0028 39.6477 44.0785 39.6394 44.1626L39.2742 48.2084C39.2576 48.3514 39.3157 48.4944 39.4153 48.5953C39.5149 48.6963 39.656 48.7467 39.7971 48.7299L44.0381 48.2505C44.1792 48.2336 44.3037 48.1579 44.3784 48.0402L44.9676 47.1234C44.9925 47.0561 45.034 46.9888 45.0838 46.9383L56.7529 28.8037C56.8193 28.6944 56.8442 28.5682 56.8193 28.4421C56.7944 28.3159 56.7197 28.2065 56.6118 28.1393L52.5368 25.4645C52.4621 25.414 52.3708 25.3888 52.2795 25.3888L52.2961 25.3804ZM43.814 19.3748H37.6724C37.0998 19.3748 36.635 18.9037 36.635 18.3234V12.3514C36.635 12.2336 36.7014 12.1327 36.8093 12.0907C36.9089 12.0486 37.0334 12.0654 37.1164 12.1495L44.0132 18.8869C44.0962 18.971 44.1211 19.0888 44.0796 19.1981C44.0381 19.3075 43.9302 19.3748 43.814 19.3748ZM37.1994 13.0243V18.3234C37.1994 18.5841 37.4068 18.8028 37.6724 18.8028H43.1086L37.1994 13.0243Z" fill="#010013"/>
<path d="M18.433 27.3233H38.7833C39.1982 27.3233 39.5385 26.9785 39.5385 26.5579C39.5385 26.1373 39.1982 25.7925 38.7833 25.7925H18.433C18.018 25.7925 17.6777 26.1373 17.6777 26.5579C17.6777 26.9785 18.018 27.3233 18.433 27.3233Z" fill="#010013"/>
<path d="M38.7842 27.6092H18.4339C17.8613 27.6092 17.3965 27.1381 17.3965 26.5577C17.3965 25.9774 17.8613 25.5063 18.4339 25.5063H38.7842C39.3568 25.5063 39.8216 25.9774 39.8216 26.5577C39.8216 27.1381 39.3568 27.6092 38.7842 27.6092ZM18.4339 26.0783C18.1766 26.0783 17.9608 26.2886 17.9608 26.5577C17.9608 26.8269 18.1683 27.0372 18.4339 27.0372H38.7842C39.0415 27.0372 39.2573 26.8269 39.2573 26.5577C39.2573 26.2886 39.0498 26.0783 38.7842 26.0783H18.4339Z" fill="#010013"/>
<path d="M18.433 34.2965H38.7833C39.1982 34.2965 39.5385 33.9516 39.5385 33.531C39.5385 33.1105 39.1982 32.7656 38.7833 32.7656H18.433C18.018 32.7656 17.6777 33.1105 17.6777 33.531C17.6777 33.9516 18.018 34.2965 18.433 34.2965Z" fill="#010013"/>
<path d="M38.7842 34.5823H18.4339C17.8613 34.5823 17.3965 34.1113 17.3965 33.5309C17.3965 32.9505 17.8613 32.4795 18.4339 32.4795H38.7842C39.3568 32.4795 39.8216 32.9505 39.8216 33.5309C39.8216 34.1113 39.3568 34.5823 38.7842 34.5823ZM18.4339 33.0515C18.1766 33.0515 17.9608 33.2617 17.9608 33.5309C17.9608 33.8001 18.1683 34.0103 18.4339 34.0103H38.7842C39.0415 34.0103 39.2573 33.8001 39.2573 33.5309C39.2573 33.2617 39.0498 33.0515 38.7842 33.0515H18.4339Z" fill="#010013"/>
</g>
<defs>
<clipPath id="clip0_224_12840">
<rect width="49" height="45" fill="white" transform="translate(10.5 9.5)"/>
</clipPath>
</defs>
</svg>
