<svg width="40" height="40" viewBox="0 0 40 40" fill="none" xmlns="http://www.w3.org/2000/svg">
<rect width="40" height="40" rx="20" fill="#F5F5F5"/>
<path d="M9.04999 28V26.2C9.04999 25.65 9.19165 25.1333 9.47499 24.65C9.75832 24.1667 10.15 23.8 10.65 23.55C11.5 23.1167 12.4583 22.75 13.525 22.45C14.5917 22.15 15.7667 22 17.05 22C18.3333 22 19.5083 22.15 20.575 22.45C21.6417 22.75 22.6 23.1167 23.45 23.55C23.95 23.8 24.3417 24.1667 24.625 24.65C24.9083 25.1333 25.05 25.65 25.05 26.2V28C25.05 28.2833 24.954 28.521 24.762 28.713C24.57 28.905 24.3327 29.0007 24.05 29H10.05C9.76665 29 9.52932 28.904 9.33799 28.712C9.14665 28.52 9.05065 28.2827 9.04999 28ZM17.05 21C15.95 21 15.0083 20.6083 14.225 19.825C13.4417 19.0417 13.05 18.1 13.05 17H12.8C12.65 17 12.5293 16.9543 12.438 16.863C12.3467 16.7717 12.3007 16.6507 12.3 16.5C12.2993 16.3493 12.3453 16.2283 12.438 16.137C12.5307 16.0457 12.6513 16 12.8 16H13.05C13.05 15.25 13.2333 14.575 13.6 13.975C13.9667 13.375 14.45 12.9 15.05 12.55V13.5C15.05 13.65 15.096 13.771 15.188 13.863C15.28 13.955 15.4007 14.0007 15.55 14C15.6993 13.9993 15.8203 13.9537 15.913 13.863C16.0057 13.7723 16.0513 13.6513 16.05 13.5V12.15C16.2 12.1 16.3583 12.0627 16.525 12.038C16.6917 12.0133 16.8667 12.0007 17.05 12C17.2333 11.9993 17.4083 12.012 17.575 12.038C17.7417 12.064 17.9 12.1013 18.05 12.15V13.5C18.05 13.65 18.096 13.771 18.188 13.863C18.28 13.955 18.4007 14.0007 18.55 14C18.6993 13.9993 18.8203 13.9537 18.913 13.863C19.0057 13.7723 19.0513 13.6513 19.05 13.5V12.55C19.65 12.9 20.1333 13.375 20.5 13.975C20.8667 14.575 21.05 15.25 21.05 16H21.3C21.45 16 21.571 16.046 21.663 16.138C21.755 16.23 21.8007 16.3507 21.8 16.5C21.7993 16.6493 21.7537 16.7703 21.663 16.863C21.5723 16.9557 21.4513 17.0013 21.3 17H21.05C21.05 18.1 20.6583 19.0417 19.875 19.825C19.0917 20.6083 18.15 21 17.05 21ZM17.05 19C17.6 19 18.071 18.8043 18.463 18.413C18.855 18.0217 19.0507 17.5507 19.05 17H15.05C15.05 17.55 15.246 18.021 15.638 18.413C16.03 18.805 16.5007 19.0007 17.05 19ZM24.475 22.6L24.4 22.25C24.3 22.2167 24.2043 22.1793 24.113 22.138C24.0217 22.0967 23.934 22.034 23.85 21.95L23.55 22.05C23.4333 22.0833 23.321 22.0833 23.213 22.05C23.105 22.0167 23.0173 21.9417 22.95 21.825L22.85 21.65C22.7833 21.55 22.7627 21.4417 22.788 21.325C22.8133 21.2083 22.8673 21.1083 22.95 21.025L23.2 20.8V20.2L22.95 19.975C22.8667 19.8917 22.8127 19.7917 22.788 19.675C22.7633 19.5583 22.784 19.45 22.85 19.35L22.95 19.175C23.0167 19.0583 23.1043 18.9833 23.213 18.95C23.3217 18.9167 23.434 18.9167 23.55 18.95L23.85 19.05C23.9167 18.9833 24 18.925 24.1 18.875C24.2 18.825 24.3 18.7833 24.4 18.75L24.475 18.4C24.5083 18.2833 24.5667 18.1873 24.65 18.112C24.7333 18.0367 24.8333 17.9993 24.95 18H25.15C25.2667 18 25.3667 18.0377 25.45 18.113C25.5333 18.1883 25.5917 18.284 25.625 18.4L25.7 18.75C25.8 18.7833 25.9 18.825 26 18.875C26.1 18.925 26.1833 18.9833 26.25 19.05L26.55 18.95C26.6667 18.9167 26.7793 18.9167 26.888 18.95C26.9967 18.9833 27.084 19.0583 27.15 19.175L27.25 19.35C27.3167 19.45 27.3377 19.5583 27.313 19.675C27.2883 19.7917 27.234 19.8917 27.15 19.975L26.9 20.2V20.8L27.15 21.025C27.2333 21.1083 27.2877 21.2083 27.313 21.325C27.3383 21.4417 27.3173 21.55 27.25 21.65L27.15 21.825C27.0833 21.9417 26.996 22.0167 26.888 22.05C26.78 22.0833 26.6673 22.0833 26.55 22.05L26.25 21.95C26.1667 22.0333 26.0793 22.096 25.988 22.138C25.8967 22.18 25.8007 22.2173 25.7 22.25L25.625 22.6C25.5917 22.7167 25.5333 22.8127 25.45 22.888C25.3667 22.9633 25.2667 23.0007 25.15 23H24.95C24.8333 23 24.7333 22.9627 24.65 22.888C24.5667 22.8133 24.5083 22.7173 24.475 22.6ZM25.05 21.25C25.25 21.25 25.425 21.175 25.575 21.025C25.725 20.875 25.8 20.7 25.8 20.5C25.8 20.3 25.725 20.125 25.575 19.975C25.425 19.825 25.25 19.75 25.05 19.75C24.85 19.75 24.675 19.825 24.525 19.975C24.375 20.125 24.3 20.3 24.3 20.5C24.3 20.7 24.375 20.875 24.525 21.025C24.675 21.175 24.85 21.25 25.05 21.25ZM26.75 17.45L26.65 16.95C26.5 16.9 26.3623 16.8377 26.237 16.763C26.1117 16.6883 25.9993 16.6007 25.9 16.5L25.375 16.675C25.225 16.725 25.075 16.721 24.925 16.663C24.775 16.605 24.6583 16.509 24.575 16.375L24.425 16.125C24.3417 15.9917 24.3123 15.846 24.337 15.688C24.3617 15.53 24.441 15.3923 24.575 15.275L25 14.9C24.9667 14.8167 24.95 14.75 24.95 14.7V14.3C24.95 14.25 24.9667 14.1833 25 14.1L24.575 13.725C24.4417 13.6083 24.3623 13.4707 24.337 13.312C24.3117 13.1533 24.341 13.0077 24.425 12.875L24.575 12.625C24.6583 12.4917 24.775 12.3957 24.925 12.337C25.075 12.2783 25.225 12.2743 25.375 12.325L25.9 12.5C26 12.4 26.1127 12.3127 26.238 12.238C26.3633 12.1633 26.5007 12.1007 26.65 12.05L26.75 11.55C26.7833 11.3833 26.8627 11.25 26.988 11.15C27.1133 11.05 27.259 11 27.425 11H27.675C27.8417 11 27.9877 11.05 28.113 11.15C28.2383 11.25 28.3173 11.3833 28.35 11.55L28.45 12.05C28.6 12.1 28.7377 12.1627 28.863 12.238C28.9883 12.3133 29.1007 12.4007 29.2 12.5L29.725 12.325C29.875 12.275 30.025 12.2793 30.175 12.338C30.325 12.3967 30.4417 12.4923 30.525 12.625L30.675 12.875C30.7583 13.0083 30.7877 13.1543 30.763 13.313C30.7383 13.4717 30.659 13.609 30.525 13.725L30.1 14.1C30.1333 14.1833 30.15 14.25 30.15 14.3V14.7C30.15 14.75 30.1333 14.8167 30.1 14.9L30.525 15.275C30.6583 15.3917 30.7377 15.5293 30.763 15.688C30.7883 15.8467 30.759 15.9923 30.675 16.125L30.525 16.375C30.4417 16.5083 30.325 16.6043 30.175 16.663C30.025 16.7217 29.875 16.7257 29.725 16.675L29.2 16.5C29.1 16.6 28.9877 16.6873 28.863 16.762C28.7383 16.8367 28.6007 16.8993 28.45 16.95L28.35 17.45C28.3167 17.6167 28.2373 17.75 28.112 17.85C27.9867 17.95 27.841 18 27.675 18H27.425C27.2583 18 27.1127 17.95 26.988 17.85C26.8633 17.75 26.784 17.6167 26.75 17.45ZM27.55 15.75C27.9 15.75 28.196 15.6293 28.438 15.388C28.68 15.1467 28.8007 14.8507 28.8 14.5C28.7993 14.1493 28.6783 13.8533 28.437 13.612C28.1957 13.3707 27.9 13.25 27.55 13.25C27.2 13.25 26.904 13.371 26.662 13.613C26.42 13.855 26.2993 14.1507 26.3 14.5C26.3007 14.8493 26.4217 15.1453 26.663 15.388C26.9043 15.6307 27.2 15.7513 27.55 15.75Z" fill="#999999"/>
</svg>
