<svg width="40" height="40" viewBox="0 0 40 40" fill="none" xmlns="http://www.w3.org/2000/svg">
<rect width="40" height="40" rx="20" fill="#FFF5F5"/>
<path d="M14 28C13.1667 28 12.4583 27.7083 11.875 27.125C11.2917 26.5417 11 25.8333 11 25H9V14C9 13.45 9.196 12.9793 9.588 12.588C9.98 12.1967 10.4507 12.0007 11 12H25V16H28L31 20V25H29C29 25.8333 28.7083 26.5417 28.125 27.125C27.5417 27.7083 26.8333 28 26 28C25.1667 28 24.4583 27.7083 23.875 27.125C23.2917 26.5417 23 25.8333 23 25H17C17 25.8333 16.7083 26.5417 16.125 27.125C15.5417 27.7083 14.8333 28 14 28ZM14 26C14.2833 26 14.521 25.904 14.713 25.712C14.905 25.52 15.0007 25.2827 15 25C14.9993 24.7173 14.9033 24.48 14.712 24.288C14.5207 24.096 14.2833 24 14 24C13.7167 24 13.4793 24.096 13.288 24.288C13.0967 24.48 13.0007 24.7173 13 25C12.9993 25.2827 13.0953 25.5203 13.288 25.713C13.4807 25.9057 13.718 26.0013 14 26ZM26 26C26.2833 26 26.521 25.904 26.713 25.712C26.905 25.52 27.0007 25.2827 27 25C26.9993 24.7173 26.9033 24.48 26.712 24.288C26.5207 24.096 26.2833 24 26 24C25.7167 24 25.4793 24.096 25.288 24.288C25.0967 24.48 25.0007 24.7173 25 25C24.9993 25.2827 25.0953 25.5203 25.288 25.713C25.4807 25.9057 25.718 26.0013 26 26ZM25 21H29.25L27 18H25V21Z" fill="#CC0000"/>
</svg>
