<svg width="40" height="40" viewBox="0 0 40 40" fill="none" xmlns="http://www.w3.org/2000/svg">
<rect width="40" height="40" rx="20" fill="#F5F5F5"/>
<path d="M21.409 10.5131C20.5054 10.1467 19.4946 10.1467 18.591 10.5131L16.401 11.4011L25.993 15.1311L29.367 13.8281C29.2282 13.7139 29.0732 13.6213 28.907 13.5531L21.409 10.5131ZM30 15.1911L20.75 18.7651V21.0651C21.3572 20.4127 22.0924 19.8926 22.9097 19.5373C23.727 19.182 24.6088 18.9991 25.5 19.0001C27.247 19.0001 28.832 19.6891 30 20.8101V15.1911ZM19.25 23.7111V18.7651L10 15.1911V24.8281C10.0002 25.1763 10.1043 25.5166 10.299 25.8054C10.4937 26.0942 10.7702 26.3183 11.093 26.4491L18.591 29.4891C18.8063 29.5757 19.026 29.6424 19.25 29.6891V27.2921C19.0835 26.7093 18.9994 26.1061 19 25.5001C19 24.8791 19.087 24.2781 19.25 23.7101M10.633 13.8271L20 17.4471L23.917 15.9331L14.374 12.2231L11.093 13.5531C10.9223 13.6224 10.769 13.7131 10.633 13.8271ZM25.5 20.0001C24.0413 20.0001 22.6424 20.5795 21.6109 21.611C20.5795 22.6424 20 24.0414 20 25.5001C20 26.9587 20.5795 28.3577 21.6109 29.3891C22.6424 30.4206 24.0413 31.0001 25.5 31.0001C26.9587 31.0001 28.3576 30.4206 29.3891 29.3891C30.4205 28.3577 31 26.9587 31 25.5001C31 24.0414 30.4205 22.6424 29.3891 21.611C28.3576 20.5795 26.9587 20.0001 25.5 20.0001ZM22.002 25.4581L22.017 25.3721L22.037 25.3091L22.072 25.2421L22.104 25.1941L24.646 22.6461L24.716 22.5891C24.8122 22.5232 24.9285 22.493 25.0446 22.5038C25.1607 22.5146 25.2694 22.5657 25.3519 22.6481C25.4344 22.7306 25.4854 22.8393 25.4962 22.9554C25.507 23.0716 25.4769 23.1878 25.411 23.2841L25.354 23.3541L23.706 25.0011H29L29.09 25.0091C29.1899 25.0273 29.2819 25.0755 29.3537 25.1474C29.4255 25.2192 29.4737 25.3111 29.492 25.4111L29.5 25.5011L29.492 25.5911C29.4737 25.691 29.4255 25.7829 29.3537 25.8547C29.2819 25.9266 29.1899 25.9748 29.09 25.9931L29 26.0001L23.708 26.0011L25.354 27.6461L25.411 27.7161C25.4686 27.7995 25.4995 27.8986 25.4995 28.0001C25.4995 28.1015 25.4686 28.2006 25.411 28.2841L25.354 28.3541L25.284 28.4111C25.2005 28.4687 25.1015 28.4995 25 28.4995C24.8985 28.4995 24.7995 28.4687 24.716 28.4111L24.646 28.3541L22.134 25.8411L22.089 25.7851L22.047 25.7111L22.017 25.6281L22.005 25.5681L22 25.5121L22.002 25.4581Z" fill="#999999"/>
</svg>
