<svg width="40" height="40" viewBox="0 0 40 40" fill="none" xmlns="http://www.w3.org/2000/svg">
<rect width="40" height="40" rx="20" fill="#F5F5F5"/>
<path fill-rule="evenodd" clip-rule="evenodd" d="M20 31C21.4445 31 22.8749 30.7155 24.2095 30.1627C25.5441 29.6099 26.7567 28.7996 27.7782 27.7782C28.7996 26.7567 29.6099 25.5441 30.1627 24.2095C30.7155 22.8749 31 21.4445 31 20C31 18.5555 30.7155 17.1251 30.1627 15.7905C29.6099 14.4559 28.7996 13.2433 27.7782 12.2218C26.7567 11.2004 25.5441 10.3901 24.2095 9.83733C22.8749 9.28452 21.4445 9 20 9C17.0826 9 14.2847 10.1589 12.2218 12.2218C10.1589 14.2847 9 17.0826 9 20C9 22.9174 10.1589 25.7153 12.2218 27.7782C14.2847 29.8411 17.0826 31 20 31ZM19.7164 24.4489L25.8276 17.1156L23.9502 15.5511L18.6947 21.8566L15.9752 19.1359L14.247 20.8641L17.9137 24.5308L18.8597 25.4768L19.7164 24.4489Z" fill="#999999"/>
</svg>
