<svg width="64" height="64" viewBox="0 0 64 64" fill="none" xmlns="http://www.w3.org/2000/svg">
<rect y="0.000244141" width="64" height="64" rx="32" fill="#FFF5F5"/>
<path fill-rule="evenodd" clip-rule="evenodd" d="M31.9998 18.667C30.4566 18.6667 28.9462 19.1127 27.6507 19.9514C26.3552 20.79 25.33 21.9855 24.6985 23.3937C24.6087 23.5955 24.5167 23.7964 24.4225 23.9963L24.3958 23.9977C24.3105 24.0003 24.1945 24.0003 23.9998 24.0003C22.5853 24.0003 21.2288 24.5622 20.2286 25.5624C19.2284 26.5626 18.6665 27.9192 18.6665 29.3337C18.6665 30.7481 19.2284 32.1047 20.2286 33.1049C21.2288 34.1051 22.5853 34.667 23.9998 34.667H24.2292L26.8958 32.0003H23.9998C23.2926 32.0003 22.6143 31.7194 22.1142 31.2193C21.6141 30.7192 21.3332 30.0409 21.3332 29.3337C21.3332 28.6264 21.6141 27.9481 22.1142 27.448C22.6143 26.9479 23.2926 26.667 23.9998 26.667H24.0852C24.3625 26.667 24.6852 26.6683 24.9518 26.6137C25.2838 26.5569 25.6011 26.4345 25.8852 26.2537C26.2065 26.0457 26.4278 25.787 26.5958 25.551C26.6988 25.399 26.7884 25.2384 26.8638 25.071C26.9349 24.9225 27.0221 24.7323 27.1252 24.5003L27.1305 24.487C27.5511 23.5472 28.2346 22.7492 29.0986 22.1893C29.9626 21.6293 30.9702 21.3314 31.9998 21.3314C33.0294 21.3314 34.037 21.6293 34.9011 22.1893C35.7651 22.7492 36.4486 23.5472 36.8692 24.487L36.8758 24.5003C36.9781 24.7314 37.0647 24.9217 37.1358 25.071C37.1972 25.2003 37.2878 25.3883 37.4038 25.551C37.5718 25.7857 37.7918 26.0457 38.1145 26.255C38.4372 26.463 38.7638 26.5577 39.0478 26.615C39.3145 26.6683 39.6372 26.6683 39.9145 26.6683L39.9998 26.667C40.7071 26.667 41.3854 26.9479 41.8855 27.448C42.3855 27.9481 42.6665 28.6264 42.6665 29.3337C42.6665 30.0409 42.3855 30.7192 41.8855 31.2193C41.3854 31.7194 40.7071 32.0003 39.9998 32.0003H37.1038L39.7705 34.667H39.9998C41.4143 34.667 42.7709 34.1051 43.7711 33.1049C44.7713 32.1047 45.3332 30.7481 45.3332 29.3337C45.3332 27.9192 44.7713 26.5626 43.7711 25.5624C42.7709 24.5622 41.4143 24.0003 39.9998 24.0003C39.8052 24.0003 39.6892 24.0003 39.6038 23.9977H39.5772L39.5438 23.927C39.4613 23.75 39.3804 23.5722 39.3012 23.3937C38.6697 21.9855 37.6445 20.79 36.349 19.9514C35.0535 19.1127 33.5431 18.6667 31.9998 18.667Z" fill="#CC0000"/>
<path d="M32.0001 32.0003L31.0575 31.0577L32.0001 30.115L32.9428 31.0577L32.0001 32.0003ZM33.3335 44.0003C33.3335 44.3539 33.193 44.6931 32.9429 44.9431C32.6929 45.1932 32.3537 45.3337 32.0001 45.3337C31.6465 45.3337 31.3074 45.1932 31.0573 44.9431C30.8073 44.6931 30.6668 44.3539 30.6668 44.0003H33.3335ZM25.7241 36.391L31.0575 31.0577L32.9428 32.943L27.6095 38.2763L25.7241 36.391ZM32.9428 31.0577L38.2761 36.391L36.3908 38.2763L31.0575 32.943L32.9428 31.0577ZM33.3335 32.0003V44.0003H30.6668V32.0003H33.3335Z" fill="#CC0000"/>
</svg>
