<svg width="24" height="25" viewBox="0 0 24 25" fill="none" xmlns="http://www.w3.org/2000/svg">
<g clip-path="url(#clip0_28_2678)">
<circle cx="12.0001" cy="12.5001" r="8.4" fill="white"/>
<path d="M13.9236 12.2996L11.2284 11.042C10.9932 10.9328 10.8 11.0552 10.8 11.3156V13.6844C10.8 13.9448 10.9932 14.0672 11.2284 13.958L13.9224 12.7004C14.1588 12.59 14.1588 12.41 13.9236 12.2996ZM12 0.97998C5.63758 0.97998 0.47998 6.13758 0.47998 12.5C0.47998 18.8624 5.63758 24.02 12 24.02C18.3624 24.02 23.52 18.8624 23.52 12.5C23.52 6.13758 18.3624 0.97998 12 0.97998ZM12 17.18C6.10318 17.18 5.99998 16.6484 5.99998 12.5C5.99998 8.35158 6.10318 7.81998 12 7.81998C17.8968 7.81998 18 8.35158 18 12.5C18 16.6484 17.8968 17.18 12 17.18Z" fill="#CC0000"/>
</g>
<defs>
<clipPath id="clip0_28_2678">
<rect width="24" height="24" fill="white" transform="translate(0 0.5)"/>
</clipPath>
</defs>
</svg>
