<svg width="24" height="24" viewBox="0 0 24 24" fill="none" xmlns="http://www.w3.org/2000/svg">
<path fill-rule="evenodd" clip-rule="evenodd" d="M11.0435 1.24219H12.9562C15.5831 1.24219 17.1182 1.62802 18.4809 2.35863C19.8436 3.08924 20.919 4.15643 21.6414 5.51917C22.372 6.88188 22.7579 8.41698 22.7579 11.0439V12.9484C22.7579 15.5753 22.372 17.1104 21.6414 18.4731C20.9108 19.8359 19.8436 20.9113 18.4809 21.6337C17.1182 22.3643 15.5831 22.7501 12.9562 22.7501H11.0517C8.42475 22.7501 6.88965 22.3643 5.52694 21.6337C4.16424 20.9031 3.08884 19.8359 2.36644 18.4731C1.63583 17.1104 1.25 15.5753 1.25 12.9484V11.0439C1.25 8.41698 1.63583 6.88188 2.36644 5.51917C3.09705 4.15643 4.16424 3.08104 5.52694 2.35863C6.88146 1.62802 8.42475 1.24219 11.0435 1.24219Z" fill="#1877F2"/>
<path opacity="0.12" fill-rule="evenodd" clip-rule="evenodd" d="M22.7573 12.6348V12.9491C22.7573 15.576 22.3715 17.1111 21.6409 18.4738C20.9102 19.8365 19.843 20.9119 18.4803 21.6343C17.1176 22.3649 15.5825 22.7508 12.9556 22.7508H11.0511C8.90161 22.7508 7.48312 22.4924 6.29194 21.9982L4.32812 19.976L22.7573 12.6348Z" fill="#1877F2"/>
<path fill-rule="evenodd" clip-rule="evenodd" d="M4.54653 20.0455C5.55242 20.1567 6.81004 19.8699 7.70299 19.4364C11.5805 21.5796 17.6418 21.4772 21.3107 19.1292C21.453 18.9158 21.5859 18.6938 21.7093 18.4637C22.4426 17.096 22.8298 15.5553 22.8298 12.9188V11.0074C22.8298 8.37084 22.4426 6.83015 21.7093 5.46247C20.9843 4.09479 19.905 3.02371 18.5373 2.29043C17.1696 1.55716 15.6289 1.16992 12.9924 1.16992H11.0727C8.82724 1.16992 7.36956 1.45259 6.14481 1.99222C6.07786 2.05217 6.01217 2.11315 5.94787 2.17514C2.35466 5.63896 2.08152 13.1473 5.12843 17.226C5.13183 17.232 5.1356 17.2381 5.13973 17.2443C5.60936 17.9363 5.15621 19.1475 4.44766 19.856C4.33231 19.9631 4.3735 20.0291 4.54653 20.0455Z" fill="white"/>
<path d="M10.084 8.53125H5.87274V9.43426H8.79515L5.91375 13.0052C5.82346 13.1366 5.75781 13.2597 5.75781 13.5388V13.7687H9.73098C9.92801 13.7687 10.0922 13.6045 10.0922 13.4075V12.9231H7.02201L9.73098 9.52454C9.77203 9.47531 9.84591 9.38502 9.87878 9.34397L9.89519 9.31933C10.0512 9.08947 10.084 8.89244 10.084 8.65441V8.53125Z" fill="#1877F2"/>
<path d="M15.4444 13.7687H16.0436V8.53125H15.1406V13.4649C15.1406 13.6291 15.272 13.7687 15.4444 13.7687Z" fill="#1877F2"/>
<path d="M12.357 9.69824C11.2241 9.69824 10.3047 10.6177 10.3047 11.7505C10.3047 12.8834 11.2241 13.8028 12.357 13.8028C13.4898 13.8028 14.4092 12.8834 14.4092 11.7505C14.4175 10.6177 13.4981 9.69824 12.357 9.69824ZM12.357 12.9573C11.692 12.9573 11.1502 12.4154 11.1502 11.7505C11.1502 11.0856 11.692 10.5438 12.357 10.5438C13.0219 10.5438 13.5637 11.0856 13.5637 11.7505C13.5637 12.4154 13.0301 12.9573 12.357 12.9573Z" fill="#1877F2"/>
<path d="M18.7093 9.66504C17.5682 9.66504 16.6406 10.5927 16.6406 11.7337C16.6406 12.8748 17.5682 13.8025 18.7093 13.8025C19.8504 13.8025 20.778 12.8748 20.778 11.7337C20.778 10.5927 19.8504 9.66504 18.7093 9.66504ZM18.7093 12.9569C18.0362 12.9569 17.4944 12.4151 17.4944 11.742C17.4944 11.0688 18.0362 10.527 18.7093 10.527C19.3825 10.527 19.9243 11.0688 19.9243 11.742C19.9243 12.4151 19.3825 12.9569 18.7093 12.9569Z" fill="#1877F2"/>
<path d="M13.9354 13.7693H14.4198V9.8125H13.5742V13.4163C13.5742 13.6051 13.7384 13.7693 13.9354 13.7693Z" fill="#1877F2"/>
</svg>
