<svg width="24" height="24" viewBox="0 0 24 24" fill="none" xmlns="http://www.w3.org/2000/svg">
<path fill-rule="evenodd" clip-rule="evenodd" d="M11.0435 1.24219H12.9562C15.5831 1.24219 17.1182 1.62802 18.4809 2.35863C19.8436 3.08924 20.919 4.15643 21.6414 5.51917C22.372 6.88188 22.7579 8.41698 22.7579 11.0439V12.9484C22.7579 15.5753 22.372 17.1104 21.6414 18.4731C20.9108 19.8359 19.8436 20.9113 18.4809 21.6337C17.1182 22.3643 15.5831 22.7501 12.9562 22.7501H11.0517C8.42475 22.7501 6.88965 22.3643 5.52694 21.6337C4.16424 20.9031 3.08884 19.8359 2.36644 18.4731C1.63583 17.1104 1.25 15.5753 1.25 12.9484V11.0439C1.25 8.41698 1.63583 6.88188 2.36644 5.51917C3.09705 4.15643 4.16424 3.08104 5.52694 2.35863C6.88146 1.62802 8.42475 1.24219 11.0435 1.24219Z" fill="#0084FF"/>
<path opacity="0.12" fill-rule="evenodd" clip-rule="evenodd" d="M22.7577 12.6348V12.9491C22.7577 15.576 22.372 17.1111 21.6413 18.4738C20.9107 19.8365 19.8435 20.9119 18.4808 21.6343C17.1181 22.3649 15.583 22.7508 12.9561 22.7508H11.0516C8.9021 22.7508 7.48361 22.4924 6.29242 21.9982L4.32861 19.976L22.7577 12.6348Z" fill="#0084FF"/>
<path fill-rule="evenodd" clip-rule="evenodd" d="M4.54653 20.0455C5.55242 20.1567 6.81004 19.8699 7.70299 19.4364C11.5805 21.5796 17.6418 21.4772 21.3107 19.1292C21.453 18.9158 21.5859 18.6938 21.7093 18.4637C22.4426 17.096 22.8298 15.5553 22.8298 12.9188V11.0074C22.8298 8.37084 22.4426 6.83015 21.7093 5.46247C20.9843 4.09479 19.905 3.02371 18.5373 2.29043C17.1696 1.55716 15.6289 1.16992 12.9924 1.16992H11.0727C8.82724 1.16992 7.36956 1.45259 6.14481 1.99222C6.07786 2.05217 6.01217 2.11315 5.94787 2.17514C2.35466 5.63896 2.08152 13.1473 5.12843 17.226C5.13183 17.232 5.1356 17.2381 5.13973 17.2443C5.60936 17.9363 5.15621 19.1475 4.44766 19.856C4.33231 19.9631 4.3735 20.0291 4.54653 20.0455Z" fill="white"/>
<path d="M10.0825 8.53125H5.87127V9.43426H8.79369L5.91228 13.0052C5.822 13.1366 5.75635 13.2597 5.75635 13.5388V13.7687H9.72952C9.92655 13.7687 10.0908 13.6045 10.0908 13.4075V12.9231H7.02055L9.72952 9.52454C9.77057 9.47531 9.84444 9.38502 9.87731 9.34397L9.89372 9.31933C10.0497 9.08947 10.0825 8.89244 10.0825 8.65441V8.53125Z" fill="#0084FF"/>
<path d="M15.4429 13.7687H16.0422V8.53125H15.1392V13.4649C15.1392 13.6291 15.2705 13.7687 15.4429 13.7687Z" fill="#0084FF"/>
<path d="M12.3565 9.69727C11.2236 9.69727 10.3042 10.6167 10.3042 11.7495C10.3042 12.8824 11.2236 13.8018 12.3565 13.8018C13.4893 13.8018 14.4088 12.8824 14.4088 11.7495C14.417 10.6167 13.4976 9.69727 12.3565 9.69727ZM12.3565 12.9563C11.6916 12.9563 11.1497 12.4145 11.1497 11.7495C11.1497 11.0846 11.6916 10.5428 12.3565 10.5428C13.0214 10.5428 13.5632 11.0846 13.5632 11.7495C13.5632 12.4145 13.0296 12.9563 12.3565 12.9563Z" fill="#0084FF"/>
<path d="M18.71 9.66406C17.569 9.66406 16.6414 10.5917 16.6414 11.7328C16.6414 12.8738 17.569 13.8015 18.71 13.8015C19.8511 13.8015 20.7787 12.8738 20.7787 11.7328C20.7787 10.5917 19.8511 9.66406 18.71 9.66406ZM18.71 12.9559C18.0369 12.9559 17.4951 12.4141 17.4951 11.741C17.4951 11.0678 18.0369 10.526 18.71 10.526C19.3832 10.526 19.925 11.0678 19.925 11.741C19.925 12.4141 19.3832 12.9559 18.71 12.9559Z" fill="#0084FF"/>
<path d="M13.9337 13.7693H14.4181V9.8125H13.5725V13.4163C13.5725 13.6051 13.7367 13.7693 13.9337 13.7693Z" fill="#0084FF"/>
</svg>
