<svg width="20" height="21" viewBox="0 0 20 21" fill="none" xmlns="http://www.w3.org/2000/svg">
<path fill-rule="evenodd" clip-rule="evenodd" d="M1.54653 19.546C2.55242 19.6572 3.81004 19.3704 4.70299 18.9368C8.58051 21.0801 14.6418 20.9777 18.3107 18.6297C18.453 18.4163 18.5859 18.1943 18.7093 17.9642C19.4426 16.5965 19.8298 15.0558 19.8298 12.4193V10.5079C19.8298 7.87133 19.4426 6.33064 18.7093 4.96295C17.9843 3.59527 16.905 2.5242 15.5373 1.79092C14.1696 1.05765 12.6289 0.67041 9.99241 0.67041H8.07273C5.82724 0.67041 4.36956 0.953075 3.14481 1.49271C3.07786 1.55266 3.01217 1.61364 2.94787 1.67563C-0.645342 5.13945 -0.918482 12.6478 2.12843 16.7265C2.13183 16.7325 2.1356 16.7386 2.13973 16.7447C2.60936 17.4368 2.15621 18.648 1.44766 19.3565C1.33231 19.4636 1.3735 19.5295 1.54653 19.546Z" fill="white"/>
</svg>
